<svg xmlns="http://www.w3.org/2000/svg" xmlns:xlink="http://www.w3.org/1999/xlink" version="1.1" data-diagram-type="CLASS" style="width:689px;height:286px;background:#FFFDF8;" width="689px" height="286px" viewBox="0 0 689 286" zoomAndPan="magnify" preserveAspectRatio="none" contentStyleType="text/css"><?plantuml 1.2026.8?><defs/><g font-family="sans-serif" lengthAdjust="spacing"><rect x="0" y="0" width="689" height="286" fill="#FFFDF8" style="stroke:none;"/><!--class MO--><g class="entity" data-qualified-name="MO" id="ent0001" data-source-line="15"><rect x="168.73" y="35.46" width="104.909" height="48" fill="#FFFDF8" style="stroke:#C9B9A2;stroke-width:0.5;" rx="2.5" ry="2.5"/><ellipse cx="183.73" cy="51.46" rx="11" ry="11" fill="#A9DCDF" style="stroke:#181818;stroke-width:1;"/><path d="M183.593,46.808 L182.439,51.88 L184.755,51.88 Z M182.099,44.567 L185.096,44.567 L188.441,56.96 L185.992,56.96 L185.229,53.897 L181.95,53.897 L181.203,56.96 L178.754,56.96 Z " fill="#000"/><text x="197.73" y="56.373" fill="#2B241B" font-size="13" textLength="72.909" font-style="italic" font-family="'IBM Plex Sans'">MemoryObj</text><line x1="169.73" y1="67.46" x2="272.639" y2="67.46" style="stroke:#C9B9A2;stroke-width:0.5;"/><line x1="169.73" y1="75.46" x2="272.639" y2="75.46" style="stroke:#C9B9A2;stroke-width:0.5;"/></g><!--class TMO--><g class="entity" data-qualified-name="TMO" id="ent0002" data-source-line="16"><rect x="7" y="195.37" width="148.372" height="48" fill="#FFFDF8" style="stroke:#C9B9A2;stroke-width:0.5;" rx="2.5" ry="2.5"/><ellipse cx="22" cy="211.37" rx="11" ry="11" fill="#ADD1B2" style="stroke:#181818;stroke-width:1;"/><path d="M24.473,217.513 Q23.892,217.812 23.253,217.961 Q22.614,218.111 21.908,218.111 Q19.401,218.111 18.082,216.459 Q16.762,214.807 16.762,211.686 Q16.762,208.557 18.082,206.905 Q19.401,205.253 21.908,205.253 Q22.614,205.253 23.261,205.402 Q23.909,205.552 24.473,205.85 L24.473,208.573 Q23.842,207.992 23.249,207.722 Q22.655,207.453 22.024,207.453 Q20.68,207.453 19.995,208.519 Q19.31,209.586 19.31,211.686 Q19.31,213.778 19.995,214.844 Q20.68,215.911 22.024,215.911 Q22.655,215.911 23.249,215.641 Q23.842,215.371 24.473,214.79 Z " fill="#000"/><text x="36" y="216.283" fill="#2B241B" font-size="13" textLength="116.372" font-family="'IBM Plex Sans'">TensorMemoryObj</text><line x1="8" y1="227.37" x2="154.372" y2="227.37" style="stroke:#C9B9A2;stroke-width:0.5;"/><line x1="8" y1="235.37" x2="154.372" y2="235.37" style="stroke:#C9B9A2;stroke-width:0.5;"/></g><!--class PMO--><g class="entity" data-qualified-name="PMO" id="ent0003" data-source-line="17"><rect x="171.47" y="166.91" width="141.438" height="104.908" fill="#FFFDF8" style="stroke:#C9B9A2;stroke-width:0.5;" rx="2.5" ry="2.5"/><ellipse cx="187.043" cy="186.632" rx="11" ry="11" fill="#ADD1B2" style="stroke:#181818;stroke-width:1;"/><path d="M189.517,192.775 Q188.936,193.074 188.296,193.223 Q187.657,193.372 186.952,193.372 Q184.445,193.372 183.125,191.721 Q181.805,190.069 181.805,186.948 Q181.805,183.818 183.125,182.166 Q184.445,180.514 186.952,180.514 Q187.657,180.514 188.305,180.664 Q188.952,180.813 189.517,181.112 L189.517,183.835 Q188.886,183.254 188.292,182.984 Q187.699,182.714 187.068,182.714 Q185.723,182.714 185.038,183.781 Q184.354,184.848 184.354,186.948 Q184.354,189.039 185.038,190.106 Q185.723,191.173 187.068,191.173 Q187.699,191.173 188.292,190.903 Q188.886,190.633 189.517,190.052 Z " fill="#000"/><text x="224.966" y="183.512" fill="#000" font-size="12" textLength="60.574" font-style="italic" font-family="IBM Plex Sans">«插件新增»</text><text x="201.171" y="198.611" fill="#2B241B" font-size="13" textLength="108.164" font-family="'IBM Plex Sans'">ProxyMemoryObj</text><line x1="172.47" y1="206.353" x2="311.908" y2="206.353" style="stroke:#C9B9A2;stroke-width:0.5;"/><line x1="172.47" y1="214.353" x2="311.908" y2="214.353" style="stroke:#C9B9A2;stroke-width:0.5;"/><text x="177.47" y="231.889" fill="#000" font-size="14" textLength="77.458" font-family="'IBM Plex Sans'">+is_proxy()</text><text x="177.47" y="248.377" fill="#000" font-size="14" textLength="68.592" font-family="'IBM Plex Sans'">+resolve()</text><text x="177.47" y="264.865" fill="#000" font-size="14" textLength="129.438" font-family="'IBM Plex Sans'">+set_backing_obj()</text></g><!--class MF--><g class="entity" data-qualified-name="MF" id="ent0004" data-source-line="22"><rect x="17.62" y="7" width="127.126" height="104.908" fill="#FFFDF8" style="stroke:#C9B9A2;stroke-width:0.5;" rx="2.5" ry="2.5"/><ellipse cx="32.62" cy="26.722" rx="11" ry="11" fill="#ADD1B2" style="stroke:#181818;stroke-width:1;"/><path d="M35.093,32.865 Q34.512,33.164 33.873,33.313 Q33.234,33.462 32.528,33.462 Q30.021,33.462 28.702,31.811 Q27.382,30.159 27.382,27.038 Q27.382,23.908 28.702,22.256 Q30.021,20.604 32.528,20.604 Q33.234,20.604 33.881,20.754 Q34.529,20.903 35.093,21.202 L35.093,23.925 Q34.462,23.344 33.869,23.074 Q33.275,22.804 32.644,22.804 Q31.3,22.804 30.615,23.871 Q29.93,24.938 29.93,27.038 Q29.93,29.129 30.615,30.196 Q31.3,31.263 32.644,31.263 Q33.275,31.263 33.869,30.993 Q34.462,30.723 35.093,30.142 Z " fill="#000"/><text x="75.896" y="23.602" fill="#000" font-size="12" textLength="36.574" font-style="italic" font-family="IBM Plex Sans">«宿主»</text><text x="46.62" y="38.701" fill="#2B241B" font-size="13" textLength="95.126" font-family="'IBM Plex Sans'">MemoryFormat</text><line x1="18.62" y1="46.443" x2="143.746" y2="46.443" style="stroke:#C9B9A2;stroke-width:0.5;"/><text x="23.62" y="63.979" fill="#000" font-size="14" textLength="60.949" font-family="'IBM Plex Sans'">KV_2LTD</text><text x="23.62" y="80.467" fill="#000" font-size="14" textLength="89.893" font-family="'IBM Plex Sans'">KV_MLA_FMT</text><text x="23.62" y="96.955" fill="#000" font-size="14" textLength="53.484" font-family="'IBM Plex Sans'">KV_T2D</text><line x1="18.62" y1="103.908" x2="143.746" y2="103.908" style="stroke:#C9B9A2;stroke-width:0.5;"/></g><!--class KVF--><g class="entity" data-qualified-name="KVF" id="ent0005" data-source-line="27"><rect x="442.36" y="7" width="135.655" height="104.908" fill="#FFFDF8" style="stroke:#C9B9A2;stroke-width:0.5;" rx="2.5" ry="2.5"/><ellipse cx="459.193" cy="26.722" rx="11" ry="11" fill="#ADD1B2" style="stroke:#181818;stroke-width:1;"/><path d="M461.666,32.865 Q461.085,33.164 460.446,33.313 Q459.807,33.462 459.101,33.462 Q456.594,33.462 455.275,31.811 Q453.955,30.159 453.955,27.038 Q453.955,23.908 455.275,22.256 Q456.594,20.604 459.101,20.604 Q459.807,20.604 460.454,20.754 Q461.102,20.903 461.666,21.202 L461.666,23.925 Q461.035,23.344 460.442,23.074 Q459.848,22.804 459.217,22.804 Q457.873,22.804 457.188,23.871 Q456.503,24.938 456.503,27.038 Q456.503,29.129 457.188,30.196 Q457.873,31.263 459.217,31.263 Q459.848,31.263 460.442,30.993 Q461.035,30.723 461.666,30.142 Z " fill="#000"/><text x="505.104" y="23.602" fill="#000" font-size="12" textLength="36.574" font-style="italic" font-family="IBM Plex Sans">«插件»</text><text x="473.6" y="38.701" fill="#2B241B" font-size="13" textLength="99.582" font-family="'IBM Plex Sans'">KVCacheFormat</text><line x1="443.36" y1="46.443" x2="577.015" y2="46.443" style="stroke:#C9B9A2;stroke-width:0.5;"/><text x="448.36" y="63.979" fill="#000" font-size="14" textLength="81.983" font-family="'IBM Plex Sans'">MERGED_KV</text><text x="448.36" y="80.467" fill="#000" font-size="14" textLength="92.771" font-family="'IBM Plex Sans'">SEPARATE_KV</text><text x="448.36" y="96.955" fill="#000" font-size="14" textLength="123.655" font-family="'IBM Plex Sans'">MLA_KV / DSA_KV</text><line x1="443.36" y1="103.908" x2="577.015" y2="103.908" style="stroke:#C9B9A2;stroke-width:0.5;"/></g><g class="entity" data-qualified-name="GMN10" id="ent0011" data-source-line="39"><path d="M328.77,199.06 L328.77,215.37 L313.06,219.37 L328.77,223.37 L328.77,239.681 A0,0 0 0 0 328.77,239.681 L533.592,239.681 A0,0 0 0 0 533.592,239.681 L533.592,209.06 L523.592,199.06 L328.77,199.06 A0,0 0 0 0 328.77,199.06" style="stroke:#181818;stroke-width:0.5;" fill="#FEFFDD"/><path d="M523.592,199.06 L523.592,209.06 L533.592,209.06 L523.592,199.06" style="stroke:#181818;stroke-width:0.5;" fill="#FEFFDD"/><text x="334.77" y="216.628" fill="#000" font-size="13" textLength="169" font-family="'IBM Plex Sans'">延迟求值：一路携带元数据，</text><text x="334.77" y="231.939" fill="#000" font-size="13" textLength="183.822" font-family="'IBM Plex Sans'">到 batched_to_gpu 才 resolve</text></g><g class="entity" data-qualified-name="GMN13" id="ent0014" data-source-line="43"><path d="M549.69,206.71 L549.69,232.021 A0,0 0 0 0 549.69,232.021 L674.69,232.021 A0,0 0 0 0 674.69,232.021 L674.69,216.71 L664.69,206.71 L608.45,206.71 L543.58,112.16 L600.45,206.71 L549.69,206.71 A0,0 0 0 0 549.69,206.71" style="stroke:#181818;stroke-width:0.5;" fill="#FEFFDD"/><path d="M664.69,206.71 L664.69,216.71 L674.69,216.71 L664.69,206.71" style="stroke:#181818;stroke-width:0.5;" fill="#FEFFDD"/><text x="555.69" y="224.278" fill="#000" font-size="13" textLength="104" font-family="'IBM Plex Sans'">第二套格式词汇表</text></g><!--reverse link MO to TMO--><g class="link" data-entity-1="ent0001" data-entity-2="ent0002" id="lnk6" data-source-line="33" data-link-type="extension"><path d="M188.587,97.228 C162.117,127.078 128.44,165.07 101.93,194.97" style="stroke:#8A7A67;stroke-width:1;" fill="none" id="MO-backto-TMO" codeLine="33"/><polygon points="200.53,83.76,184.098,93.247,193.077,101.208,200.53,83.76" fill="none" style="stroke:#8A7A67;stroke-width:1;stroke-linejoin:miter;stroke-miterlimit:10;"/></g><!--reverse link MO to PMO--><g class="link" data-entity-1="ent0001" data-entity-2="ent0003" id="lnk7" data-source-line="34" data-link-type="extension"><path d="M226.656,101.602 C229.546,123.302 231.58,138.58 235.29,166.54" style="stroke:#8A7A67;stroke-width:1;" fill="none" id="MO-backto-PMO" codeLine="34"/><polygon points="224.28,83.76,220.709,102.395,232.604,100.81,224.28,83.76" fill="none" style="stroke:#8A7A67;stroke-width:1;stroke-linejoin:miter;stroke-miterlimit:10;"/></g><!--link MF to TMO--><g class="link" data-entity-1="ent0004" data-entity-2="ent0002" id="lnk8" data-source-line="35" data-link-type="dependency"><path d="M81.19,112.16 C81.19,140.23 81.19,168.52 81.19,190.26" style="stroke:#8A7A67;stroke-width:1;stroke-dasharray:7,7;" fill="none" id="MF-to-TMO" codeLine="35"/><polygon points="81.19,195.26,85.19,186.26,81.19,190.26,77.19,186.26,81.19,195.26" fill="#8A7A67" style="stroke:#8A7A67;stroke-width:1;stroke-linejoin:miter;stroke-miterlimit:10;"/><text x="82.19" y="144.478" fill="#000" font-size="13" textLength="52" font-family="'IBM Plex Sans'">分配器用</text></g><!--link KVF to PMO--><g class="link" data-entity-1="ent0005" data-entity-2="ent0003" id="lnk9" data-source-line="36" data-link-type="dependency"><path d="M442.22,97.35 C405.97,117.38 360.79,142.89 321.19,166.91 C318.53,168.52 320.077,167.541 317.357,169.231" style="stroke:#8A7A67;stroke-width:1;stroke-dasharray:7,7;" fill="none" id="KVF-to-PMO" codeLine="36"/><polygon points="313.11,171.87,322.866,170.518,317.357,169.231,318.644,163.723,313.11,171.87" fill="#8A7A67" style="stroke:#8A7A67;stroke-width:1;stroke-linejoin:miter;stroke-miterlimit:10;"/><text x="378.7" y="144.478" fill="#000" font-size="13" textLength="39" font-family="'IBM Plex Sans'">算子用</text></g><?plantuml-src TLBBRjD05DtxAwx21eHQI8hwG5Kavs5KfIPM4sLhZUF9et4yqSo4ja2b2bGeKgDM2AXWmKi2PL7IT5EY9b9_9dR2gh-09tPJTz7TlUUSEVVSQxDQrMuWYkfGj11ZCkUqQZGvNYaIErTzZk6XnAOILa4csQZQPIWXY-4GO-8IQbfS8JP_YkeO8Yi95JGBRq8EsImIKXgeM2jJqhJD9B48XJkAegIKnP329YPck07H-H18aLqJu5nOEOaCBoI0n2sk7aEeYMc09fSIItBCGsLAoKO0BieBylo21uhq0HPBn1v54m4skKDqJjgM96GmJb6HGqJ5TKAtiiPw1103DIlvOI9vR3D2RxBvQrgZP7Fh9gkfMLXUTW_U3_jdxgUky_DhF3vPwdwLwGsXltjFT1GpOZt3ViCmryKflO-X4sFT0xUlHlZk2g5rnFrmYkVlT2w6lNxWd2deiTLyog_KLLbNrBpVv6EfQwTC8OcA5HoooXIKQTR0IqslFKcdz4p1gtDfJLwJysc_4yQP0Zo0L4uKudvYrPSpCvEBNDMQg1MOdOqB61w3i_VctsxB-TmUVMXBOgAWj0arwXmvVmu5Bjc4Ow3LSeK3AKrC09p-sVZYctlwojaPN0w-37ixuxydxk6vq_ljxBvsFtRTLkToi2-KUrtlL-JUTgREYLvkDC5zruBWnXAsJH03_2a6uPpKnHWlZVTuT7myFDztVXsvtmVEu61yqd9Ftuv_jAVF_WC0?></g></svg>