<svg xmlns="http://www.w3.org/2000/svg" xmlns:xlink="http://www.w3.org/1999/xlink" version="1.1" data-diagram-type="CLASS" style="width:739px;height:574px;background:#FFFDF8;" width="739px" height="574px" viewBox="0 0 739 574" zoomAndPan="magnify" preserveAspectRatio="none" contentStyleType="text/css"><?plantuml 1.2026.8?><defs/><g font-family="sans-serif" lengthAdjust="spacing"><rect x="0" y="0" width="739" height="574" fill="#FFFDF8" style="stroke:none;"/><!--cluster ① 契约--><g class="cluster" data-qualified-name=". .." id="ent0001" data-source-line="15"><path d="M307.5,99 L355.114,99 A3.75,3.75 0 0 1 357.614,101.5 L364.614,121.488 L488.5,121.488 A2.5,2.5 0 0 1 491,123.988 L491,277.94 A2.5,2.5 0 0 1 488.5,280.44 L307.5,280.44 A2.5,2.5 0 0 1 305,277.94 L305,101.5 A2.5,2.5 0 0 1 307.5,99" style="stroke:#000;stroke-width:1.5;" fill="none"/><line x1="305" y1="121.488" x2="364.614" y2="121.488" style="stroke:#000;stroke-width:1.5;"/><text x="309" y="114.535" fill="#000" font-size="14" textLength="46.614" font-weight="700" font-family="'IBM Plex Sans'">① 契约</text></g><!--cluster ② 三个实现--><g class="cluster" data-qualified-name=". ...." id="ent0003" data-source-line="24"><path d="M119.5,313.44 L195.114,313.44 A3.75,3.75 0 0 1 197.614,315.94 L204.614,335.928 L702.5,335.928 A2.5,2.5 0 0 1 705,338.428 L705,417.39 A2.5,2.5 0 0 1 702.5,419.89 L119.5,419.89 A2.5,2.5 0 0 1 117,417.39 L117,315.94 A2.5,2.5 0 0 1 119.5,313.44" style="stroke:#000;stroke-width:1.5;" fill="none"/><line x1="117" y1="335.928" x2="204.614" y2="335.928" style="stroke:#000;stroke-width:1.5;"/><text x="121" y="328.975" fill="#000" font-size="14" textLength="74.614" font-weight="700" font-family="'IBM Plex Sans'">② 三个实现</text></g><!--cluster ③ 分配器--><g class="cluster" data-qualified-name=". ..." id="ent0007" data-source-line="29"><path d="M8.5,452.89 L70.114,452.89 A3.75,3.75 0 0 1 72.614,455.39 L79.614,475.378 L394.5,475.378 A2.5,2.5 0 0 1 397,477.878 L397,556.83 A2.5,2.5 0 0 1 394.5,559.33 L8.5,559.33 A2.5,2.5 0 0 1 6,556.83 L6,455.39 A2.5,2.5 0 0 1 8.5,452.89" style="stroke:#000;stroke-width:1.5;" fill="none"/><line x1="6" y1="475.378" x2="79.614" y2="475.378" style="stroke:#000;stroke-width:1.5;"/><text x="10" y="468.425" fill="#000" font-size="14" textLength="60.614" font-weight="700" font-family="'IBM Plex Sans'">③ 分配器</text></g><!--class P--><g class="entity" data-qualified-name=". ...P" id="ent0002" data-source-line="16"><rect x="320.92" y="134" width="154.167" height="130.441" fill="#FFFDF8" style="stroke:#C9B9A2;stroke-width:0.5;" rx="2.5" ry="2.5"/><ellipse cx="336.363" cy="150" rx="11" ry="11" fill="#B4A7E5" style="stroke:#181818;stroke-width:1;"/><path d="M332.79,146.265 L332.79,144.107 L340.17,144.107 L340.17,146.265 L337.705,146.265 L337.705,154.342 L340.17,154.342 L340.17,156.5 L332.79,156.5 L332.79,154.342 L335.256,154.342 L335.256,146.265 Z " fill="#000"/><text x="350.461" y="154.913" fill="#2B241B" font-size="13" textLength="121.183" font-style="italic" font-family="'IBM Plex Sans'">L1ManagerProtocol</text><line x1="321.92" y1="166" x2="474.087" y2="166" style="stroke:#C9B9A2;stroke-width:0.5;"/><text x="326.92" y="183.535" fill="#000" font-size="14" textLength="95.04" font-family="'IBM Plex Sans'">allocate / free</text><text x="326.92" y="200.023" fill="#000" font-size="14" textLength="131.435" font-family="'IBM Plex Sans'">get_memory_usage</text><text x="326.92" y="216.512" fill="#000" font-size="14" textLength="122.124" font-family="'IBM Plex Sans'">get_backend_type</text><text x="326.92" y="233" fill="#000" font-size="14" textLength="142.167" font-family="'IBM Plex Sans'">get_l1_memory_desc</text><text x="326.92" y="249.488" fill="#000" font-size="14" textLength="72.953" font-family="'IBM Plex Sans'">memcheck</text><line x1="321.92" y1="256.441" x2="474.087" y2="256.441" style="stroke:#C9B9A2;stroke-width:0.5;"/></g><!--class CPU--><g class="entity" data-qualified-name=". .....CPU" id="ent0004" data-source-line="25"><rect x="132.94" y="348.44" width="152.117" height="55.443" fill="#FFFDF8" style="stroke:#C9B9A2;stroke-width:0.5;" rx="2.5" ry="2.5"/><ellipse cx="147.94" cy="368.162" rx="11" ry="11" fill="#ADD1B2" style="stroke:#181818;stroke-width:1;"/><path d="M150.413,374.305 Q149.832,374.604 149.193,374.753 Q148.554,374.902 147.848,374.902 Q145.341,374.902 144.022,373.251 Q142.702,371.599 142.702,368.478 Q142.702,365.348 144.022,363.696 Q145.341,362.044 147.848,362.044 Q148.554,362.044 149.201,362.194 Q149.849,362.343 150.413,362.642 L150.413,365.365 Q149.782,364.784 149.189,364.514 Q148.595,364.244 147.964,364.244 Q146.62,364.244 145.935,365.311 Q145.25,366.378 145.25,368.478 Q145.25,370.569 145.935,371.636 Q146.62,372.703 147.964,372.703 Q148.595,372.703 149.189,372.433 Q149.782,372.163 150.413,371.582 Z " fill="#000"/><text x="176.14" y="365.042" fill="#000" font-size="12" textLength="91.717" font-style="italic" font-family="IBM Plex Sans">«pinned DRAM»</text><text x="161.94" y="380.141" fill="#2B241B" font-size="13" textLength="120.117" font-family="'IBM Plex Sans'">L1MemoryManager</text><line x1="133.94" y1="387.883" x2="284.057" y2="387.883" style="stroke:#C9B9A2;stroke-width:0.5;"/><line x1="133.94" y1="395.883" x2="284.057" y2="395.883" style="stroke:#C9B9A2;stroke-width:0.5;"/></g><!--class DAX--><g class="entity" data-qualified-name=". .....DAX" id="ent0005" data-source-line="26"><rect x="297.64" y="348.44" width="200.714" height="55.443" fill="#FFFDF8" style="stroke:#C9B9A2;stroke-width:0.5;" rx="2.5" ry="2.5"/><ellipse cx="312.64" cy="368.162" rx="11" ry="11" fill="#ADD1B2" style="stroke:#181818;stroke-width:1;"/><path d="M315.113,374.305 Q314.532,374.604 313.893,374.753 Q313.254,374.902 312.548,374.902 Q310.041,374.902 308.722,373.251 Q307.402,371.599 307.402,368.478 Q307.402,365.348 308.722,363.696 Q310.041,362.044 312.548,362.044 Q313.254,362.044 313.901,362.194 Q314.549,362.343 315.113,362.642 L315.113,365.365 Q314.482,364.784 313.889,364.514 Q313.295,364.244 312.664,364.244 Q311.32,364.244 310.635,365.311 Q309.95,366.378 309.95,368.478 Q309.95,370.569 310.635,371.636 Q311.32,372.703 312.664,372.703 Q313.295,372.703 313.889,372.433 Q314.482,372.163 315.113,371.582 Z " fill="#000"/><text x="370.474" y="365.042" fill="#000" font-size="12" textLength="81.047" font-style="italic" font-family="IBM Plex Sans">«device-DAX»</text><text x="326.64" y="380.141" fill="#2B241B" font-size="13" textLength="168.714" font-family="'IBM Plex Sans'">DevDaxL1MemoryManager</text><line x1="298.64" y1="387.883" x2="497.354" y2="387.883" style="stroke:#C9B9A2;stroke-width:0.5;"/><line x1="298.64" y1="395.883" x2="497.354" y2="395.883" style="stroke:#C9B9A2;stroke-width:0.5;"/></g><!--class GDS--><g class="entity" data-qualified-name=". .....GDS" id="ent0006" data-source-line="27"><rect x="510.88" y="348.44" width="178.25" height="55.443" fill="#FFFDF8" style="stroke:#C9B9A2;stroke-width:0.5;" rx="2.5" ry="2.5"/><ellipse cx="525.88" cy="368.162" rx="11" ry="11" fill="#ADD1B2" style="stroke:#181818;stroke-width:1;"/><path d="M528.353,374.305 Q527.772,374.604 527.133,374.753 Q526.494,374.902 525.788,374.902 Q523.281,374.902 521.962,373.251 Q520.642,371.599 520.642,368.478 Q520.642,365.348 521.962,363.696 Q523.281,362.044 525.788,362.044 Q526.494,362.044 527.141,362.194 Q527.789,362.343 528.353,362.642 L528.353,365.365 Q527.722,364.784 527.129,364.514 Q526.535,364.244 525.904,364.244 Q524.56,364.244 523.875,365.311 Q523.19,366.378 523.19,368.478 Q523.19,370.569 523.875,371.636 Q524.56,372.703 525.904,372.703 Q526.535,372.703 527.129,372.433 Q527.722,372.163 528.353,371.582 Z " fill="#000"/><text x="583.919" y="365.042" fill="#000" font-size="12" textLength="58.172" font-style="italic" font-family="IBM Plex Sans">«slab file»</text><text x="539.88" y="380.141" fill="#2B241B" font-size="13" textLength="146.25" font-family="'IBM Plex Sans'">GDSL1MemoryManager</text><line x1="511.88" y1="387.883" x2="688.13" y2="387.883" style="stroke:#C9B9A2;stroke-width:0.5;"/><line x1="511.88" y1="395.883" x2="688.13" y2="395.883" style="stroke:#C9B9A2;stroke-width:0.5;"/></g><!--class LAZY--><g class="entity" data-qualified-name=". ....LAZY" id="ent0008" data-source-line="30"><rect x="22.25" y="491.61" width="167.503" height="48" fill="#FFFDF8" style="stroke:#C9B9A2;stroke-width:0.5;" rx="2.5" ry="2.5"/><ellipse cx="37.25" cy="507.61" rx="11" ry="11" fill="#ADD1B2" style="stroke:#181818;stroke-width:1;"/><path d="M39.723,513.753 Q39.142,514.052 38.503,514.201 Q37.864,514.351 37.158,514.351 Q34.651,514.351 33.332,512.699 Q32.012,511.047 32.012,507.926 Q32.012,504.797 33.332,503.145 Q34.651,501.493 37.158,501.493 Q37.864,501.493 38.511,501.642 Q39.159,501.792 39.723,502.09 L39.723,504.813 Q39.092,504.232 38.499,503.962 Q37.905,503.693 37.274,503.693 Q35.93,503.693 35.245,504.759 Q34.56,505.826 34.56,507.926 Q34.56,510.018 35.245,511.084 Q35.93,512.151 37.274,512.151 Q37.905,512.151 38.499,511.881 Q39.092,511.611 39.723,511.03 Z " fill="#000"/><text x="51.25" y="512.523" fill="#2B241B" font-size="13" textLength="135.503" font-family="'IBM Plex Sans'">LazyMemoryAllocator</text><line x1="23.25" y1="523.61" x2="188.753" y2="523.61" style="stroke:#C9B9A2;stroke-width:0.5;"/><line x1="23.25" y1="531.61" x2="188.753" y2="531.61" style="stroke:#C9B9A2;stroke-width:0.5;"/></g><!--class MIX--><g class="entity" data-qualified-name=". ....MIX" id="ent0009" data-source-line="31"><rect x="203.25" y="487.89" width="177.501" height="55.443" fill="#FFFDF8" style="stroke:#C9B9A2;stroke-width:0.5;" rx="2.5" ry="2.5"/><ellipse cx="218.25" cy="507.612" rx="11" ry="11" fill="#ADD1B2" style="stroke:#181818;stroke-width:1;"/><path d="M220.723,513.755 Q220.142,514.054 219.503,514.203 Q218.864,514.352 218.158,514.352 Q215.651,514.352 214.332,512.701 Q213.012,511.049 213.012,507.928 Q213.012,504.798 214.332,503.146 Q215.651,501.494 218.158,501.494 Q218.864,501.494 219.511,501.644 Q220.159,501.793 220.723,502.092 L220.723,504.815 Q220.092,504.234 219.499,503.964 Q218.905,503.694 218.274,503.694 Q216.93,503.694 216.245,504.761 Q215.56,505.828 215.56,507.928 Q215.56,510.019 216.245,511.086 Q216.93,512.153 218.274,512.153 Q218.905,512.153 219.499,511.883 Q220.092,511.613 220.723,511.032 Z " fill="#000"/><text x="272.431" y="504.492" fill="#000" font-size="12" textLength="65.139" font-style="italic" font-family="IBM Plex Sans">«可选 shm»</text><text x="232.25" y="519.591" fill="#2B241B" font-size="13" textLength="145.501" font-family="'IBM Plex Sans'">MixedMemoryAllocator</text><line x1="204.25" y1="527.333" x2="379.751" y2="527.333" style="stroke:#C9B9A2;stroke-width:0.5;"/><line x1="204.25" y1="535.333" x2="379.751" y2="535.333" style="stroke:#C9B9A2;stroke-width:0.5;"/></g><!--class L1M--><g class="entity" data-qualified-name="L1M" id="ent0010" data-source-line="33"><rect x="347.28" y="7" width="101.443" height="48" fill="#FFFDF8" style="stroke:#C9B9A2;stroke-width:0.5;" rx="2.5" ry="2.5"/><ellipse cx="362.28" cy="23" rx="11" ry="11" fill="#ADD1B2" style="stroke:#181818;stroke-width:1;"/><path d="M364.753,29.143 Q364.172,29.442 363.533,29.591 Q362.894,29.741 362.188,29.741 Q359.681,29.741 358.362,28.089 Q357.042,26.437 357.042,23.316 Q357.042,20.187 358.362,18.535 Q359.681,16.883 362.188,16.883 Q362.894,16.883 363.541,17.032 Q364.189,17.182 364.753,17.48 L364.753,20.203 Q364.122,19.622 363.529,19.352 Q362.935,19.083 362.304,19.083 Q360.96,19.083 360.275,20.149 Q359.59,21.216 359.59,23.316 Q359.59,25.408 360.275,26.474 Q360.96,27.541 362.304,27.541 Q362.935,27.541 363.529,27.271 Q364.122,27.001 364.753,26.42 Z " fill="#000"/><text x="376.28" y="27.913" fill="#2B241B" font-size="13" textLength="69.443" font-family="'IBM Plex Sans'">L1Manager</text><line x1="348.28" y1="39" x2="447.723" y2="39" style="stroke:#C9B9A2;stroke-width:0.5;"/><line x1="348.28" y1="47" x2="447.723" y2="47" style="stroke:#C9B9A2;stroke-width:0.5;"/></g><g class="entity" data-qualified-name="GMN17" id="ent0018" data-source-line="43"><path d="M475.64,495.3 L475.64,535.921 A0,0 0 0 0 475.64,535.921 L724.356,535.921 A0,0 0 0 0 724.356,535.921 L724.356,505.3 L714.356,495.3 L604,495.3 L600,404.32 L596,495.3 L475.64,495.3 A0,0 0 0 0 475.64,495.3" style="stroke:#181818;stroke-width:0.5;" fill="#FEFFDD"/><path d="M714.356,495.3 L714.356,505.3 L724.356,505.3 L714.356,495.3" style="stroke:#181818;stroke-width:0.5;" fill="#FEFFDD"/><text x="481.64" y="512.868" fill="#000" font-size="13" textLength="194.594" font-family="'IBM Plex Sans'">get_l1_memory_desc() → None</text><text x="481.64" y="528.179" fill="#000" font-size="13" textLength="227.716" font-weight="700" font-family="'IBM Plex Sans'">所以 GDS L1 下 L2 adapter 必须禁用</text></g><!--reverse link P to CPU--><g class="link" data-entity-1="ent0002" data-entity-2="ent0004" id="lnk11" data-source-line="35" data-link-type="extension"><path d="M314.949,277.096 C283.819,305.906 262.07,326.04 238.11,348.22" style="stroke:#8A7A67;stroke-width:1;stroke-dasharray:7,7;" fill="none" id="P-backto-CPU" codeLine="35"/><polygon points="328.16,264.87,310.874,272.693,319.025,281.5,328.16,264.87" fill="none" style="stroke:#8A7A67;stroke-width:1;stroke-linejoin:miter;stroke-miterlimit:10;"/></g><!--reverse link P to DAX--><g class="link" data-entity-1="ent0002" data-entity-2="ent0005" id="lnk12" data-source-line="36" data-link-type="extension"><path d="M398,282.87 C398,311.68 398,326.04 398,348.22" style="stroke:#8A7A67;stroke-width:1;stroke-dasharray:7,7;" fill="none" id="P-backto-DAX" codeLine="36"/><polygon points="398,264.87,392,282.87,404,282.87,398,264.87" fill="none" style="stroke:#8A7A67;stroke-width:1;stroke-linejoin:miter;stroke-miterlimit:10;"/></g><!--reverse link P to GDS--><g class="link" data-entity-1="ent0002" data-entity-2="ent0006" id="lnk13" data-source-line="37" data-link-type="extension"><path d="M486.248,276.652 C519.408,305.362 543.03,325.82 568.63,347.99" style="stroke:#8A7A67;stroke-width:1;stroke-dasharray:7,7;" fill="none" id="P-backto-GDS" codeLine="37"/><polygon points="472.64,264.87,482.321,281.188,490.176,272.116,472.64,264.87" fill="none" style="stroke:#8A7A67;stroke-width:1;stroke-linejoin:miter;stroke-miterlimit:10;"/></g><!--reverse link CPU to LAZY--><g class="link" data-entity-1="ent0004" data-entity-2="ent0008" id="lnk14" data-source-line="38" data-link-type="composition"><path d="M181.455,413.924 C162.465,439.274 141.6,467.1 123.56,491.17" style="stroke:#8A7A67;stroke-width:1;" fill="none" id="CPU-backto-LAZY" codeLine="38"/><polygon points="188.65,404.32,181.851,406.724,181.455,413.924,188.254,411.52,188.65,404.32" fill="#8A7A67" style="stroke:#8A7A67;stroke-width:1;stroke-linejoin:miter;stroke-miterlimit:10;"/></g><!--reverse link CPU to MIX--><g class="link" data-entity-1="ent0004" data-entity-2="ent0009" id="lnk15" data-source-line="39" data-link-type="composition"><path d="M231.602,414.593 C246.152,438.693 261.1,463.43 275.64,487.51" style="stroke:#8A7A67;stroke-width:1;" fill="none" id="CPU-backto-MIX" codeLine="39"/><polygon points="225.4,404.32,225.077,411.524,231.602,414.593,231.925,407.389,225.4,404.32" fill="#8A7A67" style="stroke:#8A7A67;stroke-width:1;stroke-linejoin:miter;stroke-miterlimit:10;"/></g><!--reverse link L1M to P--><g class="link" data-entity-1="ent0010" data-entity-2="ent0002" id="lnk16" data-source-line="40" data-link-type="aggregation"><path d="M398,67.46 C398,87.78 398,106.14 398,133.65" style="stroke:#8A7A67;stroke-width:1;" fill="none" id="L1M-backto-P" codeLine="40"/><polygon points="398,55.46,394,61.46,398,67.46,402,61.46,398,55.46" fill="none" style="stroke:#8A7A67;stroke-width:1;stroke-linejoin:miter;stroke-miterlimit:10;"/><text x="399" y="79.568" fill="#000" font-size="13" textLength="52" font-family="'IBM Plex Sans'">持有一个</text></g><?plantuml-src TL9TQnD157tVNt69Bnf8DQlOLa9XaoKIICfY4DINCDcTJPVCpYopapQj5jA75eDVL7mHHApGKdnG7ujzyB-KR4B-XNTtasOByMtkcNFkFNFkX5sF1qGI7sn6mj1GIdhjdg8rM_2cjqVXdXPUKy8jueWTZtV09IoacHk7kgJ7L5LmjKby2hbQkG4Metre4XxcCimsiRiTANhSgGWc9DogLgjcTIt3uCAX8GsWU3y3IiAxCQZh6J2n32yrWF9_kkADa0wLCxIoNbutT4GDASNE35mpLes7gmZ6xcUONjOV5CipBCa1tUnhMe1pI0VVTtNy3QBJuycVirnYmEEAIfVOU5KlDWX7ahIaKC8MB0Sa12kX0H36X4qKXRlWIaeJh4DLowU-aBkjNeZAQp0EYtAdfNQ31SYASpBcP2SmrlOMjRjOxAFDZCiJ65qCHnS_efzV9-z_frxJs6AVIPkPsyHbnNeAfLBWSKuTC9yOZOsDXS2asoRfBvEPnZEKENJRisa1YwpgiTbS9a4O9I4ZRN0zHb5nm_TtY5uVJG_VHP_FRvecUxjfCoCDKgJjwiQBvmjMm-jJPncjKOkDHXz-JGT3_Cv-CdQHHyOVLffcGUdLoagSolo8ZviVyGLQd5U-K4Z7pmiSeg4S19ujU0JZjmVZBxY40Uv1qxZ0vRU5Ki87uIPTbktrzXsuEle8cuB7cy_dnyF1wF8qYQrUnAM-WReEn241_Zk8_XvEJoudPmUJJ-Vvl8PV1k8n_m00?></g></svg>