<svg xmlns="http://www.w3.org/2000/svg" xmlns:xlink="http://www.w3.org/1999/xlink" version="1.1" data-diagram-type="CLASS" style="width:1127px;height:497px;background:#FFFDF8;" width="1127px" height="497px" viewBox="0 0 1127 497" zoomAndPan="magnify" preserveAspectRatio="none" contentStyleType="text/css"><?plantuml 1.2026.8?><defs/><g font-family="sans-serif" lengthAdjust="spacing"><rect x="0" y="0" width="1127" height="497" fill="#FFFDF8" style="stroke:none;"/><g class="title" data-source-line="15"><text x="393.545" y="23.535" fill="#000" font-size="14" textLength="333.908" font-weight="700" font-family="'IBM Plex Sans'">MP 客户端适配器：一个连接器，按角色建两个适配器</text></g><!--class C--><g class="entity" data-qualified-name="C" id="ent0001" data-source-line="17"><rect x="521.94" y="44.488" width="204.145" height="121.396" fill="#FFFDF8" style="stroke:#C9B9A2;stroke-width:0.5;" rx="2.5" ry="2.5"/><ellipse cx="551.478" cy="64.21" rx="11" ry="11" fill="#ADD1B2" style="stroke:#181818;stroke-width:1;"/><path d="M553.951,70.353 Q553.37,70.652 552.73,70.801 Q552.091,70.951 551.386,70.951 Q548.879,70.951 547.559,69.299 Q546.239,67.647 546.239,64.526 Q546.239,61.396 547.559,59.745 Q548.879,58.093 551.386,58.093 Q552.091,58.093 552.739,58.242 Q553.386,58.392 553.951,58.69 L553.951,61.413 Q553.32,60.832 552.726,60.562 Q552.133,60.292 551.502,60.292 Q550.157,60.292 549.472,61.359 Q548.788,62.426 548.788,64.526 Q548.788,66.618 549.472,67.684 Q550.157,68.751 551.502,68.751 Q552.133,68.751 552.726,68.481 Q553.32,68.211 553.951,67.63 Z " fill="#000"/><text x="591.77" y="61.09" fill="#000" font-size="12" textLength="93.715" font-style="italic" font-family="IBM Plex Sans">«vLLM 的连接器»</text><text x="568.708" y="76.189" fill="#2B241B" font-size="13" textLength="139.839" font-family="'IBM Plex Sans'">LMCacheMPConnector</text><line x1="522.94" y1="83.932" x2="725.085" y2="83.932" style="stroke:#C9B9A2;stroke-width:0.5;"/><text x="527.94" y="101.467" fill="#000" font-size="14" textLength="192.145" font-family="'IBM Plex Sans'">role : SCHEDULER / WORKER</text><text x="527.94" y="117.955" fill="#000" font-size="14" textLength="110.988" font-family="'IBM Plex Sans'">持 SupportsHMA</text><line x1="522.94" y1="124.908" x2="725.085" y2="124.908" style="stroke:#C9B9A2;stroke-width:1;"/><text x="527.94" y="142.443" fill="#000" font-size="14" textLength="145.482" font-family="'IBM Plex Sans'">__init__ 里按 role 分叉</text><text x="527.94" y="158.932" fill="#000" font-size="14" textLength="107.229" font-family="'IBM Plex Sans'">12 个 vLLM 回调</text></g><!--class S--><g class="entity" data-qualified-name="S" id="ent0002" data-source-line="25"><rect x="282.03" y="210.888" width="231.953" height="121.396" fill="#FFFDF8" style="stroke:#C9B9A2;stroke-width:0.5;" rx="2.5" ry="2.5"/><ellipse cx="303.249" cy="230.61" rx="11" ry="11" fill="#ADD1B2" style="stroke:#181818;stroke-width:1;"/><path d="M305.723,236.753 Q305.141,237.052 304.502,237.201 Q303.863,237.351 303.158,237.351 Q300.651,237.351 299.331,235.699 Q298.011,234.047 298.011,230.926 Q298.011,227.796 299.331,226.145 Q300.651,224.493 303.158,224.493 Q303.863,224.493 304.511,224.642 Q305.158,224.792 305.723,225.09 L305.723,227.813 Q305.092,227.232 304.498,226.962 Q303.905,226.692 303.274,226.692 Q301.929,226.692 301.244,227.759 Q300.559,228.826 300.559,230.926 Q300.559,233.018 301.244,234.084 Q301.929,235.151 303.274,235.151 Q303.905,235.151 304.498,234.881 Q305.092,234.611 305.723,234.03 Z " fill="#000"/><text x="386.13" y="227.49" fill="#000" font-size="12" textLength="51.135" font-style="italic" font-family="IBM Plex Sans">«603 行»</text><text x="318.631" y="242.589" fill="#2B241B" font-size="13" textLength="186.132" font-family="'IBM Plex Sans'">LMCacheMPSchedulerAdapter</text><line x1="283.03" y1="250.332" x2="512.983" y2="250.332" style="stroke:#C9B9A2;stroke-width:0.5;"/><text x="288.03" y="267.867" fill="#000" font-size="14" textLength="140" font-family="'IBM Plex Sans'">只有调度阶段要的东西</text><line x1="283.03" y1="274.82" x2="512.983" y2="274.82" style="stroke:#C9B9A2;stroke-width:1;"/><text x="288.03" y="292.355" fill="#000" font-size="14" textLength="219.953" font-family="'IBM Plex Sans'">maybe_submit_lookup_request()</text><text x="288.03" y="308.843" fill="#000" font-size="14" textLength="147.684" font-family="'IBM Plex Sans'">check_lookup_result()</text><text x="288.03" y="325.332" fill="#000" font-size="14" textLength="131.646" font-family="'IBM Plex Sans'">free_lookup_locks()</text></g><!--class W--><g class="entity" data-qualified-name="W" id="ent0003" data-source-line="33"><rect x="724.47" y="210.888" width="253.069" height="121.396" fill="#FFFDF8" style="stroke:#C9B9A2;stroke-width:0.5;" rx="2.5" ry="2.5"/><ellipse cx="762.821" cy="230.61" rx="11" ry="11" fill="#ADD1B2" style="stroke:#181818;stroke-width:1;"/><path d="M765.294,236.753 Q764.713,237.052 764.074,237.201 Q763.435,237.351 762.729,237.351 Q760.223,237.351 758.903,235.699 Q757.583,234.047 757.583,230.926 Q757.583,227.796 758.903,226.145 Q760.223,224.493 762.729,224.493 Q763.435,224.493 764.082,224.642 Q764.73,224.792 765.294,225.09 L765.294,227.813 Q764.664,227.232 764.07,226.962 Q763.476,226.692 762.846,226.692 Q761.501,226.692 760.816,227.759 Q760.131,228.826 760.131,230.926 Q760.131,233.018 760.816,234.084 Q761.501,235.151 762.846,235.151 Q763.476,235.151 764.07,234.881 Q764.664,234.611 765.294,234.03 Z " fill="#000"/><text x="837.238" y="227.49" fill="#000" font-size="12" textLength="58.723" font-style="italic" font-family="IBM Plex Sans">«1158 行»</text><text x="782.01" y="242.589" fill="#2B241B" font-size="13" textLength="169.178" font-family="'IBM Plex Sans'">LMCacheMPWorkerAdapter</text><line x1="725.47" y1="250.332" x2="976.539" y2="250.332" style="stroke:#C9B9A2;stroke-width:0.5;"/><text x="730.47" y="267.867" fill="#000" font-size="14" textLength="140" font-family="'IBM Plex Sans'">只有执行阶段要的东西</text><line x1="725.47" y1="274.82" x2="976.539" y2="274.82" style="stroke:#C9B9A2;stroke-width:1;"/><text x="730.47" y="292.355" fill="#000" font-size="14" textLength="136.438" font-family="'IBM Plex Sans'">register_kv_caches()</text><text x="730.47" y="308.843" fill="#000" font-size="14" textLength="224.185" font-family="'IBM Plex Sans'">batched_submit_store_requests()</text><text x="730.47" y="325.332" fill="#000" font-size="14" textLength="241.069" font-family="'IBM Plex Sans'">batched_submit_retrieve_requests()</text></g><!--class P--><g class="entity" data-qualified-name="P" id="ent0004" data-source-line="41"><rect x="519.14" y="377.278" width="263.74" height="104.908" fill="#FFFDF8" style="stroke:#C9B9A2;stroke-width:0.5;" rx="2.5" ry="2.5"/><ellipse cx="598.388" cy="397" rx="11" ry="11" fill="#ADD1B2" style="stroke:#181818;stroke-width:1;"/><path d="M600.861,403.143 Q600.28,403.442 599.641,403.591 Q599.002,403.741 598.296,403.741 Q595.789,403.741 594.469,402.089 Q593.15,400.437 593.15,397.316 Q593.15,394.186 594.469,392.535 Q595.789,390.883 598.296,390.883 Q599.002,390.883 599.649,391.032 Q600.296,391.182 600.861,391.48 L600.861,394.203 Q600.23,393.622 599.637,393.352 Q599.043,393.082 598.412,393.082 Q597.067,393.082 596.383,394.149 Q595.698,395.216 595.698,397.316 Q595.698,399.408 596.383,400.474 Q597.067,401.541 598.412,401.541 Q599.043,401.541 599.637,401.271 Q600.23,401.001 600.861,400.42 Z " fill="#000"/><text x="636.973" y="393.88" fill="#000" font-size="12" textLength="60.574" font-style="italic" font-family="IBM Plex Sans">«共享类型»</text><text x="618.888" y="408.979" fill="#2B241B" font-size="13" textLength="96.745" font-family="'IBM Plex Sans'">ParallelStrategy</text><line x1="520.14" y1="416.722" x2="781.88" y2="416.722" style="stroke:#C9B9A2;stroke-width:0.5;"/><text x="525.14" y="434.257" fill="#000" font-size="14" textLength="181.18" font-family="'IBM Plex Sans'">mla_only · vllm_world_size</text><text x="525.14" y="450.745" fill="#000" font-size="14" textLength="251.74" font-family="'IBM Plex Sans'">vllm_worker_id · n_servers · dcp_size</text><line x1="520.14" y1="457.698" x2="781.88" y2="457.698" style="stroke:#C9B9A2;stroke-width:1;"/><text x="525.14" y="475.233" fill="#000" font-size="14" textLength="196.841" font-family="'IBM Plex Sans'">属性做换算：kv_world_size 等</text></g><!--class O--><g class="entity" data-qualified-name="O" id="ent0005" data-source-line="48"><rect x="283.13" y="385.528" width="225.753" height="88.42" fill="#FFFDF8" style="stroke:#C9B9A2;stroke-width:0.5;" rx="2.5" ry="2.5"/><ellipse cx="351.271" cy="405.25" rx="11" ry="11" fill="#ADD1B2" style="stroke:#181818;stroke-width:1;"/><path d="M353.744,411.393 Q353.163,411.692 352.524,411.841 Q351.885,411.991 351.179,411.991 Q348.672,411.991 347.353,410.339 Q346.033,408.687 346.033,405.566 Q346.033,402.436 347.353,400.785 Q348.672,399.133 351.179,399.133 Q351.885,399.133 352.532,399.282 Q353.18,399.432 353.744,399.73 L353.744,402.453 Q353.113,401.872 352.52,401.602 Q351.926,401.332 351.296,401.332 Q349.951,401.332 349.266,402.399 Q348.581,403.466 348.581,405.566 Q348.581,407.658 349.266,408.724 Q349.951,409.791 351.296,409.791 Q351.926,409.791 352.52,409.521 Q353.113,409.251 353.744,408.67 Z " fill="#000"/><text x="381.969" y="402.13" fill="#000" font-size="12" textLength="60.574" font-style="italic" font-family="IBM Plex Sans">«共享类型»</text><text x="371.771" y="417.229" fill="#2B241B" font-size="13" textLength="80.971" font-family="'IBM Plex Sans'">LoadStoreOp</text><line x1="284.13" y1="424.972" x2="507.883" y2="424.972" style="stroke:#C9B9A2;stroke-width:0.5;"/><text x="289.13" y="442.507" fill="#000" font-size="14" textLength="160.809" font-family="'IBM Plex Sans'">token_ids · block_ids[][]</text><text x="289.13" y="458.995" fill="#000" font-size="14" textLength="213.753" font-family="'IBM Plex Sans'">start · end · skip_first_n_tokens</text><line x1="284.13" y1="465.948" x2="507.883" y2="465.948" style="stroke:#C9B9A2;stroke-width:0.5;"/></g><!--class T--><g class="entity" data-qualified-name="T" id="ent0006" data-source-line="53"><rect x="7" y="377.278" width="266.017" height="104.908" fill="#FFFDF8" style="stroke:#C9B9A2;stroke-width:0.5;" rx="2.5" ry="2.5"/><ellipse cx="49.621" cy="397" rx="11" ry="11" fill="#ADD1B2" style="stroke:#181818;stroke-width:1;"/><path d="M52.094,403.143 Q51.513,403.442 50.874,403.591 Q50.234,403.741 49.529,403.741 Q47.022,403.741 45.702,402.089 Q44.382,400.437 44.382,397.316 Q44.382,394.186 45.702,392.535 Q47.022,390.883 49.529,390.883 Q50.234,390.883 50.882,391.032 Q51.529,391.182 52.094,391.48 L52.094,394.203 Q51.463,393.622 50.87,393.352 Q50.276,393.082 49.645,393.082 Q48.3,393.082 47.616,394.149 Q46.931,395.216 46.931,397.316 Q46.931,399.408 47.616,400.474 Q48.3,401.541 49.645,401.541 Q50.276,401.541 50.87,401.271 Q51.463,401.001 52.094,400.42 Z " fill="#000"/><text x="101.661" y="393.88" fill="#000" font-size="12" textLength="108.832" font-style="italic" font-family="IBM Plex Sans">«scheduler 侧状态»</text><text x="69.759" y="408.979" fill="#2B241B" font-size="13" textLength="172.637" font-family="'IBM Plex Sans'">LMCacheMPRequestTracker</text><line x1="8" y1="416.722" x2="272.017" y2="416.722" style="stroke:#C9B9A2;stroke-width:0.5;"/><text x="13" y="434.257" fill="#000" font-size="14" textLength="254.017" font-family="'IBM Plex Sans'">allocated_block_ids : dict[int, list[int]]</text><text x="13" y="450.745" fill="#000" font-size="14" textLength="170.741" font-family="'IBM Plex Sans'">num_lmcache_hit_tokens</text><text x="13" y="467.233" fill="#000" font-size="14" textLength="214.696" font-family="'IBM Plex Sans'">state : LMCacheMPRequestState</text><line x1="8" y1="474.186" x2="272.017" y2="474.186" style="stroke:#C9B9A2;stroke-width:0.5;"/></g><!--class H--><g class="entity" data-qualified-name="H" id="ent0007" data-source-line="59"><rect x="927.01" y="393.768" width="185.988" height="71.932" fill="#FFFDF8" style="stroke:#C9B9A2;stroke-width:0.5;" rx="2.5" ry="2.5"/><ellipse cx="963.679" cy="413.49" rx="11" ry="11" fill="#ADD1B2" style="stroke:#181818;stroke-width:1;"/><path d="M966.152,419.633 Q965.571,419.932 964.932,420.081 Q964.293,420.231 963.587,420.231 Q961.081,420.231 959.761,418.579 Q958.441,416.927 958.441,413.806 Q958.441,410.676 959.761,409.025 Q961.081,407.373 963.587,407.373 Q964.293,407.373 964.94,407.522 Q965.588,407.672 966.152,407.97 L966.152,410.693 Q965.521,410.112 964.928,409.842 Q964.334,409.572 963.704,409.572 Q962.359,409.572 961.674,410.639 Q960.989,411.706 960.989,413.806 Q960.989,415.898 961.674,416.964 Q962.359,418.031 963.704,418.031 Q964.334,418.031 964.928,417.761 Q965.521,417.491 966.152,416.91 Z " fill="#000"/><text x="985.601" y="410.37" fill="#000" font-size="12" textLength="99.621" font-style="italic" font-family="IBM Plex Sans">«PeriodicThread»</text><text x="982.495" y="425.469" fill="#2B241B" font-size="13" textLength="105.834" font-family="'IBM Plex Sans'">HeartbeatThread</text><line x1="928.01" y1="433.212" x2="1111.998" y2="433.212" style="stroke:#C9B9A2;stroke-width:0.5;"/><text x="933.01" y="450.747" fill="#000" font-size="14" textLength="173.988" font-family="'IBM Plex Sans'">探活 + 复活时重新登记显存</text><line x1="928.01" y1="457.7" x2="1111.998" y2="457.7" style="stroke:#C9B9A2;stroke-width:0.5;"/></g><!--class RC--><g class="entity" data-qualified-name="RC" id="ent0008" data-source-line="63"><rect x="793.03" y="402.008" width="123.965" height="55.443" fill="#FFFDF8" style="stroke:#C9B9A2;stroke-width:0.5;" rx="2.5" ry="2.5"/><ellipse cx="808.03" cy="421.73" rx="11" ry="11" fill="#ADD1B2" style="stroke:#181818;stroke-width:1;"/><path d="M810.503,427.873 Q809.922,428.172 809.283,428.321 Q808.644,428.471 807.938,428.471 Q805.431,428.471 804.112,426.819 Q802.792,425.167 802.792,422.046 Q802.792,418.916 804.112,417.265 Q805.431,415.613 807.938,415.613 Q808.644,415.613 809.291,415.762 Q809.939,415.912 810.503,416.21 L810.503,418.933 Q809.872,418.352 809.279,418.082 Q808.685,417.812 808.054,417.812 Q806.71,417.812 806.025,418.879 Q805.34,419.946 805.34,422.046 Q805.34,424.138 806.025,425.204 Q806.71,426.271 808.054,426.271 Q808.685,426.271 809.279,426.001 Q809.872,425.731 810.503,425.15 Z " fill="#000"/><text x="820.03" y="418.61" fill="#000" font-size="12" textLength="95.965" font-style="italic" font-family="IBM Plex Sans">«组件内 · 下一层»</text><text x="824.448" y="433.709" fill="#2B241B" font-size="13" textLength="87.128" font-family="'IBM Plex Sans'">RequestClient</text><line x1="794.03" y1="441.452" x2="915.995" y2="441.452" style="stroke:#C9B9A2;stroke-width:0.5;"/><line x1="794.03" y1="449.452" x2="915.995" y2="449.452" style="stroke:#C9B9A2;stroke-width:0.5;"/></g><g class="entity" data-qualified-name="GMN19" id="ent0020" data-source-line="77"><path d="M524.01,235.958 L524.01,267.578 L514.12,271.578 L524.01,275.578 L524.01,307.2 A0,0 0 0 0 524.01,307.2 L714.01,307.2 A0,0 0 0 0 714.01,307.2 L714.01,245.958 L704.01,235.958 L524.01,235.958 A0,0 0 0 0 524.01,235.958" style="stroke:#181818;stroke-width:0.5;" fill="#FEFFDD"/><path d="M704.01,235.958 L704.01,245.958 L714.01,245.958 L704.01,235.958" style="stroke:#181818;stroke-width:0.5;" fill="#FEFFDD"/><text x="530.01" y="253.527" fill="#000" font-size="13" textLength="130" font-weight="700" font-family="'IBM Plex Sans'">两个适配器不共享基类</text><text x="660.01" y="253.527" fill="#000" font-size="13" font-family="'IBM Plex Sans'">：</text><text x="530.01" y="268.837" fill="#000" font-size="13" textLength="169" font-family="'IBM Plex Sans'">字段与方法几乎没有交集——</text><text x="530.01" y="284.148" fill="#000" font-size="13" textLength="145.349" font-family="'IBM Plex Sans'">调度器不需要 block id，</text><text x="530.01" y="299.458" fill="#000" font-size="13" textLength="139.464" font-family="'IBM Plex Sans'">worker 不需要 token。</text></g><!--reverse link C to S--><g class="link" data-entity-1="ent0001" data-entity-2="ent0002" id="lnk9" data-source-line="65" data-link-type="composition"><path d="M531.755,173.296 C511.955,187.696 500.52,196.018 480.71,210.418" style="stroke:#8A7A67;stroke-width:1;" fill="none" id="C-backto-S" codeLine="65"/><polygon points="541.46,166.238,534.255,166.532,531.755,173.296,538.96,173.002,541.46,166.238" fill="#8A7A67" style="stroke:#8A7A67;stroke-width:1;stroke-linejoin:miter;stroke-miterlimit:10;"/><text x="518.78" y="193.457" fill="#000" font-size="13" textLength="126.737" font-family="'IBM Plex Sans'">role == SCHEDULER</text></g><!--reverse link C to W--><g class="link" data-entity-1="ent0001" data-entity-2="ent0003" id="lnk10" data-source-line="66" data-link-type="composition"><path d="M716.64,173.275 C736.53,187.675 748.05,196.018 767.94,210.418" style="stroke:#8A7A67;stroke-width:1;" fill="none" id="C-backto-W" codeLine="66"/><polygon points="706.92,166.238,709.434,172.997,716.64,173.275,714.126,166.517,706.92,166.238" fill="#8A7A67" style="stroke:#8A7A67;stroke-width:1;stroke-linejoin:miter;stroke-miterlimit:10;"/><text x="745.31" y="193.457" fill="#000" font-size="13" textLength="106.393" font-family="'IBM Plex Sans'">role == WORKER</text></g><!--link S to P--><g class="link" data-entity-1="ent0002" data-entity-2="ent0004" id="lnk11" data-source-line="67" data-link-type="dependency"><path d="M495.46,332.728 C519.13,347.338 539.965,360.203 562.945,374.383" style="stroke:#8A7A67;stroke-width:1;stroke-dasharray:7,7;" fill="none" id="S-to-P" codeLine="67"/><polygon points="567.2,377.008,561.641,368.878,562.945,374.383,557.44,375.686,567.2,377.008" fill="#8A7A67" style="stroke:#8A7A67;stroke-width:1;stroke-linejoin:miter;stroke-miterlimit:10;"/></g><!--link W to P--><g class="link" data-entity-1="ent0003" data-entity-2="ent0004" id="lnk12" data-source-line="68" data-link-type="dependency"><path d="M773.97,332.728 C755.26,347.338 739.361,359.751 721.201,373.931" style="stroke:#8A7A67;stroke-width:1;stroke-dasharray:7,7;" fill="none" id="W-to-P" codeLine="68"/><polygon points="717.26,377.008,726.815,374.622,721.201,373.931,721.892,368.317,717.26,377.008" fill="#8A7A67" style="stroke:#8A7A67;stroke-width:1;stroke-linejoin:miter;stroke-miterlimit:10;"/></g><!--link S to O--><g class="link" data-entity-1="ent0002" data-entity-2="ent0005" id="lnk13" data-source-line="69" data-link-type="dependency"><path d="M397.24,332.508 C397.02,350.058 396.831,363.899 396.631,380.209" style="stroke:#8A7A67;stroke-width:1;stroke-dasharray:7,7;" fill="none" id="S-to-O" codeLine="69"/><polygon points="396.57,385.208,400.68,376.258,396.631,380.209,392.681,376.16,396.57,385.208" fill="#8A7A67" style="stroke:#8A7A67;stroke-width:1;stroke-linejoin:miter;stroke-miterlimit:10;"/></g><!--link W to O--><g class="link" data-entity-1="ent0003" data-entity-2="ent0005" id="lnk14" data-source-line="70" data-link-type="dependency"><path d="M724.08,330.678 C722.38,331.228 720.69,331.758 719.01,332.278 C684.08,343.008 673.75,338.738 638.01,346.278 C582.43,358.018 567.79,358.978 514.01,377.278 C507.03,379.658 504.544,380.476 497.404,383.236" style="stroke:#8A7A67;stroke-width:1;stroke-dasharray:7,7;" fill="none" id="W-to-O" codeLine="70"/><polygon points="492.74,385.038,502.577,385.524,497.404,383.236,499.692,378.062,492.74,385.038" fill="#8A7A67" style="stroke:#8A7A67;stroke-width:1;stroke-linejoin:miter;stroke-miterlimit:10;"/></g><!--reverse link S to T--><g class="link" data-entity-1="ent0002" data-entity-2="ent0006" id="lnk15" data-source-line="71" data-link-type="composition"><path d="M288.365,338.943 C264.235,353.553 248.9,362.828 225.48,377.008" style="stroke:#8A7A67;stroke-width:1;" fill="none" id="S-backto-T" codeLine="71"/><polygon points="298.63,332.728,291.426,332.414,288.365,338.943,295.569,339.258,298.63,332.728" fill="#8A7A67" style="stroke:#8A7A67;stroke-width:1;stroke-linejoin:miter;stroke-miterlimit:10;"/></g><!--reverse link W to H--><g class="link" data-entity-1="ent0003" data-entity-2="ent0007" id="lnk16" data-source-line="72" data-link-type="composition"><path d="M924.674,340.652 C947.014,361.292 962.48,375.578 981.98,393.588" style="stroke:#8A7A67;stroke-width:1;" fill="none" id="W-backto-H" codeLine="72"/><polygon points="915.86,332.508,917.553,339.518,924.674,340.652,922.981,333.642,915.86,332.508" fill="#8A7A67" style="stroke:#8A7A67;stroke-width:1;stroke-linejoin:miter;stroke-miterlimit:10;"/></g><!--link S to RC--><g class="link" data-entity-1="ent0002" data-entity-2="ent0008" id="lnk17" data-source-line="73" data-link-type="dependency"><path d="M514.31,330.718 C515.88,331.258 517.45,331.778 519.01,332.278 C634.37,369.498 676.85,328.928 788.01,377.278 C801.73,383.248 811.277,389.466 822.457,398.596" style="stroke:#8A7A67;stroke-width:1;stroke-dasharray:7,7;" fill="none" id="S-to-RC" codeLine="73"/><polygon points="826.33,401.758,821.889,392.967,822.457,398.596,816.829,399.164,826.33,401.758" fill="#8A7A67" style="stroke:#8A7A67;stroke-width:1;stroke-linejoin:miter;stroke-miterlimit:10;"/><text x="745.97" y="359.847" fill="#000" font-size="13" textLength="65" font-family="'IBM Plex Sans'">过进程边界</text></g><!--link W to RC--><g class="link" data-entity-1="ent0003" data-entity-2="ent0008" id="lnk18" data-source-line="74" data-link-type="dependency"><path d="M852.54,332.508 C853.16,356.418 853.702,377.73 854.192,396.79" style="stroke:#8A7A67;stroke-width:1;stroke-dasharray:7,7;" fill="none" id="W-to-RC" codeLine="74"/><polygon points="854.32,401.788,858.087,392.688,854.192,396.79,850.09,392.894,854.32,401.788" fill="#8A7A67" style="stroke:#8A7A67;stroke-width:1;stroke-linejoin:miter;stroke-miterlimit:10;"/></g><?plantuml-src TPHRJnj7583VzrUCw4jBIngJDY4eGJ8EYAYujhnKF22q6kyEiF9wnfqPGsbLoT00SRb4gff00D46aH0bWaBQ4eCZaFfJsjtr-Yb_8MSlnWubahNUEUViET-vZSYPj80vpYFTmaB4fUHcjYZ9NPrHrVoUeAkAE3SH4zXWKoOTHsFO4gH5Ov0nNBHaFwFoQvmdgErkRnAbBV8TKZ4LRIsMMQpdnZahKYF1BCRHH_tz_NVwkreiA3E880KKQmtDCStvmivMom0P_Q0WrFi1hw1Xt20yaYPkzjwCTu8qpZcRYeHTyHlnwpT0wDD7iixUpYzYlP4ig4FiclAZeaXJMWGbqyZPttRllwwz_ADUcgtFBJkFdxzzisvNIdRbXNUsvQuy3IHBxbBPs_t5AxzogYTsPGUqv_QA4kAt3IOJM9yWoNI2KKfqoNWRmW8bqArRauE3ILHRltVkigSdI9SpeEX6QcAWxyutWtqPz3aQJcM-wik0pbsQGMgnK61SYe5a72GT7V3GD9EQKjDGVS6d2bquz-UT1sNGnZeHiA4WdhEnvHtyv6Tx4L25fr6q28yRk219oAa2v_Mhrv3tP2cYSnwyS3VBuCCvULPVEtBt__QUpK0MTcNJUthM0ChZwIpHH36R1ooBiLone77oRP48-V4de8TOUgwf431UWNoC4z8GMqpF2P1UmZhCUEvzq640ZSM-xFeVgLlU1T67IJaPDmLuqNAJckvx5m585ak_7eqK13IED3Aur88JM2uo-PvHapmD8srPn58bnvACJmVCQM1svWxjavUrmwgpjHXnvosiCMfDetzUeqdBocjJZ5iG1mOLj0q9vA-PXcz3DK7u9E72FnXweM4PfESSRhcbNMTctLtUhkslmXn3das7gBPNRYqmmuRgfveg18Ifomabon4AqOE8MRzF_c5aT6GKb49YBdq5eG4UR7H16pEva1hLWY_5PItDX6KRuh3iKK-78BfeJ2MoJtThFn-vfPa80kh9T2YcePqJmDOOfYv7J2e_GnQqrNyRzQ5eCQzP-Q2_sWHqA-88QAM_RHSvL5_UmZb08AiimN9eWXDi17m3m9Sct6GGD1H7QExAjljN5NsAd9rbU75NZ-eBo-wZWzhZghT_uAwTEdjhBRwZa0dB95G6dZF-_L2hthEhHyxyd5z5kx885v1pEDlJeoW9rDu1TpNjWFti3fVzzktcXT6Y7sxHHvU8YgvSwK5fPJZw3y-fw9o2S-FZ8P0rtWSYEo3hHjxPWdUsKNk-w9qUrnukHPzc4ef26LIJc-CJ4h4nf48jsjilN8rsPJaSAUUt4vYgzdQOINzGzrPXG-tAYllesFtpeRFmktsyuhvw0Yjid-pKD-R_BVqAFx0CxvxGKtsp14iTpY0o3RYKmI3S3jHK1zt-hpIh-2Ff8ohl0000?></g></svg>