<svg xmlns="http://www.w3.org/2000/svg" xmlns:xlink="http://www.w3.org/1999/xlink" version="1.1" data-diagram-type="CLASS" style="width:817px;height:468px;background:#FFFDF8;" width="817px" height="468px" viewBox="0 0 817 468" zoomAndPan="magnify" preserveAspectRatio="none" contentStyleType="text/css"><?plantuml 1.2026.8?><defs/><g font-family="sans-serif" lengthAdjust="spacing"><rect x="0" y="0" width="817" height="468" fill="#FFFDF8" style="stroke:none;"/><g class="title" data-source-line="15"><text x="267.346" y="23.535" fill="#000" font-size="14" textLength="275.413" font-weight="700" font-family="'IBM Plex Sans'">standalone：换掉组装契约，其余全部复用</text></g><!--class B--><g class="entity" data-qualified-name="B" id="ent0001" data-source-line="17"><rect x="67.61" y="196.388" width="228.098" height="121.396" fill="#FFFDF8" style="stroke:#C9B9A2;stroke-width:0.5;" rx="2.5" ry="2.5"/><ellipse cx="118.287" cy="216.11" rx="11" ry="11" fill="#ADD1B2" style="stroke:#181818;stroke-width:1;"/><path d="M120.76,222.253 Q120.179,222.552 119.54,222.701 Q118.901,222.851 118.195,222.851 Q115.688,222.851 114.368,221.199 Q113.048,219.547 113.048,216.426 Q113.048,213.296 114.368,211.645 Q115.688,209.993 118.195,209.993 Q118.901,209.993 119.548,210.142 Q120.195,210.292 120.76,210.59 L120.76,213.313 Q120.129,212.732 119.536,212.462 Q118.942,212.192 118.311,212.192 Q116.966,212.192 116.282,213.259 Q115.597,214.326 115.597,216.426 Q115.597,218.518 116.282,219.584 Q116.966,220.651 118.311,220.651 Q118.942,220.651 119.536,220.381 Q120.129,220.111 120.76,219.53 Z " fill="#000"/><text x="150.184" y="212.99" fill="#000" font-size="12" textLength="95.449" font-style="italic" font-family="IBM Plex Sans">«ABC · 九个槽位»</text><text x="138.787" y="228.089" fill="#2B241B" font-size="13" textLength="118.244" font-family="'IBM Plex Sans'">BaseServiceFactory</text><line x1="68.61" y1="235.832" x2="294.708" y2="235.832" style="stroke:#C9B9A2;stroke-width:0.5;"/><text x="73.61" y="253.367" fill="#000" font-size="14" textLength="60.43" font-family="'IBM Plex Sans'">… 共九个</text><line x1="68.61" y1="260.32" x2="294.708" y2="260.32" style="stroke:#C9B9A2;stroke-width:0.5;"/><text x="73.61" y="277.855" fill="#000" font-size="14" textLength="216.098" font-family="'IBM Plex Sans'">get_or_create_lmcache_engine()</text><text x="73.61" y="294.343" fill="#000" font-size="14" textLength="200.218" font-family="'IBM Plex Sans'">maybe_create_lookup_client()</text><text x="73.61" y="310.832" fill="#000" font-size="14" textLength="204.668" font-family="'IBM Plex Sans'">maybe_create_lookup_server()</text></g><!--class S--><g class="entity" data-qualified-name="S" id="ent0002" data-source-line="24"><rect x="7" y="364.788" width="349.313" height="88.42" fill="#FFFDF8" style="stroke:#C9B9A2;stroke-width:0.5;" rx="2.5" ry="2.5"/><ellipse cx="97.784" cy="384.51" rx="11" ry="11" fill="#ADD1B2" style="stroke:#181818;stroke-width:1;"/><path d="M100.258,390.653 Q99.677,390.952 99.037,391.101 Q98.398,391.251 97.693,391.251 Q95.186,391.251 93.866,389.599 Q92.546,387.947 92.546,384.826 Q92.546,381.696 93.866,380.045 Q95.186,378.393 97.693,378.393 Q98.398,378.393 99.046,378.542 Q99.693,378.692 100.258,378.99 L100.258,381.713 Q99.627,381.132 99.033,380.862 Q98.44,380.592 97.809,380.592 Q96.464,380.592 95.779,381.659 Q95.094,382.726 95.094,384.826 Q95.094,386.918 95.779,387.984 Q96.464,389.051 97.809,389.051 Q98.44,389.051 99.033,388.781 Q99.627,388.511 100.258,387.93 Z " fill="#000"/><text x="167.619" y="381.39" fill="#000" font-size="12" textLength="60.574" font-style="italic" font-family="IBM Plex Sans">«六空三填»</text><text x="118.284" y="396.489" fill="#2B241B" font-size="13" textLength="159.244" font-family="'IBM Plex Sans'">StandaloneServiceFactory</text><line x1="8" y1="404.232" x2="355.313" y2="404.232" style="stroke:#C9B9A2;stroke-width:0.5;"/><text x="13" y="421.767" fill="#000" font-size="14" textLength="337.313" font-family="'IBM Plex Sans'">填：engine / internal_api_server / health_monitor</text><text x="13" y="438.255" fill="#000" font-size="14" textLength="198.16" font-family="'IBM Plex Sans'">空：其余六个一律 return None</text><line x1="8" y1="445.208" x2="355.313" y2="445.208" style="stroke:#C9B9A2;stroke-width:0.5;"/></g><!--class M--><g class="entity" data-qualified-name="M" id="ent0003" data-source-line="29"><rect x="354.66" y="64.698" width="152" height="64.488" fill="#FFFDF8" style="stroke:#C9B9A2;stroke-width:0.5;" rx="2.5" ry="2.5"/><ellipse cx="373.906" cy="80.698" rx="11" ry="11" fill="#ADD1B2" style="stroke:#181818;stroke-width:1;"/><path d="M376.38,86.841 Q375.799,87.14 375.159,87.29 Q374.52,87.439 373.815,87.439 Q371.308,87.439 369.988,85.787 Q368.668,84.135 368.668,81.014 Q368.668,77.885 369.988,76.233 Q371.308,74.581 373.815,74.581 Q374.52,74.581 375.168,74.731 Q375.815,74.88 376.38,75.179 L376.38,77.901 Q375.749,77.32 375.155,77.051 Q374.562,76.781 373.931,76.781 Q372.586,76.781 371.901,77.847 Q371.216,78.914 371.216,81.014 Q371.216,83.106 371.901,84.173 Q372.586,85.239 373.931,85.239 Q374.562,85.239 375.155,84.97 Q375.749,84.7 376.38,84.119 Z " fill="#000"/><text x="388.85" y="85.611" fill="#2B241B" font-size="13" textLength="110.563" font-family="'IBM Plex Sans'">LMCacheManager</text><line x1="355.66" y1="96.698" x2="505.66" y2="96.698" style="stroke:#C9B9A2;stroke-width:0.5;"/><text x="360.66" y="114.233" fill="#000" font-size="14" textLength="140" font-family="'IBM Plex Sans'">按工厂返回的东西装配</text><line x1="355.66" y1="121.187" x2="505.66" y2="121.187" style="stroke:#C9B9A2;stroke-width:0.5;"/></g><!--class SM--><g class="entity" data-qualified-name="SM" id="ent0004" data-source-line="33"><rect x="324.61" y="224.848" width="212.089" height="64.488" fill="#FFFDF8" style="stroke:#C9B9A2;stroke-width:0.5;" rx="2.5" ry="2.5"/><ellipse cx="339.61" cy="240.848" rx="11" ry="11" fill="#ADD1B2" style="stroke:#181818;stroke-width:1;"/><path d="M342.083,246.991 Q341.502,247.29 340.863,247.44 Q340.224,247.589 339.518,247.589 Q337.011,247.589 335.692,245.937 Q334.372,244.285 334.372,241.164 Q334.372,238.035 335.692,236.383 Q337.011,234.731 339.518,234.731 Q340.224,234.731 340.871,234.881 Q341.519,235.03 342.083,235.329 L342.083,238.051 Q341.452,237.47 340.859,237.201 Q340.265,236.931 339.634,236.931 Q338.29,236.931 337.605,237.997 Q336.92,239.064 336.92,241.164 Q336.92,243.256 337.605,244.323 Q338.29,245.389 339.634,245.389 Q340.265,245.389 340.859,245.12 Q341.452,244.85 342.083,244.269 Z " fill="#000"/><text x="353.61" y="245.761" fill="#2B241B" font-size="13" textLength="180.089" font-family="'IBM Plex Sans'">StandaloneLMCacheManager</text><line x1="325.61" y1="256.848" x2="535.699" y2="256.848" style="stroke:#C9B9A2;stroke-width:0.5;"/><text x="330.61" y="274.383" fill="#000" font-size="14" textLength="126" font-family="'IBM Plex Sans'">只换工厂，其余继承</text><line x1="325.61" y1="281.337" x2="535.699" y2="281.337" style="stroke:#C9B9A2;stroke-width:0.5;"/></g><!--class ST--><g class="entity" data-qualified-name="ST" id="ent0005" data-source-line="37"><rect x="518.96" y="44.488" width="245.393" height="104.908" fill="#FFFDF8" style="stroke:#C9B9A2;stroke-width:0.5;" rx="2.5" ry="2.5"/><ellipse cx="554.574" cy="64.21" rx="11" ry="11" fill="#ADD1B2" style="stroke:#181818;stroke-width:1;"/><path d="M557.047,70.353 Q556.466,70.652 555.827,70.801 Q555.187,70.951 554.482,70.951 Q551.975,70.951 550.655,69.299 Q549.335,67.647 549.335,64.526 Q549.335,61.396 550.655,59.745 Q551.975,58.093 554.482,58.093 Q555.187,58.093 555.835,58.242 Q556.482,58.392 557.047,58.69 L557.047,61.413 Q556.416,60.832 555.822,60.562 Q555.229,60.292 554.598,60.292 Q553.253,60.292 552.569,61.359 Q551.884,62.426 551.884,64.526 Q551.884,66.618 552.569,67.684 Q553.253,68.751 554.598,68.751 Q555.229,68.751 555.822,68.481 Q556.416,68.211 557.047,67.63 Z " fill="#000"/><text x="636.287" y="61.09" fill="#000" font-size="12" font-style="italic" font-family="IBM Plex Sans">«</text><text x="642.574" y="61.09" fill="#000" font-size="12" textLength="28.746" font-style="italic" text-decoration="underline" font-family="IBM Plex Sans">main</text><text x="671.32" y="61.09" fill="#000" font-size="12" font-style="italic" font-family="IBM Plex Sans">»</text><text x="573.154" y="76.189" fill="#2B241B" font-size="13" textLength="167.584" font-family="'IBM Plex Sans'">LMCacheStandaloneStarter</text><line x1="519.96" y1="83.932" x2="763.353" y2="83.932" style="stroke:#C9B9A2;stroke-width:0.5;"/><line x1="519.96" y1="91.932" x2="763.353" y2="91.932" style="stroke:#C9B9A2;stroke-width:0.5;"/><text x="524.96" y="109.467" fill="#000" font-size="14" textLength="185.138" font-family="'IBM Plex Sans'">_generate_fixed_kvcaches()</text><text x="524.96" y="125.955" fill="#000" font-size="14" textLength="233.393" font-family="'IBM Plex Sans'">_generate_multi_group_kvcaches()</text><text x="524.96" y="142.443" fill="#000" font-size="14" textLength="95.266" font-family="'IBM Plex Sans'">start() / stop()</text></g><!--class L--><g class="entity" data-qualified-name="L" id="ent0006" data-source-line="43"><rect x="583.29" y="216.598" width="194.725" height="80.977" fill="#FFFDF8" style="stroke:#C9B9A2;stroke-width:0.5;" rx="2.5" ry="2.5"/><ellipse cx="625.842" cy="232.598" rx="11" ry="11" fill="#ADD1B2" style="stroke:#181818;stroke-width:1;"/><path d="M628.315,238.741 Q627.734,239.04 627.094,239.19 Q626.455,239.339 625.75,239.339 Q623.243,239.339 621.923,237.687 Q620.603,236.035 620.603,232.914 Q620.603,229.785 621.923,228.133 Q623.243,226.481 625.75,226.481 Q626.455,226.481 627.103,226.631 Q627.75,226.78 628.315,227.079 L628.315,229.801 Q627.684,229.22 627.09,228.951 Q626.497,228.681 625.866,228.681 Q624.521,228.681 623.836,229.747 Q623.152,230.814 623.152,232.914 Q623.152,235.006 623.836,236.073 Q624.521,237.139 625.866,237.139 Q626.497,237.139 627.09,236.87 Q627.684,236.6 628.315,236.019 Z " fill="#000"/><text x="645.964" y="237.511" fill="#2B241B" font-size="13" textLength="101.499" font-family="'IBM Plex Sans'">LayerGroupSpec</text><line x1="584.29" y1="248.598" x2="777.015" y2="248.598" style="stroke:#C9B9A2;stroke-width:0.5;"/><text x="589.29" y="266.133" fill="#000" font-size="14" textLength="182.725" font-family="'IBM Plex Sans'">layer_count · shape · dtype</text><line x1="584.29" y1="273.087" x2="777.015" y2="273.087" style="stroke:#C9B9A2;stroke-width:1;"/><text x="589.29" y="290.622" fill="#000" font-size="14" textLength="174.282" font-family="'IBM Plex Sans'">"(2,2,256,4,16):float16:2"</text></g><g class="entity" data-qualified-name="GMN12" id="ent0013" data-source-line="56"><path d="M366.51,373.378 L366.51,404.998 L356.81,408.998 L366.51,412.998 L366.51,444.62 A0,0 0 0 0 366.51,444.62 L586.807,444.62 A0,0 0 0 0 586.807,444.62 L586.807,383.378 L576.807,373.378 L366.51,373.378 A0,0 0 0 0 366.51,373.378" style="stroke:#181818;stroke-width:0.5;" fill="#FEFFDD"/><path d="M576.807,373.378 L576.807,383.378 L586.807,383.378 L576.807,373.378" style="stroke:#181818;stroke-width:0.5;" fill="#FEFFDD"/><text x="372.51" y="390.947" fill="#000" font-size="13" textLength="102.743" font-weight="700" font-family="'IBM Plex Sans'">它做的事是"减法"</text><text x="475.253" y="390.947" fill="#000" font-size="13" font-family="'IBM Plex Sans'">：</text><text x="372.51" y="406.257" fill="#000" font-size="13" textLength="167.013" font-family="'IBM Plex Sans'">九个槽位里六个返回 None。</text><text x="372.51" y="421.568" fill="#000" font-size="13" textLength="199.297" font-family="'IBM Plex Sans'">没有 lookup / offload / plugin /</text><text x="372.51" y="436.878" fill="#000" font-size="13" textLength="185.371" font-family="'IBM Plex Sans'">prometheus / 分散的 server。</text></g><g class="entity" data-qualified-name="GMN15" id="ent0016" data-source-line="62"><path d="M597.2,381.028 L597.2,436.96 A0,0 0 0 0 597.2,436.96 L802.104,436.96 A0,0 0 0 0 802.104,436.96 L802.104,391.028 L792.104,381.028 L700.21,381.028 L685.7,297.868 L692.21,381.028 L597.2,381.028 A0,0 0 0 0 597.2,381.028" style="stroke:#181818;stroke-width:0.5;" fill="#FEFFDD"/><path d="M792.104,381.028 L792.104,391.028 L802.104,391.028 L792.104,381.028" style="stroke:#181818;stroke-width:0.5;" fill="#FEFFDD"/><text x="603.2" y="398.597" fill="#000" font-size="13" textLength="117" font-weight="700" font-family="'IBM Plex Sans'">括号里的形状不解析</text><text x="720.2" y="398.597" fill="#000" font-size="13" textLength="26" font-family="'IBM Plex Sans'">——</text><text x="603.2" y="413.907" fill="#000" font-size="13" textLength="104" font-family="'IBM Plex Sans'">原样留成字符串，</text><text x="603.2" y="429.218" fill="#000" font-size="13" textLength="183.904" font-family="'IBM Plex Sans'">以容纳不同的 Attention 实现。</text></g><!--reverse link B to S--><g class="link" data-entity-1="ent0001" data-entity-2="ent0002" id="lnk7" data-source-line="49" data-link-type="extension"><path d="M181.66,336.198 C181.66,351.678 181.66,350.028 181.66,364.488" style="stroke:#8A7A67;stroke-width:1;" fill="none" id="B-backto-S" codeLine="49"/><polygon points="181.66,318.198,175.66,336.198,187.66,336.198,181.66,318.198" fill="none" style="stroke:#8A7A67;stroke-width:1;stroke-linejoin:miter;stroke-miterlimit:10;"/></g><!--reverse link M to SM--><g class="link" data-entity-1="ent0003" data-entity-2="ent0004" id="lnk8" data-source-line="50" data-link-type="extension"><path d="M430.66,147.558 C430.66,175.148 430.66,196.948 430.66,224.518" style="stroke:#8A7A67;stroke-width:1;" fill="none" id="M-backto-SM" codeLine="50"/><polygon points="430.66,129.558,424.66,147.558,436.66,147.558,430.66,129.558" fill="none" style="stroke:#8A7A67;stroke-width:1;stroke-linejoin:miter;stroke-miterlimit:10;"/></g><!--reverse link SM to S--><g class="link" data-entity-1="ent0004" data-entity-2="ent0002" id="lnk9" data-source-line="51" data-link-type="composition"><path d="M367.87,295.888 C331.78,317.618 293.65,340.568 253.92,364.488" style="stroke:#8A7A67;stroke-width:1;" fill="none" id="SM-backto-S" codeLine="51"/><polygon points="378.15,289.698,370.947,289.366,367.87,295.888,375.073,296.22,378.15,289.698" fill="#8A7A67" style="stroke:#8A7A67;stroke-width:1;stroke-linejoin:miter;stroke-miterlimit:10;"/><text x="307.16" y="346.357" fill="#000" font-size="13" textLength="65" font-family="'IBM Plex Sans'">构造时新建</text></g><!--reverse link ST to SM--><g class="link" data-entity-1="ent0005" data-entity-2="ent0004" id="lnk10" data-source-line="52" data-link-type="composition"><path d="M562.969,156.917 C530.039,181.607 501.31,203.138 472.79,224.508" style="stroke:#8A7A67;stroke-width:1;" fill="none" id="ST-backto-SM" codeLine="52"/><polygon points="572.57,149.718,565.37,150.117,562.969,156.917,570.169,156.518,572.57,149.718" fill="#8A7A67" style="stroke:#8A7A67;stroke-width:1;stroke-linejoin:miter;stroke-miterlimit:10;"/><text x="549.79" y="177.957" fill="#000" font-size="13" textLength="98.344" font-family="'IBM Plex Sans'">用它当 manager</text></g><!--link ST to L--><g class="link" data-entity-1="ent0005" data-entity-2="ent0006" id="lnk11" data-source-line="53" data-link-type="dependency"><path d="M654.43,149.718 C659.76,171.348 664.651,191.214 669.631,211.374" style="stroke:#8A7A67;stroke-width:1;stroke-dasharray:7,7;" fill="none" id="ST-to-L" codeLine="53"/><polygon points="670.83,216.228,672.555,206.532,669.631,211.374,664.788,208.45,670.83,216.228" fill="#8A7A67" style="stroke:#8A7A67;stroke-width:1;stroke-linejoin:miter;stroke-miterlimit:10;"/><text x="662.16" y="177.957" fill="#000" font-size="13" textLength="104" font-family="'IBM Plex Sans'">形状规格解析成它</text></g><?plantuml-src TLHjRnD74Fv-lsBbVaci66f30qGeaftA5LACaDplfytTsZxvRlUqjmRI5yc5kE0cJb8rAIMbQI3DIob9AKY9SU96wa-XtZld4t-1sRl3DMhGMQVrpEmppymySrxLeYxcs466ZJqlAmItPcg2N3COBLfV4FInvWr2l0essIsBbb49snuPyfYaX6kso3CghcE7eCIrN07TiCbjLCJKImn5pc2ZMkQiHiqfPZEEFihdyv_cBmz5K6OIZxWeFPoQOrfLnWl3nf0o-b93AFS1LF0mRX8UMwUkvAvaCs3DSivknSRBsKlPyKjWLEnZMoQNkPZEnRQm3-aBsjUQ9YnX4-G9J4riCqhU7A_vhIV-OZCuckjlDkJMzq5d-ytnWcmSzBeFPMFtzEwk_AqLhEngMiGsaSCUAH9-qp987Xk2yTa4mXxAeQjNixafzCyXwhtwfTT-wkzqUztMv6HONva8dN7Tu0GBejkEWOqAqGajMvICZ4A0WsTdoC3FMBNcwePj4Ie-wFQ01E6X-tLz6yd6Nr5YLMVCjJWez0p6HM0i6tl1xvrUkoaV_n5JXHDq9QA6pYEB2i8fjdNiMd5Ai5O8jaL5TnYr00zk0GhSUjUsFQ3HQzVbt_E84r7Z55q73aF4fWjJgWC5J76Py91E8SpkBpJbuPPSlDC_MP4_hmThSxtse_xM2GpdjD4wixGpi8eHc5nw2jEDy0P33Ovs_ER9_xaCzKfWBjuXVGvTqdK7MrJNumxfPK89LvCeMRU9gLTlXkFqmb7yvtHWeInTgTfzFyHJ-2EZq4PFC1TCGrpmBE6VgIj5bnWXW-amfwqSkW4R8fJ4O9DTeWwcc7K9-5CfU2L6CcFmV38-Td4iFJuwKR8P5kdnYKn2fG25VfLAeQ9MY0y53VgKJC4dWS8_D87yzRdJ-eR_uC3_yRaywcXG_C1T03-iWTo_Axi_W1x3Pgk8S-ScWUC4ajqdmNS7_PqvV-EulxFfho_xzvSXNDCe4mHngrmHY9KWFqB9fCBvPasDjpFl__HdGjvRyb-k9f99K1443A_GwRs5I56H948f_Lk_eyJouh7_g8cYVO1sifAgs8IJQzT0l-Wy1BcSEKHKICq3kxp_hR-w2MbH96M5GwY95CM8vmmJWZcAw7H8r9z_9fSEWGDSYahijLjHVSdaw_eA_9JI5d_rDmw3rOUgvhq7mRFjNli5I4wLShGbzry5dPTmJouh60HVQLXiYr4azzU3nUVliNWB?></g></svg>