<svg xmlns="http://www.w3.org/2000/svg" xmlns:xlink="http://www.w3.org/1999/xlink" version="1.1" data-diagram-type="ACTIVITY" style="width:716px;height:1438px;background:#FFFDF8;" width="716px" height="1438px" viewBox="0 0 716 1438" zoomAndPan="magnify" preserveAspectRatio="none" contentStyleType="text/css"><?plantuml 1.2026.8?><defs/><g font-family="sans-serif" lengthAdjust="spacing"><rect x="0" y="0" width="716" height="1438" fill="#FFFDF8" style="stroke:none;"/><g class="title" data-source-line="16"><text x="238.272" y="33.535" fill="#000" font-size="14" textLength="238.239" font-weight="700" font-family="'IBM Plex Sans'">LMCacheEngine.store() 的处理逻辑</text></g><ellipse cx="273.578" cy="62.488" rx="10" ry="10" fill="#222" style="stroke:#222;stroke-width:1;"/><path d="M369.895,97.488 L369.895,113.799 L349.895,117.799 L369.895,121.799 L369.895,138.109 A0,0 0 0 0 369.895,138.109 L631.979,138.109 A0,0 0 0 0 631.979,138.109 L631.979,107.488 L621.979,97.488 L369.895,97.488 A0,0 0 0 0 369.895,97.488" style="stroke:#181818;stroke-width:0.5;" fill="#FEFFDD"/><path d="M621.979,97.488 L621.979,107.488 L631.979,107.488 L621.979,97.488" style="stroke:#181818;stroke-width:0.5;" fill="#FEFFDD"/><text x="375.895" y="115.057" fill="#000" font-size="13" textLength="65" font-family="'IBM Plex Sans'">第一道闸：</text><text x="440.895" y="115.057" fill="#000" font-size="13" textLength="52" font-weight="700" font-family="'IBM Plex Sans'">健康检查</text><text x="375.895" y="130.367" fill="#000" font-size="13" textLength="241.084" font-family="'IBM Plex Sans'">在 assert 之前——不健康时连断言都不做</text><rect x="197.261" y="92.488" width="152.634" height="50.621" fill="#FFFDF8" style="stroke:#C9B9A2;stroke-width:0.5;" rx="12.5" ry="12.5"/><text x="207.261" y="115.057" fill="#2B241B" font-size="13" textLength="76.794" font-family="'IBM Plex Sans'">is_healthy()?</text><text x="207.261" y="130.367" fill="#2B241B" font-size="13" textLength="132.634" font-weight="700" font-family="'IBM Plex Sans'">不健康 → 直接 return</text><path d="M339.611,216.587 L339.611,225.242 L319.611,229.242 L339.611,233.242 L339.611,241.897 A0,0 0 0 0 339.611,241.897 L475.002,241.897 A0,0 0 0 0 475.002,241.897 L475.002,226.587 L465.002,216.587 L339.611,216.587 A0,0 0 0 0 339.611,216.587" style="stroke:#181818;stroke-width:0.5;" fill="#FEFFDD"/><path d="M465.002,216.587 L465.002,226.587 L475.002,226.587 L465.002,216.587" style="stroke:#181818;stroke-width:0.5;" fill="#FEFFDD"/><text x="345.611" y="234.155" fill="#000" font-size="13" textLength="114.391" font-family="'IBM Plex Sans'">被动 rank 不写缓存</text><rect x="227.546" y="211.587" width="92.065" height="35.311" fill="#FFFDF8" style="stroke:#C9B9A2;stroke-width:0.5;" rx="12.5" ry="12.5"/><text x="237.546" y="234.155" fill="#2B241B" font-size="13" textLength="72.065" font-weight="700" font-family="'IBM Plex Sans'">直接 return</text><polygon points="231.744,163.109,315.412,163.109,327.412,175.109,315.412,187.109,231.744,187.109,219.744,175.109,231.744,163.109" fill="#FFF6E5" style="stroke:#C9B9A2;stroke-width:0.5;stroke-linejoin:miter;stroke-miterlimit:10;"/><text x="277.578" y="197.744" fill="#000" font-size="11" font-family="'IBM Plex Sans'">是</text><text x="231.744" y="180.022" fill="#2B241B" font-size="13" textLength="83.668" font-family="'IBM Plex Sans'">_is_passive()?</text><text x="327.412" y="172.789" fill="#000" font-size="11" font-family="'IBM Plex Sans'">否</text><polygon points="273.578,266.897,285.578,278.897,273.578,290.897,261.578,278.897,273.578,266.897" fill="#FFF6E5" style="stroke:#C9B9A2;stroke-width:0.5;stroke-linejoin:miter;stroke-miterlimit:10;"/><path d="M386.155,300.897 L386.155,340.174 L366.155,344.174 L386.155,348.174 L386.155,387.45 A0,0 0 0 0 386.155,387.45 L695.783,387.45 A0,0 0 0 0 695.783,387.45 L695.783,310.897 L685.783,300.897 L386.155,300.897 A0,0 0 0 0 386.155,300.897" style="stroke:#181818;stroke-width:0.5;" fill="#FEFFDD"/><path d="M685.783,300.897 L685.783,310.897 L695.783,310.897 L685.783,300.897" style="stroke:#181818;stroke-width:0.5;" fill="#FEFFDD"/><text x="392.155" y="318.466" fill="#000" font-size="13" textLength="52" font-weight="700" font-family="'IBM Plex Sans'">三条来源</text><text x="444.155" y="318.466" fill="#000" font-size="13" font-family="'IBM Plex Sans'">：</text><text x="392.155" y="333.776" fill="#000" font-size="13" textLength="160.602" font-family="'IBM Plex Sans'">mask → torch.sum(mask)</text><text x="392.155" y="349.087" fill="#000" font-size="13" textLength="133.517" font-family="'IBM Plex Sans'">tokens → len(tokens)</text><text x="392.155" y="364.397" fill="#000" font-size="13" textLength="143.229" font-family="'IBM Plex Sans'">hashes → sum(offsets)</text><text x="392.155" y="379.708" fill="#000" font-size="13" textLength="288.628" font-weight="700" font-family="'IBM Plex Sans'">hashes 路径还会把 slot_mapping 转成 tensor</text><rect x="181.002" y="326.519" width="185.153" height="35.311" fill="#FFFDF8" style="stroke:#C9B9A2;stroke-width:0.5;" rx="12.5" ry="12.5"/><text x="191.002" y="349.087" fill="#2B241B" font-size="13" textLength="165.153" font-family="'IBM Plex Sans'">算出 num_to_store_tokens</text><path d="M339.611,460.928 L339.611,469.583 L319.611,473.583 L339.611,477.583 L339.611,486.238 A0,0 0 0 0 339.611,486.238 L477.611,486.238 A0,0 0 0 0 477.611,486.238 L477.611,470.928 L467.611,460.928 L339.611,460.928 A0,0 0 0 0 339.611,460.928" style="stroke:#181818;stroke-width:0.5;" fill="#FEFFDD"/><path d="M467.611,460.928 L467.611,470.928 L477.611,470.928 L467.611,460.928" style="stroke:#181818;stroke-width:0.5;" fill="#FEFFDD"/><text x="345.611" y="478.496" fill="#000" font-size="13" textLength="117" font-family="'IBM Plex Sans'">第二道闸：冻结模式</text><rect x="227.546" y="455.928" width="92.065" height="35.311" fill="#FFFDF8" style="stroke:#C9B9A2;stroke-width:0.5;" rx="12.5" ry="12.5"/><text x="237.546" y="478.496" fill="#2B241B" font-size="13" textLength="72.065" font-weight="700" font-family="'IBM Plex Sans'">直接 return</text><polygon points="237.743,407.45,309.414,407.45,321.414,419.45,309.414,431.45,237.743,431.45,225.743,419.45,237.743,407.45" fill="#FFF6E5" style="stroke:#C9B9A2;stroke-width:0.5;stroke-linejoin:miter;stroke-miterlimit:10;"/><text x="277.578" y="442.085" fill="#000" font-size="11" font-family="'IBM Plex Sans'">是</text><text x="237.743" y="424.363" fill="#2B241B" font-size="13" textLength="71.671" font-family="'IBM Plex Sans'">is_frozen()?</text><text x="321.414" y="417.13" fill="#000" font-size="11" font-family="'IBM Plex Sans'">否</text><polygon points="273.578,511.238,285.578,523.238,273.578,535.238,261.578,523.238,273.578,511.238" fill="#FFF6E5" style="stroke:#C9B9A2;stroke-width:0.5;stroke-linejoin:miter;stroke-miterlimit:10;"/><path d="M422.21,567.894 L422.21,576.549 L402.21,580.549 L422.21,584.549 L422.21,593.204 A0,0 0 0 0 422.21,593.204 L603.069,593.204 A0,0 0 0 0 603.069,593.204 L603.069,577.894 L593.069,567.894 L422.21,567.894 A0,0 0 0 0 422.21,567.894" style="stroke:#181818;stroke-width:0.5;" fill="#FEFFDD"/><path d="M593.069,567.894 L593.069,577.894 L603.069,577.894 L593.069,567.894" style="stroke:#181818;stroke-width:0.5;" fill="#FEFFDD"/><text x="428.21" y="585.462" fill="#000" font-size="13" textLength="39" font-weight="700" font-family="'IBM Plex Sans'">生成器</text><text x="467.21" y="585.462" fill="#000" font-size="13" textLength="120.859" font-family="'IBM Plex Sans'">——边算 key 边分配</text><rect x="144.947" y="555.238" width="257.263" height="50.621" fill="#FFFDF8" style="stroke:#C9B9A2;stroke-width:0.5;" rx="12.5" ry="12.5"/><text x="154.947" y="577.807" fill="#2B241B" font-size="13" textLength="121.082" font-family="'IBM Plex Sans'">for (start, end, key)</text><text x="154.947" y="593.117" fill="#2B241B" font-size="13" textLength="237.263" font-family="'IBM Plex Sans'">in token_database.process_tokens(...)</text><rect x="152.19" y="681.994" width="242.777" height="35.311" fill="#FFFDF8" style="stroke:#C9B9A2;stroke-width:0.5;" rx="12.5" ry="12.5"/><text x="162.19" y="704.563" fill="#2B241B" font-size="13" textLength="222.777" font-family="'IBM Plex Sans'">allocate(kv_shapes, kv_dtypes, fmt)</text><polygon points="205.963,737.305,341.193,737.305,353.193,749.305,341.193,761.305,205.963,761.305,193.963,749.305,205.963,737.305" fill="#FFF6E5" style="stroke:#C9B9A2;stroke-width:0.5;stroke-linejoin:miter;stroke-miterlimit:10;"/><text x="205.963" y="754.218" fill="#2B241B" font-size="13" textLength="135.23" font-family="'IBM Plex Sans'">memory_obj is None?</text><text x="182.963" y="746.984" fill="#000" font-size="11" font-family="'IBM Plex Sans'">是</text><text x="353.193" y="746.984" fill="#000" font-size="11" font-family="'IBM Plex Sans'">否</text><path d="M121.01,771.305 L121.01,795.271 L101.01,799.271 L121.01,803.271 L121.01,827.236 A0,0 0 0 0 121.01,827.236 L324.01,827.236 A0,0 0 0 0 324.01,827.236 L324.01,781.305 L314.01,771.305 L121.01,771.305 A0,0 0 0 0 121.01,771.305" style="stroke:#181818;stroke-width:0.5;" fill="#FEFFDD"/><path d="M314.01,771.305 L314.01,781.305 L324.01,781.305 L314.01,771.305" style="stroke:#181818;stroke-width:0.5;" fill="#FEFFDD"/><text x="127.01" y="788.873" fill="#000" font-size="13" textLength="78" font-weight="700" font-family="'IBM Plex Sans'">内存不足就停</text><text x="205.01" y="788.873" fill="#000" font-size="13" textLength="26" font-family="'IBM Plex Sans'">——</text><text x="127.01" y="804.184" fill="#000" font-size="13" textLength="104" font-weight="700" font-family="'IBM Plex Sans'">已分配的仍然会存</text><text x="127.01" y="819.494" fill="#000" font-size="13" textLength="182" font-family="'IBM Plex Sans'">（部分存储，不是全有或全无）</text><rect x="43" y="781.615" width="58.01" height="35.311" fill="#FFFDF8" style="stroke:#C9B9A2;stroke-width:0.5;" rx="12.5" ry="12.5"/><text x="53" y="804.184" fill="#2B241B" font-size="13" textLength="38.01" font-weight="700" font-family="'IBM Plex Sans'">break</text><rect x="344.01" y="771.305" width="262.284" height="35.311" fill="#FFFDF8" style="stroke:#C9B9A2;stroke-width:0.5;" rx="12.5" ry="12.5"/><text x="354.01" y="793.873" fill="#2B241B" font-size="13" textLength="242.284" font-family="'IBM Plex Sans'">累积到 starts/ends/keys/memory_objs</text><rect x="385.155" y="890.093" width="179.993" height="35.311" fill="#FFFDF8" style="stroke:#C9B9A2;stroke-width:0.5;" rx="12.5" ry="12.5"/><text x="395.155" y="912.661" fill="#2B241B" font-size="13" textLength="159.993" font-family="'IBM Plex Sans'">append(CacheStoreEvent)</text><polygon points="413.433,841.615,536.87,841.615,548.87,853.615,536.87,865.615,413.433,865.615,401.433,853.615,413.433,841.615" fill="#FFF6E5" style="stroke:#C9B9A2;stroke-width:0.5;stroke-linejoin:miter;stroke-miterlimit:10;"/><text x="479.152" y="876.25" fill="#000" font-size="11" font-family="'IBM Plex Sans'">是</text><text x="413.433" y="858.528" fill="#2B241B" font-size="13" textLength="123.437" font-family="'IBM Plex Sans'">kv_events_enabled?</text><text x="548.87" y="851.295" fill="#000" font-size="11" font-family="'IBM Plex Sans'">否</text><polygon points="475.152,945.403,487.152,957.403,475.152,969.403,463.152,957.403,475.152,945.403" fill="#FFF6E5" style="stroke:#C9B9A2;stroke-width:0.5;stroke-linejoin:miter;stroke-miterlimit:10;"/><polygon points="273.578,975.403,285.578,987.403,273.578,999.403,261.578,987.403,273.578,975.403" fill="#FFF6E5" style="stroke:#C9B9A2;stroke-width:0.5;stroke-linejoin:miter;stroke-miterlimit:10;"/><polygon points="236.549,625.859,310.607,625.859,322.607,637.859,310.607,649.859,236.549,649.859,224.549,637.859,236.549,625.859" fill="#FFF6E5" style="stroke:#C9B9A2;stroke-width:0.5;stroke-linejoin:miter;stroke-miterlimit:10;"/><text x="277.578" y="660.494" fill="#000" font-size="11" font-family="'IBM Plex Sans'">有</text><text x="236.549" y="642.772" fill="#2B241B" font-size="13" textLength="74.058" font-family="'IBM Plex Sans'">还有 chunk?</text><text x="213.549" y="635.539" fill="#000" font-size="11" font-family="'IBM Plex Sans'">无</text><path d="M339.611,1094.881 L339.611,1103.536 L319.611,1107.536 L339.611,1111.536 L339.611,1120.191 A0,0 0 0 0 339.611,1120.191 L503.611,1120.191 A0,0 0 0 0 503.611,1120.191 L503.611,1104.881 L493.611,1094.881 L339.611,1094.881 A0,0 0 0 0 339.611,1094.881" style="stroke:#181818;stroke-width:0.5;" fill="#FEFFDD"/><path d="M493.611,1094.881 L493.611,1104.881 L503.611,1104.881 L493.611,1094.881" style="stroke:#181818;stroke-width:0.5;" fill="#FEFFDD"/><text x="345.611" y="1112.449" fill="#000" font-size="13" textLength="143" font-family="'IBM Plex Sans'">一个都没分配，不必搬运</text><rect x="227.546" y="1089.881" width="92.065" height="35.311" fill="#FFFDF8" style="stroke:#C9B9A2;stroke-width:0.5;" rx="12.5" ry="12.5"/><text x="237.546" y="1112.449" fill="#2B241B" font-size="13" textLength="72.065" font-weight="700" font-family="'IBM Plex Sans'">直接 return</text><polygon points="213.349,1041.403,333.808,1041.403,345.808,1053.403,333.808,1065.403,213.349,1065.403,201.349,1053.403,213.349,1041.403" fill="#FFF6E5" style="stroke:#C9B9A2;stroke-width:0.5;stroke-linejoin:miter;stroke-miterlimit:10;"/><text x="277.578" y="1076.038" fill="#000" font-size="11" font-family="'IBM Plex Sans'">是</text><text x="213.349" y="1058.316" fill="#2B241B" font-size="13" textLength="120.459" font-family="'IBM Plex Sans'">memory_objs 为空?</text><text x="345.808" y="1051.083" fill="#000" font-size="11" font-family="'IBM Plex Sans'">否</text><polygon points="273.578,1145.191,285.578,1157.191,273.578,1169.191,261.578,1157.191,273.578,1145.191" fill="#FFF6E5" style="stroke:#C9B9A2;stroke-width:0.5;stroke-linejoin:miter;stroke-miterlimit:10;"/><path d="M426.063,1194.191 L426.063,1210.502 L406.063,1214.502 L426.063,1218.502 L426.063,1234.813 A0,0 0 0 0 426.063,1234.813 L610.75,1234.813 A0,0 0 0 0 610.75,1234.813 L610.75,1204.191 L600.75,1194.191 L426.063,1194.191 A0,0 0 0 0 426.063,1194.191" style="stroke:#181818;stroke-width:0.5;" fill="#FEFFDD"/><path d="M600.75,1194.191 L600.75,1204.191 L610.75,1204.191 L600.75,1194.191" style="stroke:#181818;stroke-width:0.5;" fill="#FEFFDD"/><text x="432.063" y="1211.76" fill="#000" font-size="13" textLength="52" font-weight="700" font-family="'IBM Plex Sans'">第二阶段</text><text x="484.063" y="1211.76" fill="#000" font-size="13" textLength="91" font-family="'IBM Plex Sans'">：一次批量搬运</text><text x="432.063" y="1227.07" fill="#000" font-size="13" textLength="163.687" font-family="'IBM Plex Sans'">（不是每个 chunk 搬一次）</text><rect x="141.094" y="1189.191" width="264.969" height="50.621" fill="#FFFDF8" style="stroke:#C9B9A2;stroke-width:0.5;" rx="12.5" ry="12.5"/><text x="151.094" y="1211.76" fill="#2B241B" font-size="13" textLength="219.997" font-family="'IBM Plex Sans'">gpu_connector.batched_from_gpu(</text><text x="159.32" y="1227.07" fill="#2B241B" font-size="13" textLength="236.742" font-family="'IBM Plex Sans'">memory_objs, starts, ends, **kwargs)</text><path d="M401.269,1264.813 L401.269,1281.123 L381.269,1285.123 L401.269,1289.123 L401.269,1305.434 A0,0 0 0 0 401.269,1305.434 L584.705,1305.434 A0,0 0 0 0 584.705,1305.434 L584.705,1274.813 L574.705,1264.813 L401.269,1264.813 A0,0 0 0 0 401.269,1264.813" style="stroke:#181818;stroke-width:0.5;" fill="#FEFFDD"/><path d="M574.705,1264.813 L574.705,1274.813 L584.705,1274.813 L574.705,1264.813" style="stroke:#181818;stroke-width:0.5;" fill="#FEFFDD"/><text x="407.269" y="1282.381" fill="#000" font-size="13" textLength="131.904" font-family="'IBM Plex Sans'">落存到 store_location</text><text x="407.269" y="1297.691" fill="#000" font-size="13" textLength="162.437" font-weight="700" font-family="'IBM Plex Sans'">ref_count_down 由它负责</text><rect x="165.888" y="1259.813" width="215.381" height="50.621" fill="#FFFDF8" style="stroke:#C9B9A2;stroke-width:0.5;" rx="12.5" ry="12.5"/><text x="175.888" y="1282.381" fill="#2B241B" font-size="13" textLength="195.381" font-family="'IBM Plex Sans'">storage_manager.batched_put(</text><text x="184.114" y="1297.691" fill="#2B241B" font-size="13" textLength="184.057" font-family="'IBM Plex Sans'">keys, memory_objs, location)</text><path d="M336.078,1320.434 L336.078,1344.399 L316.078,1348.399 L336.078,1352.399 L336.078,1376.365 A0,0 0 0 0 336.078,1376.365 L561.79,1376.365 A0,0 0 0 0 561.79,1376.365 L561.79,1330.434 L551.79,1320.434 L336.078,1320.434 A0,0 0 0 0 336.078,1320.434" style="stroke:#181818;stroke-width:0.5;" fill="#FEFFDD"/><path d="M551.79,1320.434 L551.79,1330.434 L561.79,1330.434 L551.79,1320.434" style="stroke:#181818;stroke-width:0.5;" fill="#FEFFDD"/><text x="342.078" y="1338.002" fill="#000" font-size="13" textLength="148.668" font-weight="700" font-family="'IBM Plex Sans'">Stored X out of total Y</text><text x="342.078" y="1353.313" fill="#000" font-size="13" textLength="204.712" font-family="'IBM Plex Sans'">——"部分存储"的账在这里也报一次</text><text x="342.078" y="1368.623" fill="#000" font-size="13" textLength="116.251" font-family="'IBM Plex Sans'">（X 是实际存下的）</text><rect x="231.078" y="1330.744" width="85" height="35.311" fill="#FFFDF8" style="stroke:#C9B9A2;stroke-width:0.5;" rx="12.5" ry="12.5"/><text x="241.078" y="1353.313" fill="#2B241B" font-size="13" textLength="65" font-family="'IBM Plex Sans'">统计与日志</text><ellipse cx="273.578" cy="1407.365" rx="11" ry="11" fill="none" style="stroke:#222;stroke-width:1;"/><ellipse cx="273.578" cy="1407.365" rx="6" ry="6" fill="#222" style="stroke:#222;stroke-width:1;"/><line x1="273.578" y1="72.488" x2="273.578" y2="92.488" style="stroke:#8A7A67;stroke-width:1;"/><polygon points="269.578,82.488,273.578,92.488,277.578,82.488,273.578,86.488" fill="#8A7A67" style="stroke:#8A7A67;stroke-width:1;stroke-linejoin:miter;stroke-miterlimit:10;"/><line x1="273.578" y1="187.109" x2="273.578" y2="211.587" style="stroke:#8A7A67;stroke-width:1;"/><polygon points="269.578,201.587,273.578,211.587,277.578,201.587,273.578,205.587" fill="#8A7A67" style="stroke:#8A7A67;stroke-width:1;stroke-linejoin:miter;stroke-miterlimit:10;"/><line x1="327.412" y1="175.109" x2="485.002" y2="175.109" style="stroke:#8A7A67;stroke-width:1;"/><polygon points="481.002,219.242,485.002,229.242,489.002,219.242,485.002,223.242" fill="#8A7A67" style="stroke:#8A7A67;stroke-width:1;stroke-linejoin:miter;stroke-miterlimit:10;"/><line x1="485.002" y1="175.109" x2="485.002" y2="278.897" style="stroke:#8A7A67;stroke-width:1;"/><line x1="485.002" y1="278.897" x2="285.578" y2="278.897" style="stroke:#8A7A67;stroke-width:1;"/><polygon points="295.578,274.897,285.578,278.897,295.578,282.897,291.578,278.897" fill="#8A7A67" style="stroke:#8A7A67;stroke-width:1;stroke-linejoin:miter;stroke-miterlimit:10;"/><line x1="273.578" y1="246.897" x2="273.578" y2="266.897" style="stroke:#8A7A67;stroke-width:1;"/><polygon points="269.578,256.897,273.578,266.897,277.578,256.897,273.578,260.897" fill="#8A7A67" style="stroke:#8A7A67;stroke-width:1;stroke-linejoin:miter;stroke-miterlimit:10;"/><line x1="273.578" y1="143.109" x2="273.578" y2="163.109" style="stroke:#8A7A67;stroke-width:1;"/><polygon points="269.578,153.109,273.578,163.109,277.578,153.109,273.578,157.109" fill="#8A7A67" style="stroke:#8A7A67;stroke-width:1;stroke-linejoin:miter;stroke-miterlimit:10;"/><line x1="273.578" y1="290.897" x2="273.578" y2="326.519" style="stroke:#8A7A67;stroke-width:1;"/><polygon points="269.578,316.519,273.578,326.519,277.578,316.519,273.578,320.519" fill="#8A7A67" style="stroke:#8A7A67;stroke-width:1;stroke-linejoin:miter;stroke-miterlimit:10;"/><line x1="273.578" y1="431.45" x2="273.578" y2="455.928" style="stroke:#8A7A67;stroke-width:1;"/><polygon points="269.578,445.928,273.578,455.928,277.578,445.928,273.578,449.928" fill="#8A7A67" style="stroke:#8A7A67;stroke-width:1;stroke-linejoin:miter;stroke-miterlimit:10;"/><line x1="321.414" y1="419.45" x2="487.611" y2="419.45" style="stroke:#8A7A67;stroke-width:1;"/><polygon points="483.611,463.583,487.611,473.583,491.611,463.583,487.611,467.583" fill="#8A7A67" style="stroke:#8A7A67;stroke-width:1;stroke-linejoin:miter;stroke-miterlimit:10;"/><line x1="487.611" y1="419.45" x2="487.611" y2="523.238" style="stroke:#8A7A67;stroke-width:1;"/><line x1="487.611" y1="523.238" x2="285.578" y2="523.238" style="stroke:#8A7A67;stroke-width:1;"/><polygon points="295.578,519.238,285.578,523.238,295.578,527.238,291.578,523.238" fill="#8A7A67" style="stroke:#8A7A67;stroke-width:1;stroke-linejoin:miter;stroke-miterlimit:10;"/><line x1="273.578" y1="491.238" x2="273.578" y2="511.238" style="stroke:#8A7A67;stroke-width:1;"/><polygon points="269.578,501.238,273.578,511.238,277.578,501.238,273.578,505.238" fill="#8A7A67" style="stroke:#8A7A67;stroke-width:1;stroke-linejoin:miter;stroke-miterlimit:10;"/><line x1="273.578" y1="361.829" x2="273.578" y2="407.45" style="stroke:#8A7A67;stroke-width:1;"/><polygon points="269.578,397.45,273.578,407.45,277.578,397.45,273.578,401.45" fill="#8A7A67" style="stroke:#8A7A67;stroke-width:1;stroke-linejoin:miter;stroke-miterlimit:10;"/><line x1="273.578" y1="535.238" x2="273.578" y2="555.238" style="stroke:#8A7A67;stroke-width:1;"/><polygon points="269.578,545.238,273.578,555.238,277.578,545.238,273.578,549.238" fill="#8A7A67" style="stroke:#8A7A67;stroke-width:1;stroke-linejoin:miter;stroke-miterlimit:10;"/><line x1="475.152" y1="865.615" x2="475.152" y2="890.093" style="stroke:#8A7A67;stroke-width:1;"/><polygon points="471.152,880.093,475.152,890.093,479.152,880.093,475.152,884.093" fill="#8A7A67" style="stroke:#8A7A67;stroke-width:1;stroke-linejoin:miter;stroke-miterlimit:10;"/><line x1="548.87" y1="853.615" x2="575.148" y2="853.615" style="stroke:#8A7A67;stroke-width:1;"/><polygon points="571.148,897.748,575.148,907.748,579.148,897.748,575.148,901.748" fill="#8A7A67" style="stroke:#8A7A67;stroke-width:1;stroke-linejoin:miter;stroke-miterlimit:10;"/><line x1="575.148" y1="853.615" x2="575.148" y2="957.403" style="stroke:#8A7A67;stroke-width:1;"/><line x1="575.148" y1="957.403" x2="487.152" y2="957.403" style="stroke:#8A7A67;stroke-width:1;"/><polygon points="497.152,953.403,487.152,957.403,497.152,961.403,493.152,957.403" fill="#8A7A67" style="stroke:#8A7A67;stroke-width:1;stroke-linejoin:miter;stroke-miterlimit:10;"/><line x1="475.152" y1="925.403" x2="475.152" y2="945.403" style="stroke:#8A7A67;stroke-width:1;"/><polygon points="471.152,935.403,475.152,945.403,479.152,935.403,475.152,939.403" fill="#8A7A67" style="stroke:#8A7A67;stroke-width:1;stroke-linejoin:miter;stroke-miterlimit:10;"/><line x1="475.152" y1="806.615" x2="475.152" y2="841.615" style="stroke:#8A7A67;stroke-width:1;"/><polygon points="471.152,831.615,475.152,841.615,479.152,831.615,475.152,835.615" fill="#8A7A67" style="stroke:#8A7A67;stroke-width:1;stroke-linejoin:miter;stroke-miterlimit:10;"/><line x1="193.963" y1="749.305" x2="72.005" y2="749.305" style="stroke:#8A7A67;stroke-width:1;"/><line x1="72.005" y1="749.305" x2="72.005" y2="781.615" style="stroke:#8A7A67;stroke-width:1;"/><polygon points="68.005,771.615,72.005,781.615,76.005,771.615,72.005,775.615" fill="#8A7A67" style="stroke:#8A7A67;stroke-width:1;stroke-linejoin:miter;stroke-miterlimit:10;"/><line x1="353.193" y1="749.305" x2="475.152" y2="749.305" style="stroke:#8A7A67;stroke-width:1;"/><line x1="475.152" y1="749.305" x2="475.152" y2="771.305" style="stroke:#8A7A67;stroke-width:1;"/><polygon points="471.152,761.305,475.152,771.305,479.152,761.305,475.152,765.305" fill="#8A7A67" style="stroke:#8A7A67;stroke-width:1;stroke-linejoin:miter;stroke-miterlimit:10;"/><line x1="72.005" y1="816.926" x2="72.005" y2="987.403" style="stroke:#8A7A67;stroke-width:1;"/><line x1="72.005" y1="987.403" x2="261.578" y2="987.403" style="stroke:#8A7A67;stroke-width:1;"/><polygon points="251.578,983.403,261.578,987.403,251.578,991.403,255.578,987.403" fill="#8A7A67" style="stroke:#8A7A67;stroke-width:1;stroke-linejoin:miter;stroke-miterlimit:10;"/><line x1="475.152" y1="969.403" x2="475.152" y2="987.403" style="stroke:#8A7A67;stroke-width:1;"/><line x1="475.152" y1="987.403" x2="285.578" y2="987.403" style="stroke:#8A7A67;stroke-width:1;"/><polygon points="295.578,983.403,285.578,987.403,295.578,991.403,291.578,987.403" fill="#8A7A67" style="stroke:#8A7A67;stroke-width:1;stroke-linejoin:miter;stroke-miterlimit:10;"/><line x1="273.578" y1="717.305" x2="273.578" y2="737.305" style="stroke:#8A7A67;stroke-width:1;"/><polygon points="269.578,727.305,273.578,737.305,277.578,727.305,273.578,731.305" fill="#8A7A67" style="stroke:#8A7A67;stroke-width:1;stroke-linejoin:miter;stroke-miterlimit:10;"/><line x1="273.578" y1="649.859" x2="273.578" y2="681.994" style="stroke:#8A7A67;stroke-width:1;"/><polygon points="269.578,671.994,273.578,681.994,277.578,671.994,273.578,675.994" fill="#8A7A67" style="stroke:#8A7A67;stroke-width:1;stroke-linejoin:miter;stroke-miterlimit:10;"/><line x1="273.578" y1="999.403" x2="273.578" y2="1009.403" style="stroke:#8A7A67;stroke-width:1;"/><line x1="273.578" y1="1009.403" x2="628.293" y2="1009.403" style="stroke:#8A7A67;stroke-width:1;"/><polygon points="624.293,826.96,628.293,816.96,632.293,826.96,628.293,822.96" fill="#8A7A67" style="stroke:#8A7A67;stroke-width:1;stroke-linejoin:miter;stroke-miterlimit:10;"/><line x1="628.293" y1="637.859" x2="628.293" y2="1009.403" style="stroke:#8A7A67;stroke-width:1;"/><line x1="628.293" y1="637.859" x2="322.607" y2="637.859" style="stroke:#8A7A67;stroke-width:1;"/><polygon points="332.607,633.859,322.607,637.859,332.607,641.859,328.607,637.859" fill="#8A7A67" style="stroke:#8A7A67;stroke-width:1;stroke-linejoin:miter;stroke-miterlimit:10;"/><line x1="224.549" y1="637.859" x2="29" y2="637.859" style="stroke:#8A7A67;stroke-width:1;"/><polygon points="25,812.96,29,822.96,33,812.96,29,816.96" fill="#8A7A67" style="stroke:#8A7A67;stroke-width:1;stroke-linejoin:miter;stroke-miterlimit:10;"/><line x1="29" y1="637.859" x2="29" y2="1021.403" style="stroke:#8A7A67;stroke-width:1;"/><line x1="29" y1="1021.403" x2="273.578" y2="1021.403" style="stroke:#8A7A67;stroke-width:1;"/><line x1="273.578" y1="1021.403" x2="273.578" y2="1041.403" style="stroke:#8A7A67;stroke-width:1;"/><polygon points="269.578,1031.403,273.578,1041.403,277.578,1031.403,273.578,1035.403" fill="#8A7A67" style="stroke:#8A7A67;stroke-width:1;stroke-linejoin:miter;stroke-miterlimit:10;"/><line x1="273.578" y1="605.859" x2="273.578" y2="625.859" style="stroke:#8A7A67;stroke-width:1;"/><polygon points="269.578,615.859,273.578,625.859,277.578,615.859,273.578,619.859" fill="#8A7A67" style="stroke:#8A7A67;stroke-width:1;stroke-linejoin:miter;stroke-miterlimit:10;"/><line x1="273.578" y1="1065.403" x2="273.578" y2="1089.881" style="stroke:#8A7A67;stroke-width:1;"/><polygon points="269.578,1079.881,273.578,1089.881,277.578,1079.881,273.578,1083.881" fill="#8A7A67" style="stroke:#8A7A67;stroke-width:1;stroke-linejoin:miter;stroke-miterlimit:10;"/><line x1="345.808" y1="1053.403" x2="513.611" y2="1053.403" style="stroke:#8A7A67;stroke-width:1;"/><polygon points="509.611,1097.536,513.611,1107.536,517.611,1097.536,513.611,1101.536" fill="#8A7A67" style="stroke:#8A7A67;stroke-width:1;stroke-linejoin:miter;stroke-miterlimit:10;"/><line x1="513.611" y1="1053.403" x2="513.611" y2="1157.191" style="stroke:#8A7A67;stroke-width:1;"/><line x1="513.611" y1="1157.191" x2="285.578" y2="1157.191" style="stroke:#8A7A67;stroke-width:1;"/><polygon points="295.578,1153.191,285.578,1157.191,295.578,1161.191,291.578,1157.191" fill="#8A7A67" style="stroke:#8A7A67;stroke-width:1;stroke-linejoin:miter;stroke-miterlimit:10;"/><line x1="273.578" y1="1125.191" x2="273.578" y2="1145.191" style="stroke:#8A7A67;stroke-width:1;"/><polygon points="269.578,1135.191,273.578,1145.191,277.578,1135.191,273.578,1139.191" fill="#8A7A67" style="stroke:#8A7A67;stroke-width:1;stroke-linejoin:miter;stroke-miterlimit:10;"/><line x1="273.578" y1="1169.191" x2="273.578" y2="1189.191" style="stroke:#8A7A67;stroke-width:1;"/><polygon points="269.578,1179.191,273.578,1189.191,277.578,1179.191,273.578,1183.191" fill="#8A7A67" style="stroke:#8A7A67;stroke-width:1;stroke-linejoin:miter;stroke-miterlimit:10;"/><line x1="273.578" y1="1239.813" x2="273.578" y2="1259.813" style="stroke:#8A7A67;stroke-width:1;"/><polygon points="269.578,1249.813,273.578,1259.813,277.578,1249.813,273.578,1253.813" fill="#8A7A67" style="stroke:#8A7A67;stroke-width:1;stroke-linejoin:miter;stroke-miterlimit:10;"/><line x1="273.578" y1="1310.434" x2="273.578" y2="1330.744" style="stroke:#8A7A67;stroke-width:1;"/><polygon points="269.578,1320.744,273.578,1330.744,277.578,1320.744,273.578,1324.744" fill="#8A7A67" style="stroke:#8A7A67;stroke-width:1;stroke-linejoin:miter;stroke-miterlimit:10;"/><line x1="273.578" y1="1366.055" x2="273.578" y2="1396.365" style="stroke:#8A7A67;stroke-width:1;"/><polygon points="269.578,1386.365,273.578,1396.365,277.578,1386.365,273.578,1390.365" fill="#8A7A67" style="stroke:#8A7A67;stroke-width:1;stroke-linejoin:miter;stroke-miterlimit:10;"/><?plantuml-src dLLRJnj757xVNp6YB-iLCeMakRWF4H2GAZLH9LxIfzNO7jjRhsUidJ6KH9MWWC44WbjG39I4qjIfsn98Kih5cFY_HDwBd_WBFRDhiBdqeKN8tZrdviptVUSxOvusQ1PRE8Du2iVPc46JA85DJXH-decJ1CwPOfXHyH1d2EhwOk01-ieatw8HJ7bNnyeeZgMJ5ilH-20pcOK-6HuUlZzyfsC5PN72IHRrtkm8MfYcPV36fnr1R5bih5NcJl_j_bktEvCnOOmQOXmzKH0Q-9TJ8SEiEB5QqS6x0tVx-o0gYRHYVGDzDti7Mh4Hup51lJVWxRw1Cup6hojyQ-YpZWNNrFzEKOGXJ8A-V328OoaoH9C69M4kc4NK47BNf-rVfzrYlZbnx7tuGL6um9PG8WRNKmIR8ZMkXkufcjOuNBGdotRr07tC_uZSd_QSPsLa4P6pgAPzhb0c2BACP4e06dTxkt4uqPnSRfOEJslhcXRiT5vDE9jbJOCLzaO5OSw99L3ZwAbTMFmuiGB_vuSufNsl_j9v_iQhJ3IdJlpuka9e7Cc35CL885K7Y5aeOem2ZtiX95A48jLPtGt10H5Dku8HeJRA2F9--TEUh_YzHh9-VisjBTjlLXK2RaEgNNmTaWSQ2KM9k3ibUxQAQ2wZ2wRxqi53cb1-YRdKgU2ys79Ub9rgKTE0FKGpcATzsM1ZB1NckOmgGn9dKCLFceIgmQjCf31FaI0XrxD4WXFXPpIjbVCETkqFqrvzjL5RT-Rd4JUPq3CucvL3uvriEtD59A0Siq3pYzg1T0cBFOOJ_uToihtLXVFsslbZztZPgMpPjQNhn4k06LNVLTq8OjqeJSP3Ya43xdeS2np5d8Ip5eiHpbl2gk5mE7H5NNTb4rZPQnLD2npZVJY2viYI21xjkNnpPh63wrZA0EUhe96pKK2nL8wcWQ_1WUr6mMUBJPF5i21gUbI7AoTBE00SrUDYt7zCP4H8yfUYPKY6MUCwYtuZApnab5pMpbSlQX6S3bJhrCr_bHpi_0pO32pdxVzbltrdJswSaMalENWVK87fR1mlkjFxq6BOvC-E_3kjpJMdAh06WlRtbTFQ0jG34FPC1OWvSy_bG-ddqrh1tt0k23os6-JZTVTstTzsxRcto6yHxu6rl0Vqv3rjlZmW8qK0RSWeeOBhXEAeIU9NDP2gPhDGH_Kld14vBaDoJoWeSmb2u9EpR_XiDGtmXmAtTW21KQswlrV_ksdXGceS_W5tYVD-Az0s4CskppZ5RQzUlCwwoMnEZp5AIGmuXADO09sud9oC3YbLZdORMdTBGT_byAbfwJ5i9VarBWu6Q7NVsVdRloC0dBEzvHIEchDBBJH-ZuEcEhjB03rmBu9qi5hsjctqYBoKS9B0_5FuQeFDveJ4AHlQVH6jxtk3qSlulEA9T9Nl27dHdQtpeLia0OhagD3XnvaYT-MTlJFbxMrwUwykN38HztZJszbg73vpIcMxNhgYWU-AE7g4M4uWbe3BG60JVUqxF9Y6haw7Ty4aU7kluNV3gwyrPnSQHvlEV3bG8j3g4PB-ttdPN0l6wodikA0HiCd-0m00?></g></svg>