<svg xmlns="http://www.w3.org/2000/svg" xmlns:xlink="http://www.w3.org/1999/xlink" version="1.1" data-diagram-type="CLASS" style="width:938px;height:189px;background:#FFFDF8;" width="938px" height="189px" viewBox="0 0 938 189" zoomAndPan="magnify" preserveAspectRatio="none" contentStyleType="text/css"><?plantuml 1.2026.8?><defs/><g font-family="sans-serif" lengthAdjust="spacing"><rect x="0" y="0" width="938" height="189" fill="#FFFDF8" style="stroke:none;"/><!--class SBI--><g class="entity" data-qualified-name="SBI" id="ent0001" data-source-line="15"><rect x="376.82" y="7" width="223.135" height="97.465" fill="#FFFDF8" style="stroke:#C9B9A2;stroke-width:0.5;" rx="2.5" ry="2.5"/><ellipse cx="407.991" cy="23" rx="11" ry="11" fill="#B4A7E5" style="stroke:#181818;stroke-width:1;"/><path d="M404.418,19.265 L404.418,17.107 L411.798,17.107 L411.798,19.265 L409.332,19.265 L409.332,27.342 L411.798,27.342 L411.798,29.5 L404.418,29.5 L404.418,27.342 L406.884,27.342 L406.884,19.265 Z " fill="#000"/><text x="425.584" y="27.913" fill="#2B241B" font-size="13" textLength="155.2" font-style="italic" font-family="'IBM Plex Sans'">StorageBackendInterface</text><line x1="377.82" y1="39" x2="598.955" y2="39" style="stroke:#C9B9A2;stroke-width:0.5;"/><text x="382.82" y="56.535" fill="#000" font-size="14" textLength="211.135" font-family="'IBM Plex Sans'">Init / BatchOffload / BatchLoad</text><text x="382.82" y="73.023" fill="#000" font-size="14" textLength="187.626" font-family="'IBM Plex Sans'">IsExist / IsEnableOffloading</text><line x1="377.82" y1="79.977" x2="598.955" y2="79.977" style="stroke:#C9B9A2;stroke-width:0.5;"/><text x="382.82" y="97.512" fill="#000" font-size="14" textLength="124.558" font-family="'IBM Plex Sans'">ScanMeta(handler)</text></g><!--class SBA--><g class="entity" data-qualified-name="SBA" id="ent0002" data-source-line="20"><rect x="7" y="126.46" width="182.782" height="48" fill="#FFFDF8" style="stroke:#C9B9A2;stroke-width:0.5;" rx="2.5" ry="2.5"/><ellipse cx="22" cy="142.46" rx="11" ry="11" fill="#ADD1B2" style="stroke:#181818;stroke-width:1;"/><path d="M24.473,148.603 Q23.892,148.902 23.253,149.051 Q22.614,149.201 21.908,149.201 Q19.401,149.201 18.082,147.549 Q16.762,145.897 16.762,142.776 Q16.762,139.647 18.082,137.995 Q19.401,136.343 21.908,136.343 Q22.614,136.343 23.261,136.492 Q23.909,136.642 24.473,136.94 L24.473,139.663 Q23.842,139.082 23.249,138.812 Q22.655,138.543 22.024,138.543 Q20.68,138.543 19.995,139.609 Q19.31,140.676 19.31,142.776 Q19.31,144.868 19.995,145.934 Q20.68,147.001 22.024,147.001 Q22.655,147.001 23.249,146.731 Q23.842,146.461 24.473,145.88 Z " fill="#000"/><text x="36" y="147.373" fill="#2B241B" font-size="13" textLength="150.782" font-family="'IBM Plex Sans'">StorageBackendAdaptor</text><line x1="8" y1="158.46" x2="188.782" y2="158.46" style="stroke:#C9B9A2;stroke-width:0.5;"/><line x1="8" y1="166.46" x2="188.782" y2="166.46" style="stroke:#C9B9A2;stroke-width:0.5;"/></g><!--class BSB--><g class="entity" data-qualified-name="BSB" id="ent0003" data-source-line="21"><rect x="201.39" y="126.46" width="174.01" height="48" fill="#FFFDF8" style="stroke:#C9B9A2;stroke-width:0.5;" rx="2.5" ry="2.5"/><ellipse cx="216.39" cy="142.46" rx="11" ry="11" fill="#ADD1B2" style="stroke:#181818;stroke-width:1;"/><path d="M218.863,148.603 Q218.282,148.902 217.643,149.051 Q217.004,149.201 216.298,149.201 Q213.791,149.201 212.472,147.549 Q211.152,145.897 211.152,142.776 Q211.152,139.647 212.472,137.995 Q213.791,136.343 216.298,136.343 Q217.004,136.343 217.651,136.492 Q218.299,136.642 218.863,136.94 L218.863,139.663 Q218.232,139.082 217.639,138.812 Q217.045,138.543 216.414,138.543 Q215.07,138.543 214.385,139.609 Q213.7,140.676 213.7,142.776 Q213.7,144.868 214.385,145.934 Q215.07,147.001 216.414,147.001 Q217.045,147.001 217.639,146.731 Q218.232,146.461 218.863,145.88 Z " fill="#000"/><text x="230.39" y="147.373" fill="#2B241B" font-size="13" textLength="142.01" font-family="'IBM Plex Sans'">BucketStorageBackend</text><line x1="202.39" y1="158.46" x2="374.4" y2="158.46" style="stroke:#C9B9A2;stroke-width:0.5;"/><line x1="202.39" y1="166.46" x2="374.4" y2="166.46" style="stroke:#C9B9A2;stroke-width:0.5;"/></g><!--class DSB--><g class="entity" data-qualified-name="DSB" id="ent0004" data-source-line="22"><rect x="387.04" y="126.46" width="202.701" height="48" fill="#FFFDF8" style="stroke:#C9B9A2;stroke-width:0.5;" rx="2.5" ry="2.5"/><ellipse cx="402.04" cy="142.46" rx="11" ry="11" fill="#ADD1B2" style="stroke:#181818;stroke-width:1;"/><path d="M404.513,148.603 Q403.932,148.902 403.293,149.051 Q402.654,149.201 401.948,149.201 Q399.441,149.201 398.122,147.549 Q396.802,145.897 396.802,142.776 Q396.802,139.647 398.122,137.995 Q399.441,136.343 401.948,136.343 Q402.654,136.343 403.301,136.492 Q403.949,136.642 404.513,136.94 L404.513,139.663 Q403.882,139.082 403.289,138.812 Q402.695,138.543 402.064,138.543 Q400.72,138.543 400.035,139.609 Q399.35,140.676 399.35,142.776 Q399.35,144.868 400.035,145.934 Q400.72,147.001 402.064,147.001 Q402.695,147.001 403.289,146.731 Q403.882,146.461 404.513,145.88 Z " fill="#000"/><text x="416.04" y="147.373" fill="#2B241B" font-size="13" textLength="170.701" font-family="'IBM Plex Sans'">DistributedStorageBackend</text><line x1="388.04" y1="158.46" x2="588.741" y2="158.46" style="stroke:#C9B9A2;stroke-width:0.5;"/><line x1="388.04" y1="166.46" x2="588.741" y2="166.46" style="stroke:#C9B9A2;stroke-width:0.5;"/></g><!--class MORE--><g class="entity" data-qualified-name="MORE" id="ent0005" data-source-line="23"><rect x="601.67" y="126.46" width="113.447" height="48" fill="#FFFDF8" style="stroke:#C9B9A2;stroke-width:0.5;" rx="2.5" ry="2.5"/><ellipse cx="616.67" cy="142.46" rx="11" ry="11" fill="#ADD1B2" style="stroke:#181818;stroke-width:1;"/><path d="M619.143,148.603 Q618.562,148.902 617.923,149.051 Q617.284,149.201 616.578,149.201 Q614.071,149.201 612.752,147.549 Q611.432,145.897 611.432,142.776 Q611.432,139.647 612.752,137.995 Q614.071,136.343 616.578,136.343 Q617.284,136.343 617.931,136.492 Q618.579,136.642 619.143,136.94 L619.143,139.663 Q618.512,139.082 617.919,138.812 Q617.325,138.543 616.694,138.543 Q615.35,138.543 614.665,139.609 Q613.98,140.676 613.98,142.776 Q613.98,144.868 614.665,145.934 Q615.35,147.001 616.694,147.001 Q617.325,147.001 617.919,146.731 Q618.512,146.461 619.143,145.88 Z " fill="#000"/><text x="630.67" y="147.373" fill="#2B241B" font-size="13" textLength="81.447" font-family="'IBM Plex Sans'">…另 3 个实现</text><line x1="602.67" y1="158.46" x2="714.117" y2="158.46" style="stroke:#C9B9A2;stroke-width:0.5;"/><line x1="602.67" y1="166.46" x2="714.117" y2="166.46" style="stroke:#C9B9A2;stroke-width:0.5;"/></g><g class="entity" data-qualified-name="GMN10" id="ent0011" data-source-line="31"><path d="M727.42,130.15 L727.42,170.771 A0,0 0 0 0 727.42,170.771 L923.361,170.771 A0,0 0 0 0 923.361,170.771 L923.361,140.15 L913.361,130.15 L757.64,130.15 L600.14,87.48 L749.64,130.15 L727.42,130.15 A0,0 0 0 0 727.42,130.15" style="stroke:#181818;stroke-width:0.5;" fill="#FEFFDD"/><path d="M913.361,130.15 L913.361,140.15 L923.361,140.15 L913.361,130.15" style="stroke:#181818;stroke-width:0.5;" fill="#FEFFDD"/><text x="733.42" y="147.718" fill="#000" font-size="13" textLength="116.333" font-family="'IBM Plex Sans'">6 个纯虚，全部返回</text><text x="733.42" y="163.029" fill="#000" font-size="13" textLength="174.941" font-family="'IBM Plex Sans'">tl::expected&lt;T, ErrorCode></text></g><!--reverse link SBI to SBA--><g class="link" data-entity-1="ent0001" data-entity-2="ent0002" id="lnk6" data-source-line="25" data-link-type="extension"><path d="M358.858,87.524 C299.778,101.574 245.73,114.43 190,127.68" style="stroke:#8A7A67;stroke-width:1;stroke-dasharray:7,7;" fill="none" id="SBI-backto-SBA" codeLine="25"/><polygon points="376.37,83.36,357.47,81.687,360.247,93.362,376.37,83.36" fill="none" style="stroke:#8A7A67;stroke-width:1;stroke-linejoin:miter;stroke-miterlimit:10;"/></g><!--reverse link SBI to BSB--><g class="link" data-entity-1="ent0001" data-entity-2="ent0003" id="lnk7" data-source-line="26" data-link-type="extension"><path d="M368.249,112.429 C352.369,119.789 352.94,119.53 338.92,126.03" style="stroke:#8A7A67;stroke-width:1;stroke-dasharray:7,7;" fill="none" id="SBI-backto-BSB" codeLine="26"/><polygon points="384.58,104.86,365.726,106.985,370.772,117.873,384.58,104.86" fill="none" style="stroke:#8A7A67;stroke-width:1;stroke-linejoin:miter;stroke-miterlimit:10;"/></g><!--reverse link SBI to DSB--><g class="link" data-entity-1="ent0001" data-entity-2="ent0004" id="lnk8" data-source-line="27" data-link-type="extension"><path d="M488.39,122.72 C488.39,130.15 488.39,119.52 488.39,126.07" style="stroke:#8A7A67;stroke-width:1;stroke-dasharray:7,7;" fill="none" id="SBI-backto-DSB" codeLine="27"/><polygon points="488.39,104.72,482.39,122.72,494.39,122.72,488.39,104.72" fill="none" style="stroke:#8A7A67;stroke-width:1;stroke-linejoin:miter;stroke-miterlimit:10;"/></g><!--reverse link SBI to MORE--><g class="link" data-entity-1="ent0001" data-entity-2="ent0005" id="lnk9" data-source-line="28" data-link-type="extension"><path d="M592.179,113.345 C605.789,120.775 603.5,119.52 615.51,126.07" style="stroke:#8A7A67;stroke-width:1;stroke-dasharray:7,7;" fill="none" id="SBI-backto-MORE" codeLine="28"/><polygon points="576.38,104.72,589.304,118.611,595.054,108.079,576.38,104.72" fill="none" style="stroke:#8A7A67;stroke-width:1;stroke-linejoin:miter;stroke-miterlimit:10;"/></g><?plantuml-src TP7FQXH14CRlynJ5vg8WYJkH_2C8qzaT672DEBv0xNJDxh2ptKjtBrdy0uBa9dh99GevXk11FOOW-2xYadZo5QoUdLr7qLlNLx_kxwjgEohK10sE8IlHsiWvK_IdZf9CgxHuId0ti2l43b7geq8D8CVIKgCZASTfwMAjt4CS4xGIqOD79SqWHMLR3RAFsMXWz5J90rrg0sjn77VYdGQXj2HB4sY73T6W6danR8fLP7WM08Z_lCeTRIIPMZtO5RjHo6faZ3wgnPreEzhQPj6dhxLGXFVQejQgFRGtWnT1K2X79iUC9qoTDZWWxqnA9ij62z12Af8gLg8A1nkSpcN3mpmlDSfb-O3Fdh3TMM4zn2U5_P9gZhVCxJH3rIE7juQeP4dcDeTOJFsNVoHnmaBj7YqXCUMk-nEj696A9TDX_yMdot-0dT_WjvVdyxVdi0dVBp_CFvvTl_bS4Rt3nzqWy2FlFrzVhznNXRTP5PrciRYbj2FeQ-Vq67JkzyP3Rtc3wwjFDwVlVdvvFJ---F7gukRhoVpz6JTTkRT7imbb77V_oHteya_ozqgw7t1ay0_-0W00?></g></svg>