<svg xmlns="http://www.w3.org/2000/svg" xmlns:xlink="http://www.w3.org/1999/xlink" version="1.1" data-diagram-type="STATE" style="width:873px;height:397px;background:#FFFDF8;" width="873px" height="397px" viewBox="0 0 873 397" zoomAndPan="magnify" preserveAspectRatio="none" contentStyleType="text/css"><?plantuml 1.2026.8?><defs/><g font-family="sans-serif" lengthAdjust="spacing"><rect x="0" y="0" width="873" height="397" fill="#FFFDF8" style="stroke:none;"/><g class="start_entity" data-qualified-name=".start." id="ent0001" data-source-line="12"><ellipse cx="596.07" cy="16" rx="10" ry="10" fill="#222" style="stroke:#222;stroke-width:1;"/></g><g class="entity" data-qualified-name="PENDING" id="ent0002" data-source-line="12"><rect x="557.92" y="87" width="76.316" height="50" fill="#FFFDF8" style="stroke:#C9B9A2;stroke-width:0.5;" rx="12.5" ry="12.5"/><line x1="557.92" y1="112.311" x2="634.236" y2="112.311" style="stroke:#C9B9A2;stroke-width:0.5;"/><text x="567.92" y="104.568" fill="#2B241B" font-size="13" textLength="56.316" font-family="'IBM Plex Sans'">PENDING</text></g><g class="entity" data-qualified-name="MASTER_FAILED" id="ent0004" data-source-line="14"><rect x="461.8" y="232.27" width="120.553" height="50" fill="#FFFDF8" style="stroke:#C9B9A2;stroke-width:0.5;" rx="12.5" ry="12.5"/><line x1="461.8" y1="257.581" x2="582.353" y2="257.581" style="stroke:#C9B9A2;stroke-width:0.5;"/><text x="471.8" y="249.838" fill="#2B241B" font-size="13" textLength="100.553" font-family="'IBM Plex Sans'">MASTER_FAILED</text></g><g class="entity" data-qualified-name="TRANSFER_FAILED" id="ent0006" data-source-line="15"><rect x="7" y="232.27" width="134.15" height="50" fill="#FFFDF8" style="stroke:#C9B9A2;stroke-width:0.5;" rx="12.5" ry="12.5"/><line x1="7" y1="257.581" x2="141.15" y2="257.581" style="stroke:#C9B9A2;stroke-width:0.5;"/><text x="17" y="249.838" fill="#2B241B" font-size="13" textLength="114.15" font-family="'IBM Plex Sans'">TRANSFER_FAILED</text></g><g class="entity" data-qualified-name="FINALIZE_FAILED" id="ent0008" data-source-line="16"><rect x="617.69" y="232.27" width="124.768" height="50" fill="#FFFDF8" style="stroke:#C9B9A2;stroke-width:0.5;" rx="12.5" ry="12.5"/><line x1="617.69" y1="257.581" x2="742.458" y2="257.581" style="stroke:#C9B9A2;stroke-width:0.5;"/><text x="627.69" y="249.838" fill="#2B241B" font-size="13" textLength="104.768" font-family="'IBM Plex Sans'">FINALIZE_FAILED</text></g><g class="entity" data-qualified-name="SUCCESS" id="ent0010" data-source-line="17"><rect x="782.55" y="232.27" width="75.047" height="50" fill="#FFFDF8" style="stroke:#C9B9A2;stroke-width:0.5;" rx="12.5" ry="12.5"/><line x1="782.55" y1="257.581" x2="857.597" y2="257.581" style="stroke:#C9B9A2;stroke-width:0.5;"/><text x="792.55" y="249.838" fill="#2B241B" font-size="13" textLength="55.047" font-family="'IBM Plex Sans'">SUCCESS</text></g><g class="end_entity" data-qualified-name=".end." id="ent0012" data-source-line="19"><ellipse cx="571.07" cy="372.55" rx="11" ry="11" fill="none" style="stroke:#222;stroke-width:1;"/><ellipse cx="571.07" cy="372.55" rx="6" ry="6" fill="#222" style="stroke:#222;stroke-width:1;"/></g><g class="entity" data-qualified-name="GMN17" id="ent0018" data-source-line="25"><path d="M175.82,214 L175.82,253.27 L141.47,257.27 L175.82,261.27 L175.82,300.553 A0,0 0 0 0 175.82,300.553 L426.332,300.553 A0,0 0 0 0 426.332,300.553 L426.332,224 L416.332,214 L175.82,214 A0,0 0 0 0 175.82,214" style="stroke:#181818;stroke-width:0.5;" fill="#FEFFDD"/><path d="M416.332,214 L416.332,224 L426.332,224 L416.332,214" style="stroke:#181818;stroke-width:0.5;" fill="#FEFFDD"/><text x="181.82" y="231.568" fill="#000" font-size="13" textLength="91" font-weight="700" font-family="'IBM Plex Sans'">失败按阶段命名</text><text x="272.82" y="231.568" fill="#000" font-size="13" textLength="138.512" font-family="'IBM Plex Sans'">，不是笼统的 FAILED。</text><text x="181.82" y="246.879" fill="#000" font-size="13" textLength="156" font-family="'IBM Plex Sans'">三种失败的重试策略不同：</text><text x="181.82" y="262.189" fill="#000" font-size="13" textLength="143" font-family="'IBM Plex Sans'">控制面可只重试元数据，</text><text x="181.82" y="277.5" fill="#000" font-size="13" textLength="91" font-family="'IBM Plex Sans'">数据面要重传，</text><text x="181.82" y="292.811" fill="#000" font-size="13" textLength="144.409" font-family="'IBM Plex Sans'">收尾可能只需重发 End。</text></g><!--link *start* to PENDING--><g class="link" data-entity-1="ent0001" data-entity-2="ent0002" id="lnk3" data-source-line="12" data-link-type="dependency"><path d="M596.07,26.35 C596.07,40.29 596.07,61.95 596.07,81.64" style="stroke:#8A7A67;stroke-width:1;" fill="none" id="*start*-to-PENDING"/><polygon points="596.07,86.64,600.07,77.64,596.07,81.64,592.07,77.64,596.07,86.64" fill="#8A7A67" style="stroke:#8A7A67;stroke-width:1;stroke-linejoin:miter;stroke-miterlimit:10;"/></g><!--link PENDING to MASTER_FAILED--><g class="link" data-entity-1="ent0002" data-entity-2="ent0004" id="lnk5" data-source-line="14" data-link-type="dependency"><path d="M557.81,128.84 C541.89,137.58 525.04,150.13 516.07,167 C505.43,187.02 507.614,208.413 512.544,227.243" style="stroke:#8A7A67;stroke-width:1;" fill="none" id="PENDING-to-MASTER_FAILED"/><polygon points="513.81,232.08,515.4,222.36,512.544,227.243,507.661,224.387,513.81,232.08" fill="#8A7A67" style="stroke:#8A7A67;stroke-width:1;stroke-linejoin:miter;stroke-miterlimit:10;"/><text x="517.07" y="180.568" fill="#000" font-size="13" textLength="113.699" font-family="'IBM Plex Sans'">BatchPutStart 失败</text></g><!--link PENDING to TRANSFER_FAILED--><g class="link" data-entity-1="ent0002" data-entity-2="ent0006" id="lnk7" data-source-line="15" data-link-type="dependency"><path d="M557.7,118.67 C480.42,130.77 301.21,162.32 158.07,214 C144.56,218.88 134.872,223.143 122.122,229.593" style="stroke:#8A7A67;stroke-width:1;" fill="none" id="PENDING-to-TRANSFER_FAILED"/><polygon points="117.66,231.85,127.496,231.357,122.122,229.593,123.885,224.218,117.66,231.85" fill="#8A7A67" style="stroke:#8A7A67;stroke-width:1;stroke-linejoin:miter;stroke-miterlimit:10;"/><text x="312.76" y="180.568" fill="#000" font-size="13" textLength="78" font-family="'IBM Plex Sans'">数据搬运失败</text></g><!--link PENDING to FINALIZE_FAILED--><g class="link" data-entity-1="ent0002" data-entity-2="ent0008" id="lnk9" data-source-line="16" data-link-type="dependency"><path d="M614.98,137.44 C621.66,146.51 629.01,157.02 635.07,167 C647.97,188.21 658.38,209.052 666.93,227.312" style="stroke:#8A7A67;stroke-width:1;" fill="none" id="PENDING-to-FINALIZE_FAILED"/><polygon points="669.05,231.84,668.856,221.993,666.93,227.312,661.611,225.385,669.05,231.84" fill="#8A7A67" style="stroke:#8A7A67;stroke-width:1;stroke-linejoin:miter;stroke-miterlimit:10;"/><text x="645.64" y="180.568" fill="#000" font-size="13" textLength="107.771" font-family="'IBM Plex Sans'">BatchPutEnd 失败</text></g><!--link PENDING to SUCCESS--><g class="link" data-entity-1="ent0002" data-entity-2="ent0010" id="lnk11" data-source-line="17" data-link-type="dependency"><path d="M634.42,117.98 C670.45,124.28 724.33,138.03 762.07,167 C784.22,183.99 798.273,207.484 807.833,227.594" style="stroke:#8A7A67;stroke-width:1;" fill="none" id="PENDING-to-SUCCESS"/><polygon points="809.98,232.11,809.729,222.264,807.833,227.594,802.503,225.699,809.98,232.11" fill="#8A7A67" style="stroke:#8A7A67;stroke-width:1;stroke-linejoin:miter;stroke-miterlimit:10;"/><text x="779.77" y="180.568" fill="#000" font-size="13" textLength="78" font-family="'IBM Plex Sans'">三阶段均成功</text></g><!--link MASTER_FAILED to *end*--><g class="link" data-entity-1="ent0004" data-entity-2="ent0012" id="lnk13" data-source-line="19" data-link-type="dependency"><path d="M532.59,282.57 C543.33,307.41 557.486,340.12 564.986,357.47" style="stroke:#8A7A67;stroke-width:1;" fill="none" id="MASTER_FAILED-to-*end*"/><polygon points="566.97,362.06,567.071,352.212,564.986,357.47,559.727,355.386,566.97,362.06" fill="#8A7A67" style="stroke:#8A7A67;stroke-width:1;stroke-linejoin:miter;stroke-miterlimit:10;"/></g><!--link TRANSFER_FAILED to *end*--><g class="link" data-entity-1="ent0006" data-entity-2="ent0012" id="lnk14" data-source-line="20" data-link-type="dependency"><path d="M116.62,282.75 C129.59,289.36 144.12,295.95 158.07,300.55 C312.17,351.32 506.202,367.168 554.952,370.508" style="stroke:#8A7A67;stroke-width:1;" fill="none" id="TRANSFER_FAILED-to-*end*"/><polygon points="559.94,370.85,551.234,366.244,554.952,370.508,550.688,374.225,559.94,370.85" fill="#8A7A67" style="stroke:#8A7A67;stroke-width:1;stroke-linejoin:miter;stroke-miterlimit:10;"/></g><!--link FINALIZE_FAILED to *end*--><g class="link" data-entity-1="ent0008" data-entity-2="ent0012" id="lnk15" data-source-line="21" data-link-type="dependency"><path d="M656.69,282.57 C631.92,308.32 597.717,343.857 581.917,360.277" style="stroke:#8A7A67;stroke-width:1;" fill="none" id="FINALIZE_FAILED-to-*end*"/><polygon points="578.45,363.88,587.573,360.168,581.917,360.277,581.808,354.621,578.45,363.88" fill="#8A7A67" style="stroke:#8A7A67;stroke-width:1;stroke-linejoin:miter;stroke-miterlimit:10;"/></g><!--link SUCCESS to *end*--><g class="link" data-entity-1="ent0010" data-entity-2="ent0012" id="lnk16" data-source-line="22" data-link-type="dependency"><path d="M788.65,282.66 C779.71,288.97 769.76,295.43 760.07,300.55 C695.63,334.64 615.949,358.84 586.529,367.22" style="stroke:#8A7A67;stroke-width:1;" fill="none" id="SUCCESS-to-*end*"/><polygon points="581.72,368.59,591.471,369.971,586.529,367.22,589.28,362.278,581.72,368.59" fill="#8A7A67" style="stroke:#8A7A67;stroke-width:1;stroke-linejoin:miter;stroke-miterlimit:10;"/></g><?plantuml-src TP5VIzjG6CRlpwSuw5t02-kOkej1qYOZeA4OTpCPuyoaVx3cZ9DJ71i3DpTqqgmHrY6YA6DE6Cuws8gmkdsOzIJfbLzXRqmoQgTt9x_tUNYUzusxL7MU44QMiLiX5bsfEcLS8ZNNHkw_YMMNIBt6DUfmWopRU4HNPd6nPZ_59d7SaG7bOxAuL6QqxbXvMgCCZsgQLj2c1XGk9zp6pn76oWrQc51csIob-MbbMiu1bHcZAocSaYVbsvC0uqufoocvM-DAoipgCnkFJw0N22r83_7Os5rSL8s2Rjn3A7rSmbdPd5Vd7ccoFgCMy1qenHShnJetEM4SYq_Vek-7LmppSx9XQeEMe7KQU2U1VnpzzgynQBeXp-WFrFypLCUwBi6ydy-hfWd2tjdR_dOdEFaXzjQ33LzixYDqjN2iX_tGSAkC3uTdFCl8lf53uQ-mQhd2CIqDBmatbQIaQT38AcsT2z-Jf8jketVc1TljyBWR_jmFTrxZnFHdzHNuO8Nmo4kyCEklUr6x5Nxz4BOEmIRynaLt1sJ1koEnqUdlVHJDjcX-IMJYpLfoMyY8DPTlq4IVNuAWrpr8-VkEEFq5ncZjFFRkhi9KDBSmt3SkOSEPu_N-0W00?></g></svg>