<svg xmlns="http://www.w3.org/2000/svg" xmlns:xlink="http://www.w3.org/1999/xlink" version="1.1" data-diagram-type="CLASS" style="width:787px;height:324px;background:#FFFDF8;" width="787px" height="324px" viewBox="0 0 787 324" zoomAndPan="magnify" preserveAspectRatio="none" contentStyleType="text/css"><?plantuml 1.2026.8?><defs/><g font-family="sans-serif" lengthAdjust="spacing"><rect x="0" y="0" width="787" height="324" fill="#FFFDF8" style="stroke:none;"/><!--class AS--><g class="entity" data-qualified-name="AS" id="ent0001" data-source-line="15"><rect x="447.89" y="7" width="146.347" height="48" fill="#FFFDF8" style="stroke:#C9B9A2;stroke-width:0.5;" rx="2.5" ry="2.5"/><ellipse cx="462.89" cy="23" rx="11" ry="11" fill="#A9DCDF" style="stroke:#181818;stroke-width:1;"/><path d="M462.753,18.348 L461.599,23.42 L463.915,23.42 Z M461.259,16.107 L464.256,16.107 L467.601,28.5 L465.152,28.5 L464.389,25.437 L461.11,25.437 L460.363,28.5 L457.914,28.5 Z " fill="#000"/><text x="476.89" y="27.913" fill="#2B241B" font-size="13" textLength="114.347" font-style="italic" font-family="'IBM Plex Sans'">AllocationStrategy</text><line x1="448.89" y1="39" x2="593.237" y2="39" style="stroke:#C9B9A2;stroke-width:0.5;"/><line x1="448.89" y1="47" x2="593.237" y2="47" style="stroke:#C9B9A2;stroke-width:0.5;"/></g><!--class RAN--><g class="entity" data-qualified-name="RAN" id="ent0002" data-source-line="16"><rect x="7" y="90.72" width="198.118" height="48" fill="#FFFDF8" style="stroke:#C9B9A2;stroke-width:0.5;" rx="2.5" ry="2.5"/><ellipse cx="22" cy="106.72" rx="11" ry="11" fill="#ADD1B2" style="stroke:#181818;stroke-width:1;"/><path d="M24.473,112.863 Q23.892,113.162 23.253,113.311 Q22.614,113.461 21.908,113.461 Q19.401,113.461 18.082,111.809 Q16.762,110.157 16.762,107.036 Q16.762,103.907 18.082,102.255 Q19.401,100.603 21.908,100.603 Q22.614,100.603 23.261,100.752 Q23.909,100.902 24.473,101.2 L24.473,103.923 Q23.842,103.342 23.249,103.072 Q22.655,102.803 22.024,102.803 Q20.68,102.803 19.995,103.869 Q19.31,104.936 19.31,107.036 Q19.31,109.128 19.995,110.194 Q20.68,111.261 22.024,111.261 Q22.655,111.261 23.249,110.991 Q23.842,110.721 24.473,110.14 Z " fill="#000"/><text x="36" y="111.633" fill="#2B241B" font-size="13" textLength="166.118" font-family="'IBM Plex Sans'">RandomAllocationStrategy</text><line x1="8" y1="122.72" x2="204.118" y2="122.72" style="stroke:#C9B9A2;stroke-width:0.5;"/><line x1="8" y1="130.72" x2="204.118" y2="130.72" style="stroke:#C9B9A2;stroke-width:0.5;"/></g><!--class RNK--><g class="entity" data-qualified-name="RNK" id="ent0003" data-source-line="17"><rect x="9.64" y="174.45" width="192.837" height="48" fill="#FFFDF8" style="stroke:#C9B9A2;stroke-width:0.5;" rx="2.5" ry="2.5"/><ellipse cx="24.64" cy="190.45" rx="11" ry="11" fill="#ADD1B2" style="stroke:#181818;stroke-width:1;"/><path d="M27.113,196.593 Q26.532,196.892 25.893,197.041 Q25.254,197.191 24.548,197.191 Q22.041,197.191 20.722,195.539 Q19.402,193.887 19.402,190.766 Q19.402,187.637 20.722,185.985 Q22.041,184.333 24.548,184.333 Q25.254,184.333 25.901,184.482 Q26.549,184.632 27.113,184.93 L27.113,187.653 Q26.482,187.072 25.889,186.802 Q25.295,186.533 24.664,186.533 Q23.32,186.533 22.635,187.599 Q21.95,188.666 21.95,190.766 Q21.95,192.858 22.635,193.924 Q23.32,194.991 24.664,194.991 Q25.295,194.991 25.889,194.721 Q26.482,194.451 27.113,193.87 Z " fill="#000"/><text x="38.64" y="195.363" fill="#2B241B" font-size="13" textLength="160.837" font-family="'IBM Plex Sans'">RankedAllocationStrategy</text><line x1="10.64" y1="206.45" x2="201.477" y2="206.45" style="stroke:#C9B9A2;stroke-width:0.5;"/><line x1="10.64" y1="214.45" x2="201.477" y2="214.45" style="stroke:#C9B9A2;stroke-width:0.5;"/></g><!--class FRF--><g class="entity" data-qualified-name="FRF" id="ent0004" data-source-line="18"><rect x="46.9" y="254.45" width="118.315" height="55.443" fill="#FFFDF8" style="stroke:#C9B9A2;stroke-width:0.5;" rx="2.5" ry="2.5"/><ellipse cx="61.9" cy="274.172" rx="11" ry="11" fill="#ADD1B2" style="stroke:#181818;stroke-width:1;"/><path d="M64.373,280.315 Q63.792,280.614 63.153,280.763 Q62.514,280.912 61.808,280.912 Q59.301,280.912 57.982,279.261 Q56.662,277.609 56.662,274.488 Q56.662,271.358 57.982,269.706 Q59.301,268.054 61.808,268.054 Q62.514,268.054 63.161,268.204 Q63.809,268.353 64.373,268.652 L64.373,271.375 Q63.742,270.794 63.149,270.524 Q62.555,270.254 61.924,270.254 Q60.58,270.254 59.895,271.321 Q59.21,272.388 59.21,274.488 Q59.21,276.579 59.895,277.646 Q60.58,278.713 61.924,278.713 Q62.555,278.713 63.149,278.443 Q63.742,278.173 64.373,277.592 Z " fill="#000"/><text x="100.059" y="271.052" fill="#000" font-size="12" textLength="37.998" font-style="italic" font-family="IBM Plex Sans">«final»</text><text x="75.9" y="286.151" fill="#2B241B" font-size="13" textLength="86.315" font-family="'IBM Plex Sans'">FreeRatioFirst</text><line x1="47.9" y1="293.893" x2="164.215" y2="293.893" style="stroke:#C9B9A2;stroke-width:0.5;"/><line x1="47.9" y1="301.893" x2="164.215" y2="301.893" style="stroke:#C9B9A2;stroke-width:0.5;"/></g><!--class SSD--><g class="entity" data-qualified-name="SSD" id="ent0005" data-source-line="19"><rect x="451" y="87" width="140.126" height="55.443" fill="#FFFDF8" style="stroke:#C9B9A2;stroke-width:0.5;" rx="2.5" ry="2.5"/><ellipse cx="466" cy="106.722" rx="11" ry="11" fill="#ADD1B2" style="stroke:#181818;stroke-width:1;"/><path d="M468.473,112.865 Q467.892,113.164 467.253,113.313 Q466.614,113.462 465.908,113.462 Q463.401,113.462 462.082,111.811 Q460.762,110.159 460.762,107.038 Q460.762,103.908 462.082,102.256 Q463.401,100.604 465.908,100.604 Q466.614,100.604 467.261,100.754 Q467.909,100.903 468.473,101.202 L468.473,103.925 Q467.842,103.344 467.249,103.074 Q466.655,102.804 466.024,102.804 Q464.68,102.804 463.995,103.871 Q463.31,104.938 463.31,107.038 Q463.31,109.129 463.995,110.196 Q464.68,111.263 466.024,111.263 Q466.655,111.263 467.249,110.993 Q467.842,110.723 468.473,110.142 Z " fill="#000"/><text x="515.064" y="103.602" fill="#000" font-size="12" textLength="37.998" font-style="italic" font-family="IBM Plex Sans">«final»</text><text x="480" y="118.701" fill="#2B241B" font-size="13" textLength="108.126" font-family="'IBM Plex Sans'">SsdFreeRatioFirst</text><line x1="452" y1="126.443" x2="590.126" y2="126.443" style="stroke:#C9B9A2;stroke-width:0.5;"/><line x1="452" y1="134.443" x2="590.126" y2="134.443" style="stroke:#C9B9A2;stroke-width:0.5;"/></g><!--class CXL--><g class="entity" data-qualified-name="CXL" id="ent0006" data-source-line="20"><rect x="605.52" y="90.72" width="167.072" height="48" fill="#FFFDF8" style="stroke:#C9B9A2;stroke-width:0.5;" rx="2.5" ry="2.5"/><ellipse cx="620.52" cy="106.72" rx="11" ry="11" fill="#ADD1B2" style="stroke:#181818;stroke-width:1;"/><path d="M622.993,112.863 Q622.412,113.162 621.773,113.311 Q621.134,113.461 620.428,113.461 Q617.921,113.461 616.602,111.809 Q615.282,110.157 615.282,107.036 Q615.282,103.907 616.602,102.255 Q617.921,100.603 620.428,100.603 Q621.134,100.603 621.781,100.752 Q622.429,100.902 622.993,101.2 L622.993,103.923 Q622.362,103.342 621.769,103.072 Q621.175,102.803 620.544,102.803 Q619.2,102.803 618.515,103.869 Q617.83,104.936 617.83,107.036 Q617.83,109.128 618.515,110.194 Q619.2,111.261 620.544,111.261 Q621.175,111.261 621.769,110.991 Q622.362,110.721 622.993,110.14 Z " fill="#000"/><text x="634.52" y="111.633" fill="#2B241B" font-size="13" textLength="135.072" font-family="'IBM Plex Sans'">CxlAllocationStrategy</text><line x1="606.52" y1="122.72" x2="771.592" y2="122.72" style="stroke:#C9B9A2;stroke-width:0.5;"/><line x1="606.52" y1="130.72" x2="771.592" y2="130.72" style="stroke:#C9B9A2;stroke-width:0.5;"/></g><g class="entity" data-qualified-name="GMN12" id="ent0013" data-source-line="29"><path d="M219.53,94.41 L219.53,110.72 L205.35,114.72 L219.53,118.72 L219.53,135.031 A0,0 0 0 0 219.53,135.031 L436.584,135.031 A0,0 0 0 0 436.584,135.031 L436.584,104.41 L426.584,94.41 L219.53,94.41 A0,0 0 0 0 219.53,94.41" style="stroke:#181818;stroke-width:0.5;" fill="#FEFFDD"/><path d="M426.584,94.41 L426.584,104.41 L436.584,104.41 L426.584,94.41" style="stroke:#181818;stroke-width:0.5;" fill="#FEFFDD"/><text x="225.53" y="111.978" fill="#000" font-size="13" textLength="177.696" font-family="'IBM Plex Sans'">LOCAL_FIRST 走的就是这个类</text><text x="225.53" y="127.289" fill="#000" font-size="13" textLength="196.054" font-family="'IBM Plex Sans'">（工厂里和 RANDOM 同一分支）</text></g><!--reverse link AS to RAN--><g class="link" data-entity-1="ent0001" data-entity-2="ent0002" id="lnk7" data-source-line="22" data-link-type="extension"><path d="M429.646,46.503 C366.866,56.763 292.1,69.81 212.06,87 C207.23,88.04 202.3,89.14 197.32,90.28" style="stroke:#8A7A67;stroke-width:1;" fill="none" id="AS-backto-RAN" codeLine="22"/><polygon points="447.41,43.6,428.678,40.582,430.613,52.425,447.41,43.6" fill="none" style="stroke:#8A7A67;stroke-width:1;stroke-linejoin:miter;stroke-miterlimit:10;"/></g><!--reverse link RAN to RNK--><g class="link" data-entity-1="ent0002" data-entity-2="ent0003" id="lnk8" data-source-line="23" data-link-type="extension"><path d="M106.06,156.92 C106.06,167.97 106.06,163.14 106.06,174.19" style="stroke:#8A7A67;stroke-width:1;" fill="none" id="RAN-backto-RNK" codeLine="23"/><polygon points="106.06,138.92,100.06,156.92,112.06,156.92,106.06,138.92" fill="none" style="stroke:#8A7A67;stroke-width:1;stroke-linejoin:miter;stroke-miterlimit:10;"/></g><!--reverse link RNK to FRF--><g class="link" data-entity-1="ent0003" data-entity-2="ent0004" id="lnk9" data-source-line="24" data-link-type="extension"><path d="M106.06,240.65 C106.06,250.46 106.06,243.96 106.06,254.15" style="stroke:#8A7A67;stroke-width:1;" fill="none" id="RNK-backto-FRF" codeLine="24"/><polygon points="106.06,222.65,100.06,240.65,112.06,240.65,106.06,222.65" fill="none" style="stroke:#8A7A67;stroke-width:1;stroke-linejoin:miter;stroke-miterlimit:10;"/></g><!--reverse link AS to SSD--><g class="link" data-entity-1="ent0001" data-entity-2="ent0005" id="lnk10" data-source-line="25" data-link-type="extension"><path d="M521.06,73.2 C521.06,83.02 521.06,76.52 521.06,86.71" style="stroke:#8A7A67;stroke-width:1;" fill="none" id="AS-backto-SSD" codeLine="25"/><polygon points="521.06,55.2,515.06,73.2,527.06,73.2,521.06,55.2" fill="none" style="stroke:#8A7A67;stroke-width:1;stroke-linejoin:miter;stroke-miterlimit:10;"/></g><!--reverse link AS to CXL--><g class="link" data-entity-1="ent0001" data-entity-2="ent0006" id="lnk11" data-source-line="26" data-link-type="extension"><path d="M585.388,63.291 C607.888,74.231 618.41,79.36 640.91,90.3" style="stroke:#8A7A67;stroke-width:1;" fill="none" id="AS-backto-CXL" codeLine="26"/><polygon points="569.2,55.42,582.764,68.687,588.012,57.895,569.2,55.42" fill="none" style="stroke:#8A7A67;stroke-width:1;stroke-linejoin:miter;stroke-miterlimit:10;"/></g><?plantuml-src TP3FIoCn5CVl-IiUisTXMsLLA49cIg1ihJApXxqjwIIjGzD4aXHTTM4HsNMXY8W7zUvbBxQ7PGK5_nd77oV_1JFZM0QqXmV9vtrUtfUONYBNgQPzY0Kr1bkha_R0yaQiP9HiSVY8p4GnQvIfZKHseKE5uQKEunqw49OeQLkqpy5h-CkmAlWcH5GQhsIsQTphQZMGB512QVX02AcJXP8X5UE6hqDbhWGrbRqCpbPBC8yCsmZ0d_AgwoZDk2veiEWluggZM6krKS05F8y_pJkOfIzOrQ_ELVo2vVzGcKK_4A9jOpMDBNXO21LJcxXlSiJoxdSFg04SePTKNaWbK_qfMeXR9Q_7sJIlzVdL8vhpC3D8eetDkoGaKAjr4ad5qjAh5ndsZXf5zRTgi2ccx0s-DX724THsPcRoiAwAYqlawkNY0amijs5opiUbiXnqqbspe3hv8m3DbG0tlv5667s1Xt-Z-xEzT3I-Exbuk3czlVnxFxvopjFrVlh_F3tOVVmzJ8-6sMHzPHdIm-7jvSzq_zVTySNJzH_49ODinJC0?></g></svg>