<svg xmlns="http://www.w3.org/2000/svg" xmlns:xlink="http://www.w3.org/1999/xlink" version="1.1" data-diagram-type="STATE" style="width:581px;height:902px;background:#FFFDF8;" width="581px" height="902px" viewBox="0 0 581 902" zoomAndPan="magnify" preserveAspectRatio="none" contentStyleType="text/css"><?plantuml 1.2026.8?><defs/><g font-family="sans-serif" lengthAdjust="spacing"><rect x="0" y="0" width="581" height="902" fill="#FFFDF8" style="stroke:none;"/><g class="entity" data-qualified-name="kStarting" id="ent0001" data-source-line="12"><rect x="400.95" y="87" width="72.389" height="50" fill="#FFFDF8" style="stroke:#C9B9A2;stroke-width:0.5;" rx="12.5" ry="12.5"/><line x1="400.95" y1="111.133" x2="473.339" y2="111.133" style="stroke:#C9B9A2;stroke-width:0.5;"/><text x="410.95" y="103.602" fill="#2B241B" font-size="12" textLength="52.389" font-family="'IBM Plex Sans'">kStarting</text></g><g class="entity" data-qualified-name="kStandby" id="ent0002" data-source-line="13"><rect x="400.44" y="198" width="73.414" height="50" fill="#FFFDF8" style="stroke:#C9B9A2;stroke-width:0.5;" rx="12.5" ry="12.5"/><line x1="400.44" y1="222.133" x2="473.854" y2="222.133" style="stroke:#C9B9A2;stroke-width:0.5;"/><text x="410.44" y="214.602" fill="#2B241B" font-size="12" textLength="53.414" font-family="'IBM Plex Sans'">kStandby</text></g><g class="entity" data-qualified-name="kCandidate" id="ent0003" data-source-line="14"><rect x="332.26" y="325" width="85.766" height="50" fill="#FFFDF8" style="stroke:#C9B9A2;stroke-width:0.5;" rx="12.5" ry="12.5"/><line x1="332.26" y1="349.133" x2="418.026" y2="349.133" style="stroke:#C9B9A2;stroke-width:0.5;"/><text x="342.26" y="341.602" fill="#2B241B" font-size="12" textLength="65.766" font-family="'IBM Plex Sans'">kCandidate</text></g><g class="entity" data-qualified-name="kRecovering" id="ent0004" data-source-line="15"><rect x="245.64" y="452" width="91.01" height="50" fill="#FFFDF8" style="stroke:#C9B9A2;stroke-width:0.5;" rx="12.5" ry="12.5"/><line x1="245.64" y1="476.133" x2="336.65" y2="476.133" style="stroke:#C9B9A2;stroke-width:0.5;"/><text x="255.64" y="468.602" fill="#2B241B" font-size="12" textLength="71.01" font-family="'IBM Plex Sans'">kRecovering</text></g><g class="entity" data-qualified-name="kCatchingUp" id="ent0005" data-source-line="16"><rect x="7" y="581.96" width="94.291" height="50" fill="#FFFDF8" style="stroke:#C9B9A2;stroke-width:0.5;" rx="12.5" ry="12.5"/><line x1="7" y1="606.093" x2="101.291" y2="606.093" style="stroke:#C9B9A2;stroke-width:0.5;"/><text x="17" y="598.562" fill="#2B241B" font-size="12" textLength="74.291" font-family="'IBM Plex Sans'">kCatchingUp</text></g><g class="entity" data-qualified-name="kLeaderWarmup" id="ent0006" data-source-line="17"><rect x="186.21" y="711.93" width="113.879" height="50" fill="#FFFDF8" style="stroke:#C9B9A2;stroke-width:0.5;" rx="12.5" ry="12.5"/><line x1="186.21" y1="736.063" x2="300.089" y2="736.063" style="stroke:#C9B9A2;stroke-width:0.5;"/><text x="196.21" y="728.532" fill="#2B241B" font-size="12" textLength="93.879" font-family="'IBM Plex Sans'">kLeaderWarmup</text></g><g class="entity" data-qualified-name="kServing" id="ent0007" data-source-line="18"><rect x="355.3" y="838.93" width="69.682" height="50" fill="#FFFDF8" style="stroke:#C9B9A2;stroke-width:0.5;" rx="12.5" ry="12.5"/><line x1="355.3" y1="863.063" x2="424.982" y2="863.063" style="stroke:#C9B9A2;stroke-width:0.5;"/><text x="365.3" y="855.532" fill="#2B241B" font-size="12" textLength="49.682" font-family="'IBM Plex Sans'">kServing</text></g><g class="start_entity" data-qualified-name=".start." id="ent0008" data-source-line="20"><ellipse cx="437.15" cy="16" rx="10" ry="10" fill="#222" style="stroke:#222;stroke-width:1;"/></g><g class="entity" data-qualified-name="GMN17" id="ent0018" data-source-line="30"><path d="M136.05,579 L136.05,634.932 A0,0 0 0 0 136.05,634.932 L446.249,634.932 A0,0 0 0 0 446.249,634.932 L446.249,589 L436.249,579 L295.15,579 L291.15,502.37 L287.15,579 L136.05,579 A0,0 0 0 0 136.05,579" style="stroke:#181818;stroke-width:0.5;" fill="#FEFFDD"/><path d="M436.249,579 L436.249,589 L446.249,589 L436.249,579" style="stroke:#181818;stroke-width:0.5;" fill="#FEFFDD"/><text x="142.05" y="596.568" fill="#000" font-size="13" textLength="289.199" font-family="'IBM Plex Sans'">kRecovering / kCatchingUp / kLeaderWarmup</text><text x="142.05" y="611.879" fill="#000" font-size="13" textLength="78" font-family="'IBM Plex Sans'">在角色映射里</text><text x="220.05" y="611.879" fill="#000" font-size="13" textLength="83.891" font-weight="700" font-family="'IBM Plex Sans'">仍算 standby</text><text x="142.05" y="627.189" fill="#000" font-size="13" textLength="152.674" font-family="'IBM Plex Sans'">—— 赢得竞选 ≠ 可以服务</text></g><!--link *start* to kStarting--><g class="link" data-entity-1="ent0008" data-entity-2="ent0001" id="lnk9" data-source-line="20" data-link-type="dependency"><path d="M437.15,26.36 C437.15,40.29 437.15,61.95 437.15,81.65" style="stroke:#8A7A67;stroke-width:1;" fill="none" id="*start*-to-kStarting"/><polygon points="437.15,86.65,441.15,77.65,437.15,81.65,433.15,77.65,437.15,86.65" fill="#8A7A67" style="stroke:#8A7A67;stroke-width:1;stroke-linejoin:miter;stroke-miterlimit:10;"/></g><!--link kStarting to kStandby--><g class="link" data-entity-1="ent0001" data-entity-2="ent0002" id="lnk10" data-source-line="21" data-link-type="dependency"><path d="M437.15,137.46 C437.15,155.41 437.15,174.69 437.15,192.62" style="stroke:#8A7A67;stroke-width:1;" fill="none" id="kStarting-to-kStandby"/><polygon points="437.15,197.62,441.15,188.62,437.15,192.62,433.15,188.62,437.15,197.62" fill="#8A7A67" style="stroke:#8A7A67;stroke-width:1;stroke-linejoin:miter;stroke-miterlimit:10;"/></g><!--link kStandby to kCandidate--><g class="link" data-entity-1="ent0002" data-entity-2="ent0003" id="lnk11" data-source-line="22" data-link-type="dependency"><path d="M425.04,248.4 C414.12,270.42 400.351,298.181 389.441,320.181" style="stroke:#8A7A67;stroke-width:1;" fill="none" id="kStandby-to-kCandidate"/><polygon points="387.22,324.66,394.802,318.374,389.441,320.181,387.635,314.82,387.22,324.66" fill="#8A7A67" style="stroke:#8A7A67;stroke-width:1;stroke-linejoin:miter;stroke-miterlimit:10;"/><text x="410.86" y="291.568" fill="#000" font-size="13" textLength="26" font-family="'IBM Plex Sans'">竞选</text></g><!--link kCandidate to kRecovering--><g class="link" data-entity-1="ent0003" data-entity-2="ent0004" id="lnk12" data-source-line="23" data-link-type="dependency"><path d="M358.75,375.4 C343.95,397.42 325.08,425.511 310.29,447.511" style="stroke:#8A7A67;stroke-width:1;" fill="none" id="kCandidate-to-kRecovering"/><polygon points="307.5,451.66,315.841,446.423,310.29,447.511,309.202,441.959,307.5,451.66" fill="#8A7A67" style="stroke:#8A7A67;stroke-width:1;stroke-linejoin:miter;stroke-miterlimit:10;"/><text x="339.17" y="418.568" fill="#000" font-size="13" textLength="52" font-family="'IBM Plex Sans'">赢得竞选</text></g><!--link kRecovering to kCatchingUp--><g class="link" data-entity-1="ent0004" data-entity-2="ent0005" id="lnk13" data-source-line="24" data-link-type="dependency"><path d="M246.01,502.37 C203.97,525.07 146.03,556.354 103.92,579.094" style="stroke:#8A7A67;stroke-width:1;" fill="none" id="kRecovering-to-kCatchingUp"/><polygon points="99.52,581.47,109.34,580.713,103.92,579.094,105.538,573.674,99.52,581.47" fill="#8A7A67" style="stroke:#8A7A67;stroke-width:1;stroke-linejoin:miter;stroke-miterlimit:10;"/><text x="187.84" y="545.568" fill="#000" font-size="13" textLength="65" font-family="'IBM Plex Sans'">从快照恢复</text></g><!--link kCatchingUp to kLeaderWarmup--><g class="link" data-entity-1="ent0005" data-entity-2="ent0006" id="lnk14" data-source-line="25" data-link-type="dependency"><path d="M90.14,632.33 C123.66,655.03 169.24,685.886 202.82,708.626" style="stroke:#8A7A67;stroke-width:1;" fill="none" id="kCatchingUp-to-kLeaderWarmup"/><polygon points="206.96,711.43,201.751,703.072,202.82,708.626,197.265,709.696,206.96,711.43" fill="#8A7A67" style="stroke:#8A7A67;stroke-width:1;stroke-linejoin:miter;stroke-miterlimit:10;"/><text x="160.96" y="678.498" fill="#000" font-size="13" textLength="108.716" font-family="'IBM Plex Sans'">replay oplog 追平</text></g><!--link kLeaderWarmup to kServing--><g class="link" data-entity-1="ent0006" data-entity-2="ent0007" id="lnk15" data-source-line="26" data-link-type="dependency"><path d="M271.84,762.33 C297.74,784.35 331.84,813.352 357.72,835.352" style="stroke:#8A7A67;stroke-width:1;" fill="none" id="kLeaderWarmup-to-kServing"/><polygon points="361.53,838.59,357.264,829.713,357.72,835.352,352.082,835.808,361.53,838.59" fill="#8A7A67" style="stroke:#8A7A67;stroke-width:1;stroke-linejoin:miter;stroke-miterlimit:10;"/><text x="326.45" y="805.498" fill="#000" font-size="13" textLength="117" font-family="'IBM Plex Sans'">预热完成才开始服务</text></g><!--link kServing to kStandby--><g class="link" data-entity-1="ent0007" data-entity-2="ent0002" id="lnk16" data-source-line="27" data-link-type="dependency"><path d="M425.23,842.41 C457.1,820.84 499.15,783.71 499.15,737.93 C499.15,349 499.15,349 499.15,349 C499.15,310.72 478.54,276.072 460.46,252.092" style="stroke:#8A7A67;stroke-width:1;" fill="none" id="kServing-to-kStandby"/><polygon points="457.45,248.1,459.674,257.694,460.46,252.092,466.062,252.878,457.45,248.1" fill="#8A7A67" style="stroke:#8A7A67;stroke-width:1;stroke-linejoin:miter;stroke-miterlimit:10;"/><text x="500.15" y="545.568" fill="#000" font-size="13" textLength="65" font-family="'IBM Plex Sans'">失去领导权</text></g><?plantuml-src TP9TInj158RlvrSSxDs2YA7uTL78HXOAMaf3yK9wCSbEOiXc9ynEj2f2YbzDJQ98mLxOOeEIGcZyeXSbMl-BP3R9l-XiihlE5WfxCUSvxzdplZlhv7Ds4JDS06S5ctGjPsSXWos782Vic2I3InOtgCrVuGA1iPVw8hoso7j8OjiPKvGfdCvd6ItPPe9QbC4pmp3cZHb5uN3C2MmY0Fq_MjcXp2JCfubPVJOUapJE65tpuKnyEZurBQ7doMSnFVPyKlTPChT1O3A6jX0QRSmdEMPSfbDgsqoj1sL2LZbJ7WFmXgJfAc7AH0Bpz8gitnO3ia2mDBg4MQ4KiYHXgzuGMjRUmVZu2sLpU0hvq45m6D7G2Cn1h_LjKAuWXGqbJzQafl-h8VwS14gbvRyjy2obtKvTFBHwkqttGqESrv3Q7QhLF5BFID72wq2B5ir2_-5U_Bv5KSqenoYn71WqTdhRFqMxwduySYirSLSMpGFtj2O-VKUXJCqkPyJvjQXt1eqzSNddVjr6oAOoPufoJWj0Cv6BW4ZsYKYyYN-k0q2S_kWtZ_kL6_VBcRZQ6UnNDQtRgVNQ9zvVwAtND2bxB7-MJ-GxmcFb3CJXPRTpuRidjWcUiRy0?></g></svg>