<svg xmlns="http://www.w3.org/2000/svg" xmlns:xlink="http://www.w3.org/1999/xlink" version="1.1" data-diagram-type="SEQUENCE" style="width:949px;height:1925px;background:#FFFDF8;" width="949px" height="1925px" viewBox="0 0 949 1925" zoomAndPan="magnify" preserveAspectRatio="none" contentStyleType="text/css"><?plantuml 1.2026.8?><defs/><g font-family="sans-serif" lengthAdjust="spacing"><rect x="0" y="0" width="949" height="1925" fill="#FFFDF8" style="stroke:none;"/><g class="title" data-source-line="16"><text x="337.82" y="28.535" fill="#000" font-size="14" textLength="272.33" font-weight="700" font-family="'IBM Plex Sans'">一次请求从客户端到 D 可调度的端到端时序</text></g><rect x="124.716" y="229.684" width="374.793" height="364.969" fill="none" style="stroke:#000;stroke-width:1.5;"/><rect x="86.716" y="760.826" width="843.254" height="879.111" fill="none" style="stroke:#000;stroke-width:1.5;"/><rect x="105.716" y="807.447" width="799.254" height="818.49" fill="none" style="stroke:#000;stroke-width:1.5;"/><rect x="124.716" y="1072.863" width="623.684" height="153.174" fill="none" style="stroke:#000;stroke-width:1.5;"/><g><title>...</title><rect x="34.5" y="128.441" width="8" height="1704.98" fill="#000" fill-opacity="0"/><line x1="38" y1="128.441" x2="38" y2="1833.422" style="stroke:#C9B9A2;stroke-width:0.5;stroke-dasharray:5,5;"/></g><g><title>P.D Proxy</title><rect x="137.216" y="128.441" width="8" height="1704.98" fill="#000" fill-opacity="0"/><line x1="140.716" y1="128.441" x2="140.716" y2="1833.422" style="stroke:#C9B9A2;stroke-width:0.5;stroke-dasharray:5,5;"/></g><g><title>D Scheduler</title><rect x="278.38" y="128.441" width="8" height="1704.98" fill="#000" fill-opacity="0"/><line x1="281.88" y1="128.441" x2="281.88" y2="1833.422" style="stroke:#C9B9A2;stroke-width:0.5;stroke-dasharray:5,5;"/></g><g><title>D Worker</title><rect x="427.923" y="128.441" width="8" height="1704.98" fill="#000" fill-opacity="0"/><line x1="431.423" y1="128.441" x2="431.423" y2="1833.422" style="stroke:#C9B9A2;stroke-width:0.5;stroke-dasharray:5,5;"/></g><g><title>P Scheduler</title><rect x="593.074" y="128.441" width="8" height="1704.98" fill="#000" fill-opacity="0"/><line x1="596.574" y1="128.441" x2="596.574" y2="1833.422" style="stroke:#C9B9A2;stroke-width:0.5;stroke-dasharray:5,5;"/></g><g><title>P Worker</title><rect x="728.899" y="128.441" width="8" height="1704.98" fill="#000" fill-opacity="0"/><line x1="732.399" y1="128.441" x2="732.399" y2="1833.422" style="stroke:#C9B9A2;stroke-width:0.5;stroke-dasharray:5,5;"/></g><rect x="10" y="96.953" width="56" height="30.488" fill="#FFFDF8" style="stroke:#C9B9A2;stroke-width:0.5;" rx="2.5" ry="2.5"/><text x="17" y="117.488" fill="#2B241B" font-size="14" textLength="42" font-family="'IBM Plex Sans'">客户端</text><rect x="76" y="47.488" width="129.432" height="79.953" fill="#FFFDF8" style="stroke:#C9B9A2;stroke-width:0.5;" rx="2.5" ry="2.5"/><text x="106.734" y="68.023" fill="#2B241B" font-size="14" textLength="67.963" font-family="'IBM Plex Sans'">P/D Proxy</text><text x="90.854" y="84.512" fill="#2B241B" font-size="14" textLength="99.723" font-family="'IBM Plex Sans'">(load_balance_</text><text x="83" y="101" fill="#2B241B" font-size="14" textLength="115.432" font-family="'IBM Plex Sans'">proxy_layerwise_</text><text x="117.72" y="117.488" fill="#2B241B" font-size="14" textLength="45.992" font-family="'IBM Plex Sans'">server)</text><rect x="215.432" y="80.465" width="132.897" height="46.977" fill="#FFFDF8" style="stroke:#C9B9A2;stroke-width:0.5;" rx="2.5" ry="2.5"/><text x="241.285" y="101" fill="#2B241B" font-size="14" textLength="81.19" font-family="'IBM Plex Sans'">D Scheduler</text><text x="222.432" y="117.488" fill="#2B241B" font-size="14" textLength="118.897" font-family="'IBM Plex Sans'">(RD2H consumer)</text><rect x="379.336" y="80.465" width="104.173" height="46.977" fill="#FFFDF8" style="stroke:#C9B9A2;stroke-width:0.5;" rx="2.5" ry="2.5"/><text x="399.957" y="101" fill="#2B241B" font-size="14" textLength="62.932" font-family="'IBM Plex Sans'">D Worker</text><text x="386.336" y="117.488" fill="#2B241B" font-size="14" textLength="90.173" font-family="'IBM Plex Sans'">(read_thread)</text><rect x="532.897" y="80.465" width="127.354" height="46.977" fill="#FFFDF8" style="stroke:#C9B9A2;stroke-width:0.5;" rx="2.5" ry="2.5"/><text x="557.353" y="101" fill="#2B241B" font-size="14" textLength="78.442" font-family="'IBM Plex Sans'">P Scheduler</text><text x="539.897" y="117.488" fill="#2B241B" font-size="14" textLength="113.354" font-family="'IBM Plex Sans'">(RD2H producer)</text><rect x="681.407" y="63.977" width="101.985" height="63.465" fill="#FFFDF8" style="stroke:#C9B9A2;stroke-width:0.5;" rx="2.5" ry="2.5"/><text x="702.308" y="84.512" fill="#2B241B" font-size="14" textLength="60.184" font-family="'IBM Plex Sans'">P Worker</text><text x="696.077" y="101" fill="#2B241B" font-size="14" textLength="72.646" font-family="'IBM Plex Sans'">(forward +</text><text x="688.407" y="117.488" fill="#2B241B" font-size="14" textLength="87.985" font-family="'IBM Plex Sans'">send_thread)</text><rect x="10" y="1833.422" width="56" height="30.488" fill="#FFFDF8" style="stroke:#C9B9A2;stroke-width:0.5;" rx="2.5" ry="2.5"/><text x="17" y="1853.957" fill="#2B241B" font-size="14" textLength="42" font-family="'IBM Plex Sans'">客户端</text><rect x="76" y="1833.422" width="129.432" height="79.953" fill="#FFFDF8" style="stroke:#C9B9A2;stroke-width:0.5;" rx="2.5" ry="2.5"/><text x="106.734" y="1853.957" fill="#2B241B" font-size="14" textLength="67.963" font-family="'IBM Plex Sans'">P/D Proxy</text><text x="90.854" y="1870.445" fill="#2B241B" font-size="14" textLength="99.723" font-family="'IBM Plex Sans'">(load_balance_</text><text x="83" y="1886.934" fill="#2B241B" font-size="14" textLength="115.432" font-family="'IBM Plex Sans'">proxy_layerwise_</text><text x="117.72" y="1903.422" fill="#2B241B" font-size="14" textLength="45.992" font-family="'IBM Plex Sans'">server)</text><rect x="215.432" y="1833.422" width="132.897" height="46.977" fill="#FFFDF8" style="stroke:#C9B9A2;stroke-width:0.5;" rx="2.5" ry="2.5"/><text x="241.285" y="1853.957" fill="#2B241B" font-size="14" textLength="81.19" font-family="'IBM Plex Sans'">D Scheduler</text><text x="222.432" y="1870.445" fill="#2B241B" font-size="14" textLength="118.897" font-family="'IBM Plex Sans'">(RD2H consumer)</text><rect x="379.336" y="1833.422" width="104.173" height="46.977" fill="#FFFDF8" style="stroke:#C9B9A2;stroke-width:0.5;" rx="2.5" ry="2.5"/><text x="399.957" y="1853.957" fill="#2B241B" font-size="14" textLength="62.932" font-family="'IBM Plex Sans'">D Worker</text><text x="386.336" y="1870.445" fill="#2B241B" font-size="14" textLength="90.173" font-family="'IBM Plex Sans'">(read_thread)</text><rect x="532.897" y="1833.422" width="127.354" height="46.977" fill="#FFFDF8" style="stroke:#C9B9A2;stroke-width:0.5;" rx="2.5" ry="2.5"/><text x="557.353" y="1853.957" fill="#2B241B" font-size="14" textLength="78.442" font-family="'IBM Plex Sans'">P Scheduler</text><text x="539.897" y="1870.445" fill="#2B241B" font-size="14" textLength="113.354" font-family="'IBM Plex Sans'">(RD2H producer)</text><rect x="681.407" y="1833.422" width="101.985" height="63.465" fill="#FFFDF8" style="stroke:#C9B9A2;stroke-width:0.5;" rx="2.5" ry="2.5"/><text x="702.308" y="1853.957" fill="#2B241B" font-size="14" textLength="60.184" font-family="'IBM Plex Sans'">P Worker</text><text x="696.077" y="1870.445" fill="#2B241B" font-size="14" textLength="72.646" font-family="'IBM Plex Sans'">(forward +</text><text x="688.407" y="1886.934" fill="#2B241B" font-size="14" textLength="87.985" font-family="'IBM Plex Sans'">send_thread)</text><line x1="138.716" y1="157.752" x2="128.716" y2="153.752" style="stroke:#8A7A67;stroke-width:1;"/><line x1="138.716" y1="157.752" x2="128.716" y2="161.752" style="stroke:#8A7A67;stroke-width:1;"/><line x1="38" y1="157.752" x2="139.716" y2="157.752" style="stroke:#8A7A67;stroke-width:1;"/><text x="45" y="153.01" fill="#000" font-size="13" font-weight="700" font-family="'IBM Plex Sans'">1</text><text x="57.576" y="153.01" fill="#000" font-size="13" textLength="26" font-family="'IBM Plex Sans'">请求</text><line x1="279.88" y1="217.684" x2="269.88" y2="213.684" style="stroke:#8A7A67;stroke-width:1;"/><line x1="279.88" y1="217.684" x2="269.88" y2="221.684" style="stroke:#8A7A67;stroke-width:1;"/><line x1="140.716" y1="217.684" x2="280.88" y2="217.684" style="stroke:#8A7A67;stroke-width:1;"/><text x="147.716" y="197.631" fill="#000" font-size="13" font-weight="700" font-family="'IBM Plex Sans'">2</text><text x="160.292" y="182.32" fill="#000" font-size="13" textLength="52.851" font-family="'IBM Plex Sans'">路由到 D</text><text x="160.292" y="197.631" fill="#000" font-size="13" textLength="86.957" font-family="'IBM Plex Sans'">（do_remote_</text><text x="160.292" y="212.941" fill="#000" font-size="13" textLength="85.624" font-family="'IBM Plex Sans'">prefill=true）</text><path d="M124.716,229.684 L306.939,229.684 L306.939,252.305 L296.939,262.305 L124.716,262.305 L124.716,229.684" style="stroke:#000;stroke-width:1.5;" fill="#EEE"/><rect x="124.716" y="229.684" width="374.793" height="364.969" fill="none" style="stroke:#000;stroke-width:1.5;"/><text x="139.716" y="243.252" fill="#000" font-size="13" textLength="137.224" font-weight="700" font-family="'IBM Plex Sans'">Rendezvous 会合阶段</text><text x="139.716" y="258.563" fill="#000" font-size="13" textLength="63.648" font-weight="700" font-family="'IBM Plex Sans'">（见 2.1）</text><path d="M227.613,277.305 L227.613,317.305 L485.613,317.305 L485.613,287.305 L475.613,277.305 L227.613,277.305" style="stroke:#C9B9A2;stroke-width:0.5;" fill="#FEFFDD"/><path d="M475.613,277.305 L475.613,287.305 L485.613,287.305 L475.613,277.305" style="stroke:#C9B9A2;stroke-width:0.5;" fill="#FEFFDD"/><text x="313.152" y="294.873" fill="#000" font-size="13" textLength="75.816" font-family="'IBM Plex Sans'">Rendezvous</text><text x="313.152" y="310.184" fill="#000" font-size="13" textLength="78" font-family="'IBM Plex Sans'">（会合阶段）</text><line x1="281.88" y1="405.479" x2="323.88" y2="405.479" style="stroke:#8A7A67;stroke-width:1;"/><line x1="323.88" y1="405.479" x2="323.88" y2="418.479" style="stroke:#8A7A67;stroke-width:1;"/><line x1="282.88" y1="418.479" x2="323.88" y2="418.479" style="stroke:#8A7A67;stroke-width:1;"/><polygon points="292.88,414.479,282.88,418.479,292.88,422.479,288.88,418.479" fill="#8A7A67" style="stroke:#8A7A67;stroke-width:1;stroke-linejoin:miter;stroke-miterlimit:10;"/><text x="288.88" y="370.115" fill="#000" font-size="13" font-weight="700" font-family="'IBM Plex Sans'">3</text><text x="301.456" y="339.494" fill="#000" font-size="13" textLength="76.781" font-family="'IBM Plex Sans'">剩余 prompt</text><text x="301.456" y="354.805" fill="#000" font-size="13" textLength="91" font-family="'IBM Plex Sans'">报告为异步匹配</text><text x="301.456" y="370.115" fill="#000" font-size="13" textLength="97.157" font-family="'IBM Plex Sans'">vLLM 分配 main</text><text x="301.456" y="385.426" fill="#000" font-size="13" textLength="76.68" font-family="'IBM Plex Sans'">host pool 块</text><text x="301.456" y="400.736" fill="#000" font-size="13" textLength="109.256" font-family="'IBM Plex Sans'">+ indexer NPU 块</text><path d="M223.398,431.479 L223.398,471.479 L339.398,471.479 L339.398,441.479 L329.398,431.479 L223.398,431.479" style="stroke:#C9B9A2;stroke-width:0.5;" fill="#FEFFDD"/><path d="M329.398,431.479 L329.398,441.479 L339.398,441.479 L329.398,431.479" style="stroke:#C9B9A2;stroke-width:0.5;" fill="#FEFFDD"/><text x="229.398" y="449.047" fill="#000" font-size="13" textLength="81.199" font-family="'IBM Plex Sans'">D 的 block id</text><text x="229.398" y="464.357" fill="#000" font-size="13" textLength="95.964" font-family="'IBM Plex Sans'">永远不出 D 节点</text><polygon points="151.716,525.031,141.716,529.031,151.716,533.031,147.716,529.031" fill="#8A7A67" style="stroke:#8A7A67;stroke-width:1;stroke-linejoin:miter;stroke-miterlimit:10;"/><line x1="145.716" y1="529.031" x2="280.88" y2="529.031" style="stroke:#8A7A67;stroke-width:1;"/><text x="157.716" y="508.979" fill="#000" font-size="13" font-weight="700" font-family="'IBM Plex Sans'">4</text><text x="170.292" y="493.668" fill="#000" font-size="13" textLength="97.392" font-family="'IBM Plex Sans'">广播 endpoint /</text><text x="170.292" y="508.979" fill="#000" font-size="13" textLength="97.494" font-family="'IBM Plex Sans'">端口 / TP 拓扑 /</text><text x="170.292" y="524.289" fill="#000" font-size="13" textLength="95.983" font-family="'IBM Plex Sans'">已缓存 token 数</text><line x1="281.88" y1="573.652" x2="323.88" y2="573.652" style="stroke:#8A7A67;stroke-width:1;"/><line x1="323.88" y1="573.652" x2="323.88" y2="586.652" style="stroke:#8A7A67;stroke-width:1;"/><line x1="282.88" y1="586.652" x2="323.88" y2="586.652" style="stroke:#8A7A67;stroke-width:1;"/><polygon points="292.88,582.652,282.88,586.652,292.88,590.652,288.88,586.652" fill="#8A7A67" style="stroke:#8A7A67;stroke-width:1;stroke-linejoin:miter;stroke-miterlimit:10;"/><text x="288.88" y="561.255" fill="#000" font-size="13" font-weight="700" font-family="'IBM Plex Sans'">5</text><text x="301.456" y="553.6" fill="#000" font-size="13" textLength="26" font-family="'IBM Plex Sans'">清除</text><text x="301.456" y="568.91" fill="#000" font-size="13" textLength="110.754" font-family="'IBM Plex Sans'">do_remote_prefill</text><line x1="594.574" y1="660.584" x2="584.574" y2="656.584" style="stroke:#8A7A67;stroke-width:1;"/><line x1="594.574" y1="660.584" x2="584.574" y2="664.584" style="stroke:#8A7A67;stroke-width:1;"/><line x1="140.716" y1="660.584" x2="595.574" y2="660.584" style="stroke:#8A7A67;stroke-width:1;"/><text x="147.716" y="640.531" fill="#000" font-size="13" font-weight="700" font-family="'IBM Plex Sans'">6</text><text x="160.292" y="625.221" fill="#000" font-size="13" textLength="50.299" font-family="'IBM Plex Sans'">转发到 P</text><text x="160.292" y="640.531" fill="#000" font-size="13" textLength="86.957" font-family="'IBM Plex Sans'">（do_remote_</text><text x="160.292" y="655.842" fill="#000" font-size="13" textLength="94.32" font-family="'IBM Plex Sans'">decode=true）</text><line x1="596.574" y1="735.826" x2="638.574" y2="735.826" style="stroke:#8A7A67;stroke-width:1;"/><line x1="638.574" y1="735.826" x2="638.574" y2="748.826" style="stroke:#8A7A67;stroke-width:1;"/><line x1="597.574" y1="748.826" x2="638.574" y2="748.826" style="stroke:#8A7A67;stroke-width:1;"/><polygon points="607.574,744.826,597.574,748.826,607.574,752.826,603.574,748.826" fill="#8A7A67" style="stroke:#8A7A67;stroke-width:1;stroke-linejoin:miter;stroke-miterlimit:10;"/><text x="603.574" y="708.118" fill="#000" font-size="13" font-weight="700" font-family="'IBM Plex Sans'">7</text><text x="616.15" y="685.152" fill="#000" font-size="13" textLength="54.412" font-family="'IBM Plex Sans'">记录 P 侧</text><text x="616.15" y="700.463" fill="#000" font-size="13" textLength="109.25" font-family="'IBM Plex Sans'">source block id、</text><text x="616.15" y="715.773" fill="#000" font-size="13" textLength="83.199" font-family="'IBM Plex Sans'">D endpoint、</text><text x="616.15" y="731.084" fill="#000" font-size="13" textLength="82.983" font-family="'IBM Plex Sans'">已传 token 数</text><path d="M86.716,760.826 L286.973,760.826 L286.973,783.447 L276.973,793.447 L86.716,793.447 L86.716,760.826" style="stroke:#000;stroke-width:1.5;" fill="#EEE"/><rect x="86.716" y="760.826" width="843.254" height="879.111" fill="none" style="stroke:#000;stroke-width:1.5;"/><text x="101.716" y="774.395" fill="#000" font-size="13" textLength="122.91" font-weight="700" font-family="'IBM Plex Sans'">逐层计算 + 逐层传输</text><text x="101.716" y="789.705" fill="#000" font-size="13" textLength="155.257" font-weight="700" font-family="'IBM Plex Sans'">（P 每算完一层就发一层）</text><path d="M105.716,807.447 L180.163,807.447 L180.163,814.758 L170.163,824.758 L105.716,824.758 L105.716,807.447" style="stroke:#000;stroke-width:1.5;" fill="#EEE"/><rect x="105.716" y="807.447" width="799.254" height="818.49" fill="none" style="stroke:#000;stroke-width:1.5;"/><text x="120.716" y="821.016" fill="#000" font-size="13" textLength="29.447" font-weight="700" font-family="'IBM Plex Sans'">loop</text><text x="195.163" y="820.082" fill="#000" font-size="11" textLength="68.884" font-weight="700" font-family="'IBM Plex Sans'">[每个 layer i]</text><line x1="732.399" y1="917.311" x2="774.399" y2="917.311" style="stroke:#8A7A67;stroke-width:1;"/><line x1="774.399" y1="917.311" x2="774.399" y2="930.311" style="stroke:#8A7A67;stroke-width:1;"/><line x1="733.399" y1="930.311" x2="774.399" y2="930.311" style="stroke:#8A7A67;stroke-width:1;"/><polygon points="743.399,926.311,733.399,930.311,743.399,934.311,739.399,930.311" fill="#8A7A67" style="stroke:#8A7A67;stroke-width:1;stroke-linejoin:miter;stroke-miterlimit:10;"/><text x="739.399" y="881.947" fill="#000" font-size="13" font-weight="700" font-family="'IBM Plex Sans'">8</text><text x="751.975" y="851.326" fill="#000" font-size="13" textLength="93.691" font-family="'IBM Plex Sans'">wait_for_layer_</text><text x="751.975" y="866.637" fill="#000" font-size="13" textLength="82.431" font-family="'IBM Plex Sans'">load(i)：从 ①</text><text x="751.975" y="881.947" fill="#000" font-size="13" textLength="135.497" font-family="'IBM Plex Sans'">Memcache 加载前缀层</text><text x="751.975" y="897.258" fill="#000" font-size="13" textLength="94.485" font-family="'IBM Plex Sans'">（需先等 buffer</text><text x="751.975" y="912.568" fill="#000" font-size="13" textLength="78" font-family="'IBM Plex Sans'">安全可覆盖）</text><line x1="732.399" y1="990.242" x2="774.399" y2="990.242" style="stroke:#8A7A67;stroke-width:1;"/><line x1="774.399" y1="990.242" x2="774.399" y2="1003.242" style="stroke:#8A7A67;stroke-width:1;"/><line x1="733.399" y1="1003.242" x2="774.399" y2="1003.242" style="stroke:#8A7A67;stroke-width:1;"/><polygon points="743.399,999.242,733.399,1003.242,743.399,1007.242,739.399,1003.242" fill="#8A7A67" style="stroke:#8A7A67;stroke-width:1;stroke-linejoin:miter;stroke-miterlimit:10;"/><text x="739.399" y="970.189" fill="#000" font-size="13" font-weight="700" font-family="'IBM Plex Sans'">9</text><text x="751.975" y="954.879" fill="#000" font-size="13" textLength="100.001" font-family="'IBM Plex Sans'">attention 计算，</text><text x="751.975" y="970.189" fill="#000" font-size="13" textLength="47.1" font-family="'IBM Plex Sans'">KV 写入</text><text x="751.975" y="985.5" fill="#000" font-size="13" textLength="94.485" font-family="'IBM Plex Sans'">共享物理 buffer</text><line x1="732.399" y1="1047.863" x2="774.399" y2="1047.863" style="stroke:#8A7A67;stroke-width:1;"/><line x1="774.399" y1="1047.863" x2="774.399" y2="1060.863" style="stroke:#8A7A67;stroke-width:1;"/><line x1="733.399" y1="1060.863" x2="774.399" y2="1060.863" style="stroke:#8A7A67;stroke-width:1;"/><polygon points="743.399,1056.863,733.399,1060.863,743.399,1064.863,739.399,1060.863" fill="#8A7A67" style="stroke:#8A7A67;stroke-width:1;stroke-linejoin:miter;stroke-miterlimit:10;"/><text x="739.399" y="1035.466" fill="#000" font-size="13" textLength="17.151" font-weight="700" font-family="'IBM Plex Sans'">10</text><text x="760.551" y="1027.811" fill="#000" font-size="13" textLength="72.865" font-family="'IBM Plex Sans'">scatter 完成</text><text x="760.551" y="1043.121" fill="#000" font-size="13" textLength="114.721" font-family="'IBM Plex Sans'">→ save_kv_layer(i)</text><path d="M124.716,1072.863 L191.882,1072.863 L191.882,1080.174 L181.882,1090.174 L124.716,1090.174 L124.716,1072.863" style="stroke:#000;stroke-width:1.5;" fill="#EEE"/><rect x="124.716" y="1072.863" width="623.684" height="153.174" fill="none" style="stroke:#000;stroke-width:1.5;"/><text x="139.716" y="1086.432" fill="#000" font-size="13" textLength="22.166" font-weight="700" font-family="'IBM Plex Sans'">par</text><text x="206.882" y="1085.498" fill="#000" font-size="11" textLength="52.153" font-weight="700" font-family="'IBM Plex Sans'">[双路并行]</text><polygon points="151.716,1148.105,141.716,1152.105,151.716,1156.105,147.716,1152.105" fill="#8A7A67" style="stroke:#8A7A67;stroke-width:1;stroke-linejoin:miter;stroke-miterlimit:10;"/><line x1="145.716" y1="1152.105" x2="731.399" y2="1152.105" style="stroke:#8A7A67;stroke-width:1;"/><text x="157.716" y="1132.053" fill="#000" font-size="13" textLength="17.151" font-weight="700" font-family="'IBM Plex Sans'">11</text><text x="178.867" y="1116.742" fill="#000" font-size="13" textLength="78.159" font-family="'IBM Plex Sans'">AscendStore</text><text x="178.867" y="1132.053" fill="#000" font-size="13" textLength="57.891" font-family="'IBM Plex Sans'">异步 save</text><text x="178.867" y="1147.363" fill="#000" font-size="13" textLength="122.497" font-family="'IBM Plex Sans'">到 ①（Memcache）</text><line x1="124.716" y1="1161.105" x2="748.399" y2="1161.105" style="stroke:#000;stroke-width:1;stroke-dasharray:2,2;"/><polygon points="442.423,1214.037,432.423,1218.037,442.423,1222.037,438.423,1218.037" fill="#8A7A67" style="stroke:#8A7A67;stroke-width:1;stroke-linejoin:miter;stroke-miterlimit:10;"/><line x1="436.423" y1="1218.037" x2="731.399" y2="1218.037" style="stroke:#8A7A67;stroke-width:1;"/><text x="448.423" y="1197.984" fill="#000" font-size="13" textLength="17.151" font-weight="700" font-family="'IBM Plex Sans'">12</text><text x="469.574" y="1182.674" fill="#000" font-size="13" textLength="94.586" font-family="'IBM Plex Sans'">send_thread 发</text><text x="469.574" y="1197.984" fill="#000" font-size="13" textLength="136.487" font-family="'IBM Plex Sans'">READ_READY_BATCH(</text><text x="469.574" y="1213.295" fill="#000" font-size="13" textLength="128.324" font-family="'IBM Plex Sans'">layer_idx, 块id, 偏移)</text><line x1="431.423" y1="1322.59" x2="473.423" y2="1322.59" style="stroke:#8A7A67;stroke-width:1;"/><line x1="473.423" y1="1322.59" x2="473.423" y2="1335.59" style="stroke:#8A7A67;stroke-width:1;"/><line x1="432.423" y1="1335.59" x2="473.423" y2="1335.59" style="stroke:#8A7A67;stroke-width:1;"/><polygon points="442.423,1331.59,432.423,1335.59,442.423,1339.59,438.423,1335.59" fill="#8A7A67" style="stroke:#8A7A67;stroke-width:1;stroke-linejoin:miter;stroke-miterlimit:10;"/><text x="438.423" y="1287.227" fill="#000" font-size="13" textLength="17.151" font-weight="700" font-family="'IBM Plex Sans'">13</text><text x="459.574" y="1256.605" fill="#000" font-size="13" textLength="68.072" font-family="'IBM Plex Sans'">校验 main/</text><text x="459.574" y="1271.916" fill="#000" font-size="13" textLength="82.494" font-family="'IBM Plex Sans'">indexer/LIC8</text><text x="459.574" y="1287.227" fill="#000" font-size="13" textLength="104" font-family="'IBM Plex Sans'">尺寸与目标块范围</text><text x="459.574" y="1302.537" fill="#000" font-size="13" textLength="130" font-family="'IBM Plex Sans'">（不匹配则整层失败，</text><text x="459.574" y="1317.848" fill="#000" font-size="13" textLength="104" font-family="'IBM Plex Sans'">不残留半份数据）</text><line x1="431.423" y1="1410.832" x2="473.423" y2="1410.832" style="stroke:#8A7A67;stroke-width:1;"/><line x1="473.423" y1="1410.832" x2="473.423" y2="1423.832" style="stroke:#8A7A67;stroke-width:1;"/><line x1="432.423" y1="1423.832" x2="473.423" y2="1423.832" style="stroke:#8A7A67;stroke-width:1;"/><polygon points="442.423,1419.832,432.423,1423.832,442.423,1427.832,438.423,1423.832" fill="#8A7A67" style="stroke:#8A7A67;stroke-width:1;stroke-linejoin:miter;stroke-miterlimit:10;"/><text x="438.423" y="1383.124" fill="#000" font-size="13" textLength="17.151" font-weight="700" font-family="'IBM Plex Sans'">14</text><text x="459.574" y="1360.158" fill="#000" font-size="13" textLength="124.757" font-family="'IBM Plex Sans'">MemFabric 批量读：</text><text x="459.574" y="1375.469" fill="#000" font-size="13" textLength="86.468" font-family="'IBM Plex Sans'">main KV → ③</text><text x="459.574" y="1390.779" fill="#000" font-size="13" textLength="86.417" font-family="'IBM Plex Sans'">D host pool；</text><text x="459.574" y="1406.09" fill="#000" font-size="13" textLength="125.772" font-family="'IBM Plex Sans'">indexer → ④ D NPU</text><line x1="730.399" y1="1468.453" x2="720.399" y2="1464.453" style="stroke:#8A7A67;stroke-width:1;"/><line x1="730.399" y1="1468.453" x2="720.399" y2="1472.453" style="stroke:#8A7A67;stroke-width:1;"/><line x1="431.423" y1="1468.453" x2="731.399" y2="1468.453" style="stroke:#8A7A67;stroke-width:1;stroke-dasharray:2,2;"/><text x="438.423" y="1456.056" fill="#000" font-size="13" textLength="17.151" font-weight="700" font-family="'IBM Plex Sans'">15</text><text x="459.574" y="1448.4" fill="#000" font-size="13" textLength="89.172" font-family="'IBM Plex Sans'">READ_DONE(i)</text><text x="459.574" y="1463.711" fill="#000" font-size="13" textLength="113.198" font-family="'IBM Plex Sans'">或 READ_FAILED(i)</text><line x1="732.399" y1="1604.938" x2="774.399" y2="1604.938" style="stroke:#8A7A67;stroke-width:1;"/><line x1="774.399" y1="1604.938" x2="774.399" y2="1617.938" style="stroke:#8A7A67;stroke-width:1;"/><line x1="733.399" y1="1617.938" x2="774.399" y2="1617.938" style="stroke:#8A7A67;stroke-width:1;"/><polygon points="743.399,1613.938,733.399,1617.938,743.399,1621.938,739.399,1617.938" fill="#8A7A67" style="stroke:#8A7A67;stroke-width:1;stroke-linejoin:miter;stroke-miterlimit:10;"/><text x="739.399" y="1546.608" fill="#000" font-size="13" textLength="17.151" font-weight="700" font-family="'IBM Plex Sans'">16</text><text x="760.551" y="1493.021" fill="#000" font-size="13" textLength="83.459" font-family="'IBM Plex Sans'">该物理 slot 的</text><text x="760.551" y="1508.332" fill="#000" font-size="13" textLength="128.419" font-family="'IBM Plex Sans'">storage_send_done_</text><text x="760.551" y="1523.643" fill="#000" font-size="13" textLength="70.884" font-family="'IBM Plex Sans'">events 置位</text><text x="760.551" y="1538.953" fill="#000" font-size="13" textLength="71.519" font-family="'IBM Plex Sans'">（等所有 TP</text><text x="760.551" y="1554.264" fill="#000" font-size="13" textLength="71.068" font-family="'IBM Plex Sans'">contributor</text><text x="760.551" y="1569.574" fill="#000" font-size="13" textLength="80.831" font-family="'IBM Plex Sans'">+ Memcache</text><text x="760.551" y="1584.885" fill="#000" font-size="13" textLength="70.891" font-family="'IBM Plex Sans'">save 都完成</text><text x="760.551" y="1600.195" fill="#000" font-size="13" textLength="65" font-family="'IBM Plex Sans'">才可复用）</text><line x1="281.88" y1="1721.18" x2="323.88" y2="1721.18" style="stroke:#8A7A67;stroke-width:1;"/><line x1="323.88" y1="1721.18" x2="323.88" y2="1734.18" style="stroke:#8A7A67;stroke-width:1;"/><line x1="282.88" y1="1734.18" x2="323.88" y2="1734.18" style="stroke:#8A7A67;stroke-width:1;"/><polygon points="292.88,1730.18,282.88,1734.18,292.88,1738.18,288.88,1734.18" fill="#8A7A67" style="stroke:#8A7A67;stroke-width:1;stroke-linejoin:miter;stroke-miterlimit:10;"/><text x="288.88" y="1693.472" fill="#000" font-size="13" textLength="17.151" font-weight="700" font-family="'IBM Plex Sans'">17</text><text x="310.032" y="1670.506" fill="#000" font-size="13" textLength="53.447" font-family="'IBM Plex Sans'">全部层 +</text><text x="310.032" y="1685.816" fill="#000" font-size="13" textLength="114.391" font-family="'IBM Plex Sans'">所有 rank 到达终态</text><text x="310.032" y="1701.127" fill="#000" font-size="13" textLength="82.113" font-family="'IBM Plex Sans'">→ 请求才可被</text><text x="310.032" y="1716.438" fill="#000" font-size="13" textLength="88.607" font-family="'IBM Plex Sans'">调度进 decode</text><path d="M197.398,1747.18 L197.398,1818.18 L365.398,1818.18 L365.398,1757.18 L355.398,1747.18 L197.398,1747.18" style="stroke:#C9B9A2;stroke-width:0.5;" fill="#FEFFDD"/><path d="M355.398,1747.18 L355.398,1757.18 L365.398,1757.18 L355.398,1747.18" style="stroke:#C9B9A2;stroke-width:0.5;" fill="#FEFFDD"/><text x="203.398" y="1764.748" fill="#000" font-size="13" textLength="98.598" font-family="'IBM Plex Sans'">物理 buffer 完成</text><text x="203.398" y="1780.059" fill="#000" font-size="13" textLength="79.447" font-family="'IBM Plex Sans'">≠ 请求完成：</text><text x="203.398" y="1795.369" fill="#000" font-size="13" textLength="132.412" font-family="'IBM Plex Sans'">前者保护 P 内存复用，</text><text x="203.398" y="1810.68" fill="#000" font-size="13" textLength="147.964" font-family="'IBM Plex Sans'">后者控制 D 何时开始推理</text><?plantuml-src XLPjJnj74Fv-ls95loHAKXHQDKcbHZ8SA559QiLfKQMJhCEtX1FdNVVk32HL9G8riGdc9Gb928a42GJoWcsg50pOy5_8xTtv4t-XitjdOvDMvOFjdPsNP-QPcSKQqabADTKaiWPLZOxev0uQK0qBIrRZHiC3QjgmUoYnRwf9ZDgkTzv0KGEFefXAhBOcpNurCNJ7f6cYTL63ckYhdfuUkUToauQ5VqjZai3eTmcXY6dIaL3pSkHIvBjB8EpL1t2lJd0dDJLiXhTTLpglH3hWDggQjfxGKogn_r_XFz2qAF6imkkEpevlBtR2DPV5z7iONVmcFBLg_D6K4A4s_Z9GDqIIJslz2rx9rcq38wSyvdvSyOixxjQuip_32g_Tx8xteSYo9IGZDblqInDixwttuiz029_kisssDoj9Qjgc99tinwOafKxIGcqD9sr8jL2NeRTUHzjb53Nfw5s5d36egiNxLKC5Ok8AIN5nt53lOdD4jxZ4mkOmDiyAJr5pjDMJZ6A9GQob3Mo2hrjonpMKeCHA9-iMSkoqGHyrXuIsYI6oFSY_Gjs-Kp2_T0xmj7IY0ITssg3XV82Q8wgfeNCy0T8Q9zedIL0JTE7gLPuH-Xu5rPVuWGlb69Vj5BqdMu85XHnNiXgDcpW9N8eguG7TC7wmpJG-hkGaYNT02js2IFZUC4rRoAcyO7FPslDjj_2tCFVNxwEEhozoRIHQ0b4eAuGwp_D6y7TYBOvWq-maC0GLOGm_0UI542hBlNEgYxmuoPIj47TgZSrFEUKzLXbtDzVOz6ujarV8S6_l3SIoat10ILKd2XcaberIb1g8lNgca7D81mIZWEfcz6SkEeKK8ia8-X3r6pGnX7GDGfNA_k5Bfvnd3_RWqfyQzyPt6-22uhBTG_VH9eUUeZhGrAuGticpRr0xkXr5xiF7RcwUIzdENrxbCTjyZcmwX0bo5qgjURhbJ6rnLI4dL8H4IE1SQj0N5VHLFxBPUKvVz0lwD9oW6cwm5mt02gj2YLKNK1Gv1-lGEJHjmhggf_jvxBv2v4OYuWYOdSfo4-2m5MfZSsnht2-iU8Ldw5nu14t_uB600taNP-6E5QPX0S0TAsq1tk1tmBL1QOfhEUNtI0maqaLZHFi4t3w0EwBgTXnQFHXOo8nFyndzx77b1QmIT3I_h90RE9bGOOuGcrhsgrMMotiL7aJ0gBqSOvcijvb3_Uc10Juvh91ZcGs-TjvEUajF0oWjGLNRniJMAK51UiULQONy-0jYauiiimOUCblEtWSlzywRcmpTddPX9RWJ4q7sRdPE8KUJZv2b3kFuq72G2kGWR62yOGLEmoootMr_PLe86wv4UqMi130Iiwc98RReUE4B3a0-b03IhDUWdWtcZropArcWEbaK47HU8RUw8tASV_mQxupSxhfs1Wei2grhe-VvWEWQVDsVzTRt0xYy3VctVEBKNLwflPyM0mSj7WvOU-_rhii0iBJ7YcMdFECj5Tpb1-3GdvvWIvy4DNoenEIoxAAxy8ctoEgM_sbDb1iktS93Rs6HvQUS_IeqdfilrBDhYWw9zwZzffv0Rcwtzc3MB-v3RoY4mq706I_yqVnhtjQDPN1SMMe03HNUm6p3JcXu5rF6_OiAoJ_Tx0R2O1jadmQIdiZrtcwvJc8JyNvnBMmCow0sNoOmPK2TUWV7HVarIlY4uc5eCGjvrO9JpOjoG8-wkJ7tPGvsXaBWaR5DlH_UFvFlhJg_u0oOHxM9Qhspt5mUUfcjvhqd6uqL6goBvWMQsQXDR429-NiHXZ5LCWJhikGV77ZxMPSFEoz6y5G4RltN7nGIFC_-uH8ArehKl38XNiiWX1qFugFSSkWh404j88NfzCSopk4hTseLjX2RpC0whAFdtS_cPa31dLbdsMqWnQaky7y6OA3N7xep6n18gZyH_m00?></g></svg>